<svg enable-background="new 0 0 400 400" viewBox="0 0 400 400" xmlns="http://www.w3.org/2000/svg"><path d="m270.75 328.14c-25.59 7.97-54.19 8.88-80.8 6.97-24.74-1.78-49.85-7.29-71.57-19.66-23.17-13.2-42.1-34.56-47.49-61.14-6.23-30.72-5.32-63.5.49-94.2 6.6-34.86 20.12-68.15 39.8-97.66-1.44 0-2.88 0-4.32 0 4.27 7.54 8.55 15.08 12.82 22.61 3.66 6.46 6.92 13.49 11.36 19.47 3.88 5.23 8.8 7.19 15.18 7.74 8.73.75 17.52 1.14 26.26 1.7 17.39 1.12 34.77 2.24 52.16 3.36 8.86.57 17.71 1.14 26.57 1.71 6.87.44 14.72 2.02 21.46.05 7.09-2.08 9.91-8.85 13.06-14.88 4.53-8.68 9.06-17.36 13.6-26.03-1.31.17-2.62.34-3.93.51 25.76 33.17 41.54 73.85 45.18 115.67 3.11 35.71-.74 76.5-24.96 104.83-11.86 13.88-27.6 23.34-44.87 28.95-3.05.99-1.74 5.82 1.33 4.82 33.11-10.76 57.46-35.17 67.62-68.56 12.14-39.88 7.76-85.68-5.7-124.63-8.07-23.34-19.92-45.13-35.06-64.62-.98-1.26-3.25-.79-3.93.51-4.39 8.4-8.77 16.8-13.16 25.19-1.96 3.75-3.77 8.82-7.09 11.61-3.54 2.97-8.44 2.52-12.73 2.28-20.02-1.12-40.02-2.58-60.03-3.87-9.84-.63-19.68-1.27-29.52-1.9-4.92-.32-9.84-.63-14.76-.95-4.87-.31-10.19-.11-14.96-1.22-8.85-2.07-12.82-13.77-16.87-20.91-4.91-8.65-9.81-17.31-14.72-25.96-.97-1.71-3.3-1.52-4.32 0-36.1 54.11-51.54 121.14-42.49 185.58 2.22 15.78 6.73 29.87 16.14 42.86 7.2 9.93 16.03 18.52 26.07 25.55 20.94 14.65 46.16 21.9 71.29 25.02 14.45 1.79 29.06 2.19 43.61 1.59 17.08-.71 34.22-2.45 50.6-7.55 3.07-.97 1.76-5.8-1.32-4.84z"/><path d="m296.39 104.42c-1.39 5.07-2.27 10.21-2.71 15.44-.1 1.18.87 2.02 1.84 2.41 4.35 1.77 8.76 2.14 13.39 1.48 1.27-.18 2.17-1.93 1.75-3.08-2.1-5.72-4.84-11.09-8.34-16.09-1.08-1.55-4.21-1.73-4.57.6-.88 5.77-.58 11.34 1.1 16.94.47 1.55 2.25 2.31 3.67 1.49 2.15-1.24 4.22-3.09 3.69-5.84-.41-2.14-2.69-3.93-4.89-3.21-4.62 1.51-.98 9.03 3.33 5.67 2.54-1.97-1.02-5.49-3.54-3.54-.12.09-.23.18-.35.27.81-.21 1.62-.43 2.43-.64.31.33.62.66.93.98-.24.59-.49 1.18-.73 1.77.12-.11.23-.22.35-.33-.59.24-1.18.49-1.77.73-.68-.78-1.34-.84-1.99-.19 1.22.5 2.45 1 3.67 1.49-1.41-4.68-1.85-9.43-1.1-14.28-1.52.2-3.05.4-4.57.6 3.25 4.64 5.88 9.58 7.84 14.9.58-1.03 1.16-2.05 1.75-3.08-3.71.53-7.28-.08-10.73-1.48.61.8 1.22 1.61 1.84 2.41.4-4.8 1.26-9.47 2.53-14.11.86-3.09-3.96-4.41-4.82-1.31z"/><path d="m103.41 91.9c-2.49 3.88-4.97 7.75-7.46 11.63-.67 1.04-.31 2.89.9 3.42 5.01 2.19 10.11 2.81 15.5 1.81 1.34-.25 2.06-1.86 1.75-3.08-1.16-4.48-2.89-8.74-5.17-12.77-.82-1.44-2.77-1.58-3.93-.51-1.89 1.76-3.77 4.04-3.22 6.81.47 2.35 2.58 4.3 5.04 3.98 3.18-.41 3.24-4.64 0-5-3.43-.38-6.53 1.36-8.27 4.28-.58.98-.36 2.22.39 3.03 1.37 1.48 3.09 2.2 5.11 2.05 3.19-.23 3.22-5.23 0-5-.66.2-1.19.01-1.57-.59.13 1.01.26 2.02.39 3.03.91-1.53 2.22-2 3.95-1.81 0-1.67 0-3.33 0-5-.23.03 1.52-2.09 1.71-2.26-1.31-.17-2.62-.34-3.93-.51 2.07 3.67 3.61 7.49 4.66 11.57.58-1.03 1.16-2.05 1.75-3.08-3.94.73-7.97.29-11.65-1.31.3 1.14.6 2.28.9 3.42 2.49-3.88 4.97-7.75 7.46-11.63 1.75-2.67-2.57-5.18-4.31-2.48z"/><path d="m274.85 181.66c-1.72 5.23.23 10.25 4.77 13.26.88.58 2.32.39 3.03-.39 5.99-6.63 6.03-16.28.17-23.01-1.17-1.34-3.03-.67-3.93.51-6.58 8.63-7.14 20.3-1.75 29.65.84 1.46 2.74 1.56 3.93.51 7.41-6.62 7.42-18.74.04-25.39-1.17-1.05-3.11-.96-3.93.51-3.57 6.39-2.63 13.82 2.36 19.15.88.95 2.66.99 3.54 0 3-3.37 3.54-7.6 1.08-11.47-.91-1.43-2.68-1.58-3.93-.51-4.01 3.46-4.78 8.61-2.45 13.28 1.07 2.14 3.83 1.19 4.57-.6 1.37-3.34 1.57-6.28 1.06-9.82-.4-2.82-4.95-2.1-4.91.66.02 1.39.04 2.77.06 4.16.05 3.21 5.05 3.22 5 0-.02-1.39-.04-2.77-.06-4.16-1.64.22-3.27.44-4.91.66.38 2.64-.07 4.76-1.06 7.16 1.52-.2 3.05-.4 4.57-.6-1.38-2.76-.58-5.28 1.67-7.22-1.31-.17-2.62-.34-3.93-.51 1.37 1.82 1.27 3.63-.3 5.42h3.54c-3.45-3.69-4.03-8.7-1.57-13.09-1.31.17-2.62.34-3.93.51 5.46 4.91 5.45 13.41-.04 18.31l3.93.51c-4.58-7.95-3.78-17.35 1.75-24.6-1.31.17-2.62.34-3.93.51 4.01 4.6 3.9 11.42-.17 15.94l3.03-.39c-2.75-1.83-3.47-4.57-2.47-7.61 1-3.08-3.82-4.39-4.83-1.34z"/><path d="m125.42 181.66c-1.72 5.23.23 10.25 4.76 13.26.88.58 2.32.39 3.03-.39 5.99-6.63 6.03-16.28.17-23.01-1.17-1.34-3.03-.67-3.93.51-6.58 8.63-7.14 20.3-1.75 29.65.84 1.46 2.74 1.56 3.93.51 7.41-6.62 7.42-18.74.04-25.39-1.17-1.05-3.11-.96-3.93.51-3.57 6.39-2.63 13.82 2.36 19.15.88.95 2.66.99 3.54 0 3-3.37 3.54-7.6 1.08-11.47-.91-1.43-2.68-1.58-3.93-.51-4.01 3.46-4.78 8.61-2.45 13.28 1.07 2.14 3.83 1.19 4.57-.6 1.37-3.34 1.57-6.28 1.06-9.82-.4-2.82-4.95-2.1-4.91.66.02 1.39.04 2.77.06 4.16.05 3.21 5.05 3.22 5 0-.02-1.39-.04-2.77-.06-4.16-1.64.22-3.27.44-4.91.66.38 2.64-.07 4.76-1.06 7.16 1.52-.2 3.05-.4 4.57-.6-1.38-2.76-.58-5.28 1.67-7.22-1.31-.17-2.62-.34-3.93-.51 1.37 1.82 1.27 3.63-.3 5.42h3.54c-3.45-3.69-4.03-8.7-1.57-13.09-1.31.17-2.62.34-3.93.51 5.46 4.91 5.45 13.41-.04 18.31 1.31.17 2.62.34 3.93.51-4.58-7.95-3.78-17.35 1.75-24.6-1.31.17-2.62.34-3.93.51 4.01 4.6 3.9 11.42-.17 15.94l3.03-.39c-2.75-1.83-3.47-4.57-2.47-7.61 1.01-3.08-3.82-4.39-4.82-1.34z"/><path d="m203.21 210.82c-5.29-4.27-11.05 3.18-6.57 7.96 5 5.33 14.44 2.7 18.44-2.46 4.49-5.79-3.97-11.03-9.44-10.45-6.24.66-9.34 7.09-6.93 12.66 2.43 5.61 9.41 6.76 13.23 1.86 3.85-4.95 1.32-13.38-5.88-12.36-5.9.84-6.46 10.41-.12 10.52 5.65.1 6.09-8.53 1.25-10.25-7.82-2.78-12.2 10.46-4.57 13.48 6.41 2.53 9.72-8.03 3.32-9.33-1.18-.24-2.14.19-2.82 1.15-1.57 2.22-1.56 4.76-.09 7.02.67 1.02 1.67 1.33 2.82 1.15 8.38-1.33 3.26-16.1-5.18-10.17-3.8 2.67-4.04 7.7-1.55 11.34 2.76 4.04 8.03 5.8 12.73 5.11 9.02-1.33 14.27-13.95 5.68-19.6-7.26-4.79-18.98.57-20.86 8.84-1.17 5.11 2.89 9.1 7.89 8.82 5.68-.32 8.56-5.68 10.03-10.49.43-1.4-.52-2.58-1.75-3.08-4.6-1.85-12.59 2.39-9.39 7.91 1.13 1.95 3.83 4.47 6.28 3.97 3.16-.63 6.04-5 7.34-7.59 1.44-2.87-2.87-5.4-4.32-2.52-1.19 2.36-2.71 4.13-4.95 5.54h2.52c-1.1-.48-2.91-1.05-2.08-2.24.62-.89 2.5-.56 3.26-.26-.58-1.03-1.16-2.05-1.75-3.08-.64 2.1-1.52 4.98-3.56 6.17-1.49.87-2.71.98-3.88-.39-1.25-1.47-.63-2.58.36-4.05 2.07-3.06 6.81-5.12 10.44-4.12 5.4 1.48 4.37 8.47.05 10.59-2.38 1.16-5.39.93-7.66-.38-1-.58-2.17-1.5-2.65-2.62-.12-.78-.24-1.55-.36-2.33 2.87-1.4 3.55-1.47 2.05-.21.94.38 1.88.77 2.82 1.15.03-.66.06-1.32.09-1.97-.94.38-1.88.77-2.82 1.15-2.35-.48-.51-3.92 1.28-4.22 2-.33 3.09.68 2.88 2.58-.33 3.06-3.97 3.86-5.39 1.16-3.21-6.12 6.03-7.89 8.62-2.39 0-.84 0-1.68 0-2.52-1.25 2.13-3.06 3.72-5.46 4.4-.87.25-1.82.38-2.72.34-2.5-.12-2.39-.85-4.16-2.28 2.47 2.03 6.03-1.49 3.53-3.51z"/><path d="m172.36 234.48c-3.69 14.76 8.79 28.54 23.94 25.29 15.77-3.39 18.19-21.62 18.75-34.95.14-3.3-4.59-3.08-5 0-1.67 12.49-2.02 36.28 12.58 42.07 6.23 2.47 13.21-.14 17.65-4.83 5.45-5.75 6.81-13.82 7.73-21.38.39-3.19-4.62-3.16-5 0-.75 6.15-1.82 13.15-6.26 17.84-4.37 4.61-11.28 6.04-15.98 1.1-7.91-8.31-7.11-24.4-5.72-34.81-1.67 0-3.33 0-5 0-.41 9.65-1.08 22.64-10.35 28.28-11.98 7.28-25.77-4.28-22.52-17.29.78-3.11-4.04-4.44-4.82-1.32z"/><path d="m166.65 115.11c-2.29 10.45-2.61 21.21-.44 31.72 1.28 6.2 4.98 14.32 12.62 13.48 7.5-.83 10.28-9.73 11.64-15.89 2.42-10.94 2.43-22.11.44-33.11-.27-1.51-2.43-2.38-3.67-1.49-4.95 3.51-10.2 6.11-16.03 7.84.81 1.39 1.62 2.79 2.43 4.18 1.78-1.69 3.75-2.3 6.15-2.14-.59-1.42-1.18-2.85-1.77-4.27-4.59 5.02-7.71 10.79-9.3 17.41-.56 2.33 2.41 4.33 4.18 2.43 4.98-5.35 9.97-10.7 14.95-16.04-1.18-1.18-2.36-2.36-3.54-3.54-6.56 7.66-10.75 16.68-12.1 26.7-.35 2.59 3.05 4.63 4.57 1.93 3.6-6.42 7.21-12.84 10.81-19.25-1.52-.64-3.05-1.28-4.57-1.93-3.25 8.39-6.5 16.77-9.74 25.16-1.02 2.63 3.31 4.45 4.57 1.93 3.44-6.85 6.88-13.71 10.31-20.56-1.55-.42-3.11-.84-4.66-1.26-.67 10.05-3.73 19.43-9.02 27.99 1.31-.17 2.62-.34 3.93-.51-9.26-11.99-5.87-28.61-2.82-42.18-1.64-.22-3.27-.44-4.91-.66-.03 5.27-.48 10.73-.04 15.99.24 2.86 1.42 5.84 4.47 6.56 7.99 1.89 11.77-13.87 13.27-18.96-1.64-.22-3.27-.44-4.91-.66 1.37 11.64-.66 23.03-6.15 33.4 1.14-.3 2.28-.6 3.42-.9-1.38-.84-2.08-2-2.1-3.47-.52-3.17-5.34-1.82-4.82 1.33.48 2.92 1.95 4.88 4.4 6.45 1.1.71 2.81.26 3.42-.9 5.89-11.11 8.3-23.42 6.84-35.93-.31-2.66-4.06-3.56-4.91-.66-.6 2.02-5.25 16.64-7.82 14.38-.89-.78-.13-6.25-.12-7.47.02-3.06.04-6.11.06-9.17.02-2.77-4.28-3.46-4.91-.66-3.53 15.71-6.46 33.37 4.11 47.05 1.03 1.33 3.17.71 3.93-.51 5.75-9.31 8.98-19.6 9.71-30.51.16-2.45-3.56-3.45-4.66-1.26-3.44 6.85-6.88 13.71-10.31 20.56 1.52.64 3.05 1.28 4.57 1.93 3.25-8.39 6.5-16.77 9.74-25.16 1.03-2.67-3.21-4.35-4.57-1.93-3.6 6.42-7.21 12.84-10.81 19.25 1.52.64 3.05 1.28 4.57 1.93 1.23-9.15 4.8-17.47 10.82-24.5 2.07-2.42-1.32-5.92-3.54-3.54-4.98 5.35-9.97 10.7-14.95 16.04 1.39.81 2.79 1.62 4.18 2.43 1.39-5.79 3.99-10.81 8.02-15.2 1.51-1.65.41-4.13-1.77-4.27-3.82-.25-6.93.98-9.69 3.6-1.8 1.72.05 4.88 2.43 4.18 6.22-1.84 11.93-4.58 17.22-8.34-1.22-.5-2.45-1-3.67-1.49 1.39 7.73 1.71 15.56.76 23.36-.63 5.22-1.55 16.05-7.06 18.86-7.36 3.75-9.24-11.16-9.67-15.11-.86-7.82-.33-15.64 1.35-23.31.67-3.14-4.15-4.48-4.84-1.33z"/><path d="m207.61 116.79c-3.3 10.36-4.63 22.41-1.6 33.02 1.85 6.48 6.84 13.75 14.53 12.25 8.03-1.57 10.7-11.2 12.53-17.96 2.64-9.77 4.18-19.81-.28-29.27-.94-1.99-4.05-1.37-4.57.6-3.01 11.33-6.8 22.42-11.42 33.2 1.52.64 3.05 1.28 4.57 1.93 2.15-10.41 4.31-20.83 6.46-31.24.57-2.75-3-4.37-4.57-1.93-4.18 6.54-8.36 13.08-12.54 19.62l4.32 2.52c2.74-5.16 4.26-10.48 4.72-16.3.12-1.47-1.25-2.34-2.5-2.5-2.78-.35-4.73.46-6.72 2.38 1.31 1.01 2.62 2.02 3.93 3.03 1.61-3.49 2.02-6.72 1.31-10.49-.5-2.64-4.06-2.1-4.82 0-4.89 13.4-9.24 32.33 6.04 40.92 1.29.72 3.39.15 3.67-1.49 2.05-11.92 3.33-23.93 3.79-36.02.09-2.25-2.75-3.18-4.27-1.77-8.82 8.2-9.84 20.56-10.25 31.91-.07 2.06 2.86 3.44 4.27 1.77 6.75-8.05 9.47-17.9 7.89-28.28-.27-1.78-3.06-2.49-4.18-1.1-4.39 5.46-7.31 11.47-8.63 18.38h4.82c-1.69-7.18.02-14.39 4.84-19.98-1.42-.59-2.85-1.18-4.27-1.77.16 5.6-.12 11.14-.83 16.69-.37 2.88 4.12 3.26 4.91.66 1.32-4.36 3.36-7.94 6.45-11.3-1.39-.37-2.79-.74-4.18-1.1 4.43 11.1 3.61 23.16-2.48 33.48-1.42 2.4 1.99 5.17 3.93 3.03 9.07-10.02 12.57-23.51 9.48-36.67-.69-2.93-4.64-1.98-4.91.66-1.15 11.44-4.8 22.24-10.68 32.11h4.32c-6.62-11.22-.28-24.48 5.13-34.84-.94.38-1.88.77-2.82 1.15 1.05.42 2.1.83 3.16 1.25.44-1.61.89-3.21 1.33-4.82-1.41-.26-2.83-.51-4.24-.77-3.15-.57-4.5 4.25-1.33 4.82 1.41.26 2.83.51 4.24.77 3.2.58 4.31-3.64 1.33-4.82-1.05-.42-2.1-.83-3.16-1.25-.97-.39-2.35.25-2.82 1.15-6.32 12.09-12.78 26.93-5.13 39.89.96 1.63 3.36 1.61 4.32 0 6.35-10.66 10.12-22.3 11.36-34.63-1.64.22-3.27.44-4.91.66 2.67 11.36-.36 23.15-8.19 31.81l3.93 3.03c6.71-11.36 7.88-25.05 2.98-37.33-.65-1.63-2.78-2.62-4.18-1.1-3.64 3.95-6.18 8.36-7.73 13.5 1.64.22 3.27.44 4.91.66.71-5.55.99-11.09.83-16.69-.06-2.02-2.79-3.49-4.27-1.77-6.03 6.99-8.25 15.85-6.13 24.85.55 2.32 4.35 2.45 4.82 0 1.15-5.99 3.51-11.4 7.34-16.17-1.39-.37-2.79-.74-4.18-1.1 1.29 8.46-1.11 16.86-6.6 23.41 1.42.59 2.85 1.18 4.27 1.77.36-10.01.97-21.11 8.78-28.38-1.42-.59-2.85-1.18-4.27-1.77-.45 11.64-1.64 23.2-3.62 34.69 1.22-.5 2.45-1 3.67-1.49-13.05-7.34-7.78-24.22-3.74-35.28-1.61 0-3.21 0-4.82 0 .45 2.39.22 4.43-.8 6.64-1.15 2.48 1.77 5.11 3.93 3.03 1.06-.31 2.13-.61 3.19-.92-.83-.83-1.67-1.67-2.5-2.5-.39 4.97-1.71 9.38-4.04 13.78-1.51 2.85 2.58 5.24 4.32 2.52 4.18-6.54 8.36-13.08 12.54-19.62-1.52-.64-3.05-1.28-4.57-1.93-2.15 10.41-4.31 20.83-6.46 31.24-.54 2.59 3.39 4.68 4.57 1.93 4.8-11.18 8.8-22.63 11.93-34.39-1.52.2-3.05.4-4.57.6 3.33 7.07 2.38 14.79.62 22.15-1.27 5.3-2.9 15.61-9.01 17.42-7.61 2.25-9.85-9.81-10.35-14.86-.8-8.13.24-16.17 2.71-23.94.95-3.08-3.88-4.4-4.85-1.34z"/><path d="m247.44 119.57c-3.28 10.46-4.42 21.44-3 32.33.98 7.54 3.79 16.88 13.29 15.7 8.52-1.06 12.16-9.81 13.95-17.13 2.59-10.6 2.3-21.59-.46-32.12-.74-2.84-4.72-2.07-4.91.66-.95 13.75-4.16 27.07-9.47 39.78 1.64.22 3.27.44 4.91.66-.68-11.71 1.26-23.06 5.74-33.9-1.61-.44-3.21-.89-4.82-1.33-2.63 7.89-5.26 15.77-7.88 23.66 1.61.44 3.21.89 4.82 1.33 2.43-9.47 4.85-18.94 7.28-28.42.64-2.49-2.35-4.08-4.18-2.43-6.44 5.8-10.72 13.27-12.42 21.77-.54 2.67 3.1 4.51 4.57 1.93 3.64-6.38 6.22-13.12 7.74-20.32.37-1.77-1.15-3.69-3.08-3.08-4.97 1.59-8.43 5.24-9.42 10.41-.51 2.68 3.07 4.5 4.57 1.93 2.27-3.89 2.27-7.92.04-11.82-1.12-1.96-3.9-1.38-4.57.6-4.76 13.93-3.79 28.79 2.44 42.09.88 1.89 4.2 1.47 4.57-.6 1.51-8.47 1.86-16.9.92-25.46-.29-2.67-4.08-3.56-4.91-.66-2.57 8.97-1.86 17.9 1.81 26.44 1.03 2.39 4.63 1.02 4.66-1.26.04-4.04.88-7.61 2.71-11.23-1.52-.64-3.05-1.28-4.57-1.93-1.39 4.41-2.77 8.83-4.16 13.24-.65 2.07 1.84 3.95 3.67 2.82 11.65-7.17 17.07-21.76 12.63-34.76-1.03-3.03-5.86-1.73-4.82 1.33 3.71 10.88-.5 23.06-10.33 29.11 1.22.94 2.45 1.88 3.67 2.82 1.39-4.41 2.77-8.83 4.16-13.24.84-2.67-3.28-4.47-4.57-1.93-2.22 4.37-3.34 8.84-3.39 13.75 1.55-.42 3.11-.84 4.66-1.26-3.12-7.28-3.47-15.01-1.3-22.59-1.64-.22-3.27-.44-4.91-.66.89 8.1.69 16.1-.74 24.13 1.52-.2 3.05-.4 4.57-.6-5.67-12.1-6.25-25.62-1.94-38.24-1.52.2-3.05.4-4.57.6 1.3 2.28 1.28 4.51-.04 6.77 1.52.64 3.05 1.28 4.57 1.93.65-3.43 2.56-5.84 5.92-6.92-1.03-1.03-2.05-2.05-3.08-3.08-1.43 6.78-3.8 13.09-7.23 19.12 1.52.64 3.05 1.28 4.57 1.93 1.55-7.75 5.26-14.28 11.14-19.57-1.39-.81-2.79-1.62-4.18-2.43-2.43 9.47-4.85 18.94-7.28 28.42-.8 3.14 3.81 4.37 4.82 1.33 2.63-7.89 5.26-15.77 7.88-23.66 1.04-3.12-3.63-4.22-4.82-1.33-4.64 11.21-6.62 23.12-5.92 35.22.17 2.96 3.85 3.21 4.91.66 5.48-13.14 8.67-26.92 9.65-41.11-1.64.22-3.27.44-4.91.66 1.9 7.29 2.58 14.75 1.75 22.25-.71 6.47-2.39 17.99-9.66 20.4-9.41 3.13-9.57-13.02-9.67-18.46-.15-7.84 1.09-15.5 3.43-22.97.98-3.02-3.85-4.34-4.81-1.28z"/><path d="m326.95 236.46c9.33-3.27 18.85-3.03 28.03.64 2.99 1.19 4.29-3.64 1.33-4.82-9.9-3.96-20.63-4.16-30.69-.64-3.01 1.05-1.71 5.88 1.33 4.82z"/><path d="m326.29 255.11c9.74.23 18.68 3.81 25.86 10.41 2.36 2.18 5.91-1.35 3.54-3.54-8.15-7.5-18.32-11.62-29.39-11.88-3.22-.06-3.22 4.94-.01 5.01z"/><path d="m322.81 271.6c7.23 2.58 12.98 7.68 16.6 14.42 1.52 2.84 5.84.31 4.32-2.52-4.25-7.92-11.15-13.7-19.59-16.72-3.04-1.08-4.35 3.74-1.33 4.82z"/><path d="m45.67 227.25c10.94-4.43 22.91-4.57 33.82.09 2.93 1.25 5.48-3.06 2.52-4.32-12.13-5.18-25.4-5.56-37.68-.59-2.93 1.19-1.64 6.03 1.34 4.82z"/><path d="m58.25 244.93c6.8-4.04 14.14-5.95 22.04-5.75 3.22.08 3.22-4.92 0-5-8.73-.22-17.06 1.97-24.57 6.43-2.75 1.65-.24 5.97 2.53 4.32z"/><path d="m60.61 265.69c7.97-6.38 17.13-10.7 27.06-12.99 3.13-.72 1.81-5.55-1.33-4.82-10.82 2.5-20.6 7.35-29.27 14.28-2.51 2 1.05 5.52 3.54 3.53z"/></svg>