<?xml version="1.0" encoding="utf-8"?>
<!-- Generator: Adobe Illustrator 24.0.0, SVG Export Plug-In . SVG Version: 6.00 Build 0)  -->
<svg version="1.1" id="Capa_1" xmlns="http://www.w3.org/2000/svg" xmlns:xlink="http://www.w3.org/1999/xlink" x="0px" y="0px"
	 viewBox="0 0 350 350" style="enable-background:new 0 0 350 350;" xml:space="preserve">
<path d="M53.67,41.89c-1.09,27.03-2.19,54.07-3.28,81.1c-0.97,23.84-2.62,47.77-2.46,71.63c0.13,19.59,1.83,39.84,9.35,58.12
	c7.42,18.03,20.69,32.07,38.45,40.19c20.46,9.35,43.92,12.59,66,15.76c23.43,3.37,47.55,4.7,70.72-1.08
	c20.15-5.03,39.16-15.41,52.12-31.93c12.94-16.51,19.2-37.3,20.97-57.98c2.42-28.25-3.48-56.44-8.67-84.05
	c-5.65-30.06-11.3-60.12-16.95-90.18c-0.42-2.25-3.49-2.26-4.57-0.6c-8.1,12.4-16.83,25.65-29.83,33.43
	c-15.68,9.38-36.38,6.42-53.89,6.36c-19.02-0.06-38.03-0.24-57.05-0.54c-9.13-0.14-18.37,0.07-27.48-0.63
	c-8.41-0.65-15.38-3.51-20.84-10.02c-8.95-10.67-12.83-24.68-24.51-33.1c-2.61-1.88-5.11,2.45-2.52,4.32
	c11.25,8.11,15.03,22.59,23.91,32.78c11.36,13.04,28.8,11.27,44.56,11.54c20.65,0.36,41.31,0.57,61.96,0.64
	c10.33,0.04,20.69,0.24,31.02-0.05c8.14-0.23,16.11-1.38,23.52-4.92c15.82-7.57,26.18-23.07,35.46-37.29
	c-1.52-0.2-3.05-0.4-4.57-0.6c4.67,24.83,9.34,49.66,14.01,74.5c4.63,24.6,10.23,49.33,11.66,74.38
	c1.25,21.84-1.1,44.41-10.92,64.24c-9.53,19.24-25.8,33.22-45.78,40.84c-21.16,8.07-44.04,8.97-66.38,6.87
	c-22.37-2.1-45.84-5.65-67.33-12.44c-19.52-6.17-36.03-17.56-45.57-36.04c-8.7-16.85-11.12-36.33-11.72-55.05
	c-0.8-25.02,1.15-50.18,2.16-75.17c1.15-28.35,2.3-56.71,3.45-85.06C58.8,38.67,53.8,38.68,53.67,41.89L53.67,41.89z"/>
<path d="M255.69,125.95c-19.85-4.65-38.73,8.58-50.33,23.66c-5.94,7.72-10.6,17.26-9.5,27.25c1.03,9.35,7.11,17.3,14.24,23.04
	c14.28,11.48,34.69,15.33,51.54,7.32c15.9-7.56,26.84-25.04,24.29-42.8c-2.83-19.72-20.11-35.1-39.09-39.05
	c-3.14-0.66-4.48,4.16-1.33,4.82c14.67,3.06,28.28,13.26,33.59,27.57c5.5,14.8-0.13,30.76-12.31,40.38
	c-13.17,10.42-31.44,10.6-45.98,2.87c-7.03-3.74-13.7-9.34-17.43-16.5c-4.54-8.72-2.64-18.19,2.16-26.35
	c9.41-15.99,29.2-31.98,48.8-27.39C257.49,131.51,258.82,126.69,255.69,125.95L255.69,125.95z"/>
<path d="M124.91,125.95c-19.85-4.65-38.73,8.58-50.33,23.66c-5.94,7.72-10.6,17.26-9.5,27.25c1.03,9.35,7.11,17.3,14.25,23.04
	c14.28,11.48,34.69,15.33,51.54,7.32c15.9-7.56,26.84-25.04,24.29-42.8c-2.83-19.72-20.11-35.1-39.09-39.05
	c-3.14-0.66-4.48,4.16-1.33,4.82c14.67,3.06,28.28,13.26,33.59,27.57c5.5,14.8-0.13,30.76-12.31,40.38
	c-13.17,10.42-31.44,10.6-45.98,2.87c-7.03-3.74-13.7-9.34-17.43-16.5c-4.54-8.72-2.64-18.19,2.16-26.35
	c9.41-15.99,29.2-31.98,48.8-27.39C126.71,131.51,128.05,126.69,124.91,125.95L124.91,125.95z"/>
<path d="M235.05,156.45c-4.25,5.67-4.41,13.17-0.6,19.11c0.87,1.35,2.74,1.67,3.93,0.51c5.73-5.65,5.98-14.21,1.11-20.46
	c-0.99-1.27-3.22-0.77-3.93,0.51c-2.58,4.71-4.16,10.8-2.44,16.1c1.26,3.87,4.93,5.26,8.37,2.95c8.16-5.49,4.29-18.9-1.45-24.46
	c-0.93-0.9-2.63-1.03-3.54,0c-3.96,4.48-5.95,10.21-5.08,16.19c0.61,4.18,3,10.63,8.38,9.61c4.83-0.91,6.58-6.94,6.86-11.11
	c0.36-5.22-1-10.58-5.82-13.28c-0.9-0.51-2.31-0.46-3.03,0.39c-6.04,7.13-7.2,16.61-2.98,24.97c0.91,1.81,3.32,1.42,4.32,0
	c3.66-5.21,5.3-11.16,4.83-17.51c-0.12-1.57-1.51-2.9-3.16-2.41c-4.67,1.37-6.29,7.31-2.61,10.68c2.37,2.17,5.91-1.35,3.54-3.54
	c0.14-0.77,0.27-1.55,0.41-2.32c-1.05-0.8-2.11-1.61-3.16-2.41c0.41,5.54-0.96,10.45-4.15,14.98c1.44,0,2.88,0,4.32,0
	c-3.14-6.22-2.32-13.58,2.19-18.91c-1.01,0.13-2.02,0.26-3.03,0.39c2.67,1.5,3.35,4.22,3.4,7.12c0.03,1.48-0.29,7.77-2.6,7.96
	c-2.52,0.2-2.96-6.55-2.9-7.99c0.13-3.49,1.53-6.68,3.82-9.28c-1.18,0-2.36,0-3.54,0c3.38,3.27,5.34,8.15,4.23,12.88
	c-0.18,0.77-0.7,3.01-1.4,3.33c-1.81,0.82-1.8-1.59-1.83-2.63c-0.11-3.3,0.81-6.31,2.38-9.17c-1.31,0.17-2.62,0.34-3.93,0.51
	c3.2,4.11,2.49,9.83-1.11,13.39c1.31,0.17,2.62,0.34,3.93,0.51c-2.94-4.57-2.63-9.74,0.6-14.06
	C241.3,156.4,236.96,153.9,235.05,156.45L235.05,156.45z"/>
<path d="M104.54,155.45c-1.63,6.82-2.21,13.66-1.68,20.65c0.15,2.04,1.97,2.91,3.76,2.16c10.37-4.38,11.12-19.75,2.08-25.84
	c-1.11-0.75-2.78-0.22-3.42,0.9c-2.77,4.85-6.01,12.75-3.93,18.42c1.53,4.17,6.54,4.61,9.6,1.84c2.23-2.01,2.67-5.07,3.06-7.89
	c0.47-3.34,1.37-6.95,1.22-10.32c-0.17-3.79-4.52-9.32-8.6-5.7c-2.14,1.9-2.78,6.21-3.9,8.87c-1.12,2.66-2.03,5.4-1.95,8.32
	c0.13,4.8,2.89,9.58,8.01,10.17c4.78,0.55,9.33-3.03,11.05-7.33c2.28-5.68,0.48-13.84-2.52-18.94c-3.2-5.44-8.4-4.46-10.83,0.85
	c-3.19,6.98-3.18,14.95-0.55,22.08c0.61,1.64,2.82,2.62,4.18,1.1c5.05-5.63,6.04-13.05,2.73-19.84c-0.81-1.67-3.48-1.6-4.32,0
	c-2.28,4.37-2.28,8.58-0.06,12.96c1.46,2.87,5.77,0.34,4.32-2.52c-1.33-2.63-1.3-5.31,0.06-7.92c-1.44,0-2.88,0-4.32,0
	c2.29,4.69,1.52,9.91-1.95,13.78c1.39,0.37,2.79,0.74,4.18,1.1c-1.8-4.88-2.33-9.98-0.99-15.07c0.27-1.03,0.55-2.59,1.21-3.44
	c0.21-1.48,0.74-1.56,1.59-0.23c0.79,0.37,1.24,0.96,1.36,1.78c1.25,2.34,1.96,6.38,1.9,8.93c-0.07,2.83-1.28,6.01-4.06,7.26
	c-3.51,1.57-5.83-1.56-5.98-4.73c-0.25-5,3.37-9.85,4.77-14.56c-0.58,0.58-1.16,1.16-1.75,1.75c2.15-0.87,0.81,7.1,0.7,7.92
	c-0.16,1.2-0.07,5.3-0.98,6.15c-4.05,3.78-2.12-4.25-1.85-5.35c0.62-2.48,1.66-4.73,2.92-6.94c-1.14,0.3-2.28,0.6-3.42,0.9
	c6.27,4.22,4.53,14.41-2.08,17.2c1.25,0.72,2.51,1.44,3.76,2.16c-0.49-6.56-0.02-12.92,1.51-19.32
	C110.11,153.65,105.29,152.32,104.54,155.45L104.54,155.45z"/>
<path d="M179.7,198.04c-3.31-6.76-11.65-0.09-14.39,3.58c-3.94,5.27-4.94,13.47,3.03,15.35c6.46,1.52,15.28-0.78,18.45-7.04
	c2.58-5.1,0.85-12.66-5.12-14.38c-6.58-1.9-14.22,3.79-16.54,9.75c-1.03,2.64-1.11,5.79,0.91,8c2.48,2.72,6.68,2.61,10.03,2.24
	c6.18-0.68,12.87-5.36,10.64-12.43c-2.04-6.48-11.57-6.06-15.01-1.07c-3.96,5.76,3.68,14.51,8.65,8.39c1.69-2.08,2.1-6.22-0.78-7.63
	c-3.16-1.56-7.03,1.91-8.56,4.33c-1,1.58,0.3,3.82,2.16,3.76c3.07-0.1,5.34-1.4,7.04-3.94c0.94-1.41-0.05-3.2-1.49-3.67
	c-3.7-1.22-7.37,1.6-7.25,5.47c0.04,1.2,0.77,2,1.84,2.41c2.71,1.05,5.14,0.36,7.36-1.37c2.53-1.98-1.03-5.5-3.54-3.54
	c-0.87,0.55-1.7,0.58-2.5,0.09c0.61,0.8,1.22,1.61,1.84,2.41c0.31-0.22,0.61-0.43,0.92-0.65c-0.5-1.22-1-2.45-1.49-3.67
	c-0.61,1.05-1.52,1.53-2.73,1.46c0.72,1.25,1.44,2.51,2.16,3.76c0.91-1.43,2.02-2,3.65-2.29c-0.81-0.21-1.62-0.43-2.43-0.64
	c-0.25,0.1-0.49,0.2-0.74,0.3c-0.45-0.59-0.48-1.17-0.08-1.74c0.3-0.89,0.92-1.26,1.75-1.62c1.78-0.76,4.26-0.58,4.6,1.61
	c0.63,4.02-4.67,5.22-7.58,5.38c-1.42,0.08-4.25,0.42-5.03-1.19c-0.64-1.32,0.77-3.44,1.52-4.46c1.87-2.53,6.67-6.34,9.99-4.38
	c2.45,1.45,2.45,5.34,1.1,7.51c-1.83,2.95-5.75,4.02-9,4.17c-1.69,0.08-4.82,0.23-5.76-1.55c-0.74-1.39,0.25-3.35,0.91-4.53
	c0.37-0.65,6.06-7.93,7.16-5.67C176.8,203.46,181.11,200.92,179.7,198.04L179.7,198.04z"/>
<path d="M174.95,211.46c-0.16,12.89,0.1,25.86-0.63,38.73c-0.67,11.89-3.96,24.75-15.39,30.58c-2.87,1.46-0.34,5.78,2.52,4.32
	c10.48-5.35,15.57-16.36,17.16-27.57c2.14-15.07,1.14-30.86,1.33-46.05C179.99,208.24,174.99,208.24,174.95,211.46L174.95,211.46z"
	/>
<path d="M174.99,267.48c3.93,9.94,11.88,17.35,22.18,20.34c3.1,0.9,4.42-3.92,1.33-4.82c-8.49-2.46-15.42-8.59-18.68-16.85
	C178.64,263.19,173.81,264.48,174.99,267.48L174.99,267.48z"/>
<path d="M157.44,171.96c12.02-8.31,27.92-8.04,39.7,0.6c2.6,1.91,5.09-2.43,2.52-4.32c-13.08-9.6-31.41-9.81-44.74-0.6
	C152.29,169.46,154.78,173.8,157.44,171.96L157.44,171.96z"/>
<path d="M218.35,211.53c-17.92-9.71-27.05-30.52-22.8-50.36c4.22-19.7,20-36.28,40.05-39.9c20.04-3.62,37,8.77,45.77,26.06
	c8.39,16.53,11.95,41.77-3.25,55.6c-7.23,6.58-17.05,9.47-26.31,11.84c-5.98,1.53-12.2,3.15-18.39,1.98
	c-5.63-1.06-10.75-3.89-15.54-6.92c-9.19-5.8-17.71-12.94-19.91-24.11c-1.82-9.22-0.51-19.24,2.74-27.99
	c6.44-17.34,21.82-31.09,40.91-31.17c8.23-0.03,16.55,2.27,23.41,6.85c8.57,5.72,12.69,14.1,15.49,23.78
	c2.97,10.29,6.25,21.79,3.76,32.51c-2.85,12.33-13.88,17.58-25.22,20.21c-12.76,2.95-25.72,4.18-37.48-2.6
	c-9.73-5.61-17.23-14.38-24.41-22.84c-1.18,1.18-2.36,2.36-3.54,3.54c15.04,15.76,37.2,27.12,59.46,24.04
	c18.52-2.57,34.93-17.2,35.61-36.56c0.11-3.22-4.89-3.21-5,0c-0.65,18.42-17.69,31.08-35.09,31.99c-19.56,1.03-38.25-9.18-51.45-23
	c-2.25-2.36-5.59,1.11-3.54,3.54c7.62,8.97,15.65,18.19,26.08,23.99c11.66,6.49,24.12,6.07,36.88,3.54
	c10.52-2.08,21.76-5.52,28.22-14.74c6.21-8.87,5.92-20.27,4.08-30.48c-1.96-10.86-4.74-23.17-11.52-32.11
	c-5.74-7.58-14.26-12.73-23.41-15.1c-19.93-5.15-39.75,3.3-51.29,20.03c-11.73,17-16.05,44.24-0.81,60.43
	c7.75,8.24,19.8,16.22,31.06,18.13c11.32,1.91,25.09-2.62,35.46-7.04c10.05-4.28,18.29-11.21,22.24-21.6
	c3.93-10.33,3.41-22.09,0.83-32.69c-4.83-19.87-19-39.94-40.2-43.96c-25.32-4.8-49.68,12.7-58.33,35.92
	c-8.82,23.7,0.38,51.33,22.9,63.52C218.66,217.38,221.18,213.06,218.35,211.53L218.35,211.53z"/>
<path d="M150.11,171.85c0.64,0.76,1.27,1.51,1.91,2.27c1.15,1.36,3.89,0.7,4.18-1.1c0.61-3.81,1.22-7.63,1.83-11.44
	c-1.64-0.22-3.27-0.44-4.91-0.66c1.27,13.84,1.35,27.43-8.71,38.21c-7.96,8.54-19.28,13.32-30.9,13.6
	c-22.79,0.56-45.44-15-49.32-38.21c-4.28-25.54,17.18-48.11,42.2-48.67c25.77-0.58,46.98,19.91,50.1,45.04
	c1.7,13.65-2.84,26.28-15.24,33.1c-12.03,6.62-26.27,5.91-39.47,4.35c-6.64-0.78-14.7-0.87-19.74-5.89
	c-4.64-4.62-6.43-11.74-8.3-17.83c-4.28-13.88-5.56-27.45,3.31-39.83c14.98-20.93,46.5-25.79,66.33-9.01
	c18.84,15.94,19.1,45.91,1.05,62.65c-20.44,18.96-54.04,14.34-68.9-9.02c-6.96-10.94-8.7-24.4-3.45-36.42
	c5.28-12.11,16.56-21.62,29.86-23.17c3.16-0.37,3.2-5.37,0-5c-26.38,3.07-44.17,31.2-35.81,56.41
	c8.69,26.22,37.87,40.22,63.84,31.35c25.95-8.86,40.34-38.62,29.08-64.2c-11.78-26.77-45.58-34.83-70.04-20.83
	c-11.89,6.81-21.64,18.69-23.54,32.53c-1.12,8.16,0.58,16.26,2.91,24.06c1.99,6.69,3.98,14.05,8.31,19.67
	c4.62,6,11.05,7.68,18.28,8.64c8.71,1.16,17.54,2.32,26.35,1.82c13.37-0.77,27.42-5.76,35.12-17.37
	c7.92-11.95,6.34-28.44,1.21-41.15c-5.1-12.62-14.59-23.66-26.93-29.64c-25.91-12.56-58.31-1.71-68.87,25.63
	c-10.35,26.8,7.04,54.65,33.09,63.18c24.22,7.94,55.69-2.61,62.54-29.3c2.08-8.1,1.39-16.51,0.64-24.74
	c-0.24-2.57-4.43-3.66-4.91-0.66c-0.61,3.81-1.22,7.63-1.83,11.44c1.39-0.37,2.79-0.74,4.18-1.1c-0.64-0.76-1.27-1.51-1.91-2.27
	C151.58,165.85,148.05,169.4,150.11,171.85L150.11,171.85z"/>
<path d="M304.06,152.11c-3.2-2.95-8.37-2.94-11.34,0.37c-1.17,1.3-0.85,3.78,1.1,4.18c3.98,0.8,7.75,0.34,11.45-1.32
	c-0.84-1.44-1.68-2.88-2.52-4.32c-2.18,1.67-4.55,2.51-7.3,2.45c-3.22-0.08-3.22,4.92,0,5c3.54,0.08,7.01-0.97,9.83-3.13
	c2.55-1.95,0.45-5.65-2.52-4.32c-2.39,1.07-5.04,1.33-7.6,0.81c0.37,1.39,0.74,2.79,1.1,4.18c1.11-1.23,2.98-1.56,4.27-0.37
	C302.89,157.82,306.43,154.3,304.06,152.11L304.06,152.11z"/>
<path d="M48.04,154.48c5.25,0.66,10.36,1.9,15.37,3.6c0.22-1.64,0.44-3.27,0.66-4.91c-4.69-0.22-9.22-1-13.72-2.33
	c-0.22,1.64-0.44,3.27-0.66,4.91c3.73,0.34,7.46,0.68,11.19,1.01c2.8,0.25,3.4-4.31,0.66-4.91c-4.74-1.04-9.26-2.58-13.61-4.73
	c-0.64,1.52-1.28,3.05-1.93,4.57c1.43,0.24,2.85,0.47,4.28,0.71c3.15,0.52,4.5-4.29,1.33-4.82c-1.43-0.24-2.85-0.47-4.28-0.71
	c-2.57-0.43-4.68,3.22-1.93,4.57c4.74,2.33,9.65,4.09,14.81,5.23c0.22-1.64,0.44-3.27,0.66-4.91c-3.73-0.34-7.46-0.68-11.19-1.01
	c-2.88-0.26-3.28,4.14-0.66,4.91c4.92,1.45,9.92,2.27,15.05,2.51c2.93,0.14,3.23-4.04,0.66-4.91c-5.45-1.85-10.99-3.06-16.7-3.78
	C44.86,149.08,44.89,154.08,48.04,154.48L48.04,154.48z"/>
</svg>
