<?xml version="1.0" encoding="utf-8"?>
<!-- Generator: Adobe Illustrator 24.0.0, SVG Export Plug-In . SVG Version: 6.00 Build 0)  -->
<svg version="1.1" id="Capa_1" xmlns="http://www.w3.org/2000/svg" xmlns:xlink="http://www.w3.org/1999/xlink" x="0px" y="0px"
	 viewBox="0 0 350 350" style="enable-background:new 0 0 350 350;" xml:space="preserve">
<path d="M49.47,265.53c0.61,15.09,1.97,31.09,9.95,44.33c9.12,15.12,25.28,21.91,41.97,25.12c20.4,3.93,41.53,5.33,62.25,6.13
	c22.08,0.86,44.2,0.42,66.23-1.34c18.16-1.45,39.33-2.04,54.4-13.6c11.59-8.89,16.46-22.79,17.91-36.88
	c1.92-18.65-0.67-37.93-1.72-56.57c-1.27-22.6-2.55-45.19-3.82-67.79c-2.88-51.18-5.77-102.35-8.65-153.53
	c-0.11-2.01-2.74-3.49-4.27-1.77C272,22.86,260.3,36.07,248.6,49.28c-5.85,6.61-11.7,13.22-17.55,19.82c-2.3,2.6-4.61,5.37-7.7,7.08
	c-3.99,2.21-8.86,2.21-13.29,2.51c-35.47,2.43-70.94,4.81-106.41,7.22c0.8,0.61,1.61,1.22,2.41,1.84
	c-8.83-29.94-26.94-56.1-50.33-76.56c-2.4-2.1-5.82,1.22-3.54,3.54c1.41,1.43,0.75,6.85,0.67,8.9c-0.21,5.62-0.84,11.24-1.5,16.82
	C50.01,52,48.11,63.51,47.07,75.1c-0.47,5.24-0.04,10.14,0.35,15.4c0.82,11.1,1.32,22.22,1.61,33.35c0.58,22.3,0.3,44.61,0.04,66.91
	C48.79,215.68,48.54,240.61,49.47,265.53c0.12,3.21,5.12,3.22,5,0c-1.7-45.91,0.65-91.84-0.34-137.76
	c-0.24-11.13-0.68-22.25-1.43-33.36c-0.43-6.36-1.22-12.56-0.67-18.92c1.04-11.91,3.01-23.73,4.4-35.6
	c0.72-6.19,1.46-12.44,1.49-18.67c0.02-3.17,0.22-7.59-2.2-10.04c-1.18,1.18-2.36,2.36-3.54,3.54
	c22.76,19.91,40.45,45.2,49.05,74.35c0.29,1,1.31,1.91,2.41,1.84c19.05-1.29,38.1-2.59,57.15-3.88c18.15-1.23,36.45-1.9,54.55-3.73
	c6.7-0.68,11.98-2.92,16.66-7.81c6.08-6.33,11.71-13.16,17.53-19.74c12.57-14.19,25.14-28.38,37.71-42.57
	c-1.42-0.59-2.85-1.18-4.27-1.77c4.76,84.41,9.54,168.81,14.27,253.22c0.81,14.52,1.39,30.24-4.98,43.72
	c-8.02,16.95-25.42,22.32-42.78,24.5c-40.57,5.1-82.12,4.9-122.74,0.6c-19.5-2.06-43.01-3.78-57.43-18.8
	c-12.44-12.96-14.15-32.06-14.84-49.11C54.34,262.33,49.34,262.31,49.47,265.53z"/>
<path d="M179.85,194.01c-6.71-1.98-16.14,0.7-18,8.31c-2.05,8.39,8.59,10.29,14.6,9.08c6.13-1.23,15.6-7.91,11.23-15.21
	c-3.91-6.54-13.95-4.37-18.87-0.52c-4.94,3.87-8.55,13.52,0.36,14.99c5.16,0.85,15.21-5.12,13.21-11.33
	c-2.06-6.43-12.35-3.92-13.97,1.55c-1.79,6.05,5.77,11.56,10.15,6.12c5.02-6.23-5.72-11.75-8.42-5.08c-1.21,3,1.13,5.88,4.1,6.39
	c3.84,0.66,6.38-2.27,8.36-5.1c0.69-0.99,0.26-2.19-0.39-3.03c-2.27-2.91-6.57-2.89-8.93-0.12c-0.72,0.85-0.99,2.02-0.39,3.03
	c1.15,1.93,2.62,2.4,4.78,2.07c3.17-0.48,1.82-5.3-1.33-4.82c0.29,0.08,0.58,0.15,0.87,0.23c-0.13,1.01-0.26,2.02-0.39,3.03
	c0.62,0.04,1.24,0.08,1.86,0.12c-0.13-1.01-0.26-2.02-0.39-3.03c-0.78,1.12-3.18,3.81-4.87,3.1c-1.55-0.64,1.68-3.87,3.04-3.21
	c2.72,1.32-3.83,4.79-5.08,5.05c-3.02,0.62-2.79-2.45-1.31-4.28c0.78-0.96,1.75-1.77,2.79-2.44c2.37-1.52,5.76-2.49,8.51-1.48
	c4.15,1.53,1.02,5.85-1.54,7.39c-2.51,1.51-5.52,2.21-8.45,1.93c-1.96-0.19-5.4-0.76-4.34-4.15c0.42-1.34,2.15-2.49,3.29-3.1
	c2.57-1.4,5.44-1.47,8.2-0.65C181.62,199.74,182.94,194.92,179.85,194.01L179.85,194.01z"/>
<path d="M167.56,209.56c2.38,6.9,1.82,15.48-5.19,19.49c-6.7,3.84-16.27-0.9-13.98-9.31c0.85-3.11-3.97-4.43-4.82-1.33
	c-2.8,10.27,6.9,19.2,16.96,16.74c12.03-2.94,15.48-16.37,11.85-26.91C171.34,205.21,166.5,206.51,167.56,209.56L167.56,209.56z"/>
<path d="M169.82,214.48c1.33,8.35,4.31,18.1,13.64,20.4c8.89,2.19,14.28-5.91,17.5-12.85c1.34-2.9-2.96-5.44-4.32-2.52
	c-2.47,5.33-6.62,13.33-13.81,9.85c-5.98-2.9-7.25-10.32-8.18-16.2C174.14,209.98,169.32,211.32,169.82,214.48L169.82,214.48z"/>
<path d="M225.02,135.27c-1.71,8.21-0.38,16.29,4.05,23.44c1.03,1.67,3.26,1.55,4.32,0c6.86-10.07,6.92-23.36,0.2-33.52
	c-0.8-1.21-2.85-1.84-3.93-0.51c-7.45,9.26-8.33,22.19-1.61,32.14c0.95,1.41,3.47,1.83,4.32,0c3.14-6.8,9.1-23.96-1.32-27.62
	c-1.16-0.41-2.89,0.47-3.08,1.75c-0.81,5.67-0.55,11.05,0.98,16.57c0.46,1.66,2.97,2.63,4.18,1.1c2.91-3.66,3.43-8.05,0.86-12.08
	c-0.91-1.43-3.51-1.82-4.32,0c-1.62,3.65-1.99,7.07-0.93,10.94c0.85,3.1,5.68,1.78,4.82-1.33c-0.7-2.55-0.66-4.64,0.43-7.09
	c-1.44,0-2.88,0-4.32,0c1.23,1.92,1.45,4.1-0.07,6.02c1.39,0.37,2.79,0.74,4.18,1.1c-1.28-4.63-1.66-9.15-0.98-13.92
	c-1.03,0.58-2.05,1.16-3.08,1.75c5.6,1.97-0.24,17.18-1.67,20.28c1.44,0,2.88,0,4.32,0c-5.36-7.94-5.26-18.53,0.82-26.08
	c-1.31-0.17-2.62-0.34-3.93-0.51c5.81,8.78,5.72,19.77-0.2,28.47c1.44,0,2.88,0,4.32,0c-3.72-6.01-4.98-12.65-3.54-19.59
	C230.49,133.46,225.67,132.11,225.02,135.27L225.02,135.27z"/>
<path d="M108.63,134.42c-3.24,4.87-4.65,10.63-3.66,16.44c0.65,3.81,2.82,10.25,7.89,9.29c4.47-0.84,5.51-7.88,5.97-11.47
	c0.77-6.11-0.46-12.01-3.15-17.5c-0.89-1.82-3.33-1.41-4.32,0c-5.77,8.23-7.6,18.09-5.46,27.88c0.34,1.54,2.36,2.34,3.67,1.49
	c7.31-4.74,9.65-14.49,4.91-21.92c-0.93-1.46-2.66-1.54-3.93-0.51c-3.45,2.82-4.62,7.14-3.15,11.34c0.76,2.18,3.26,2.3,4.57,0.6
	c1.58-2.05,2.16-3.99,2.27-6.56c0.08-2.02-2.91-3.5-4.27-1.77c-2.63,3.34-3.51,7.06-1.93,11.11c1.16,2.96,5.99,1.67,4.82-1.33
	c-0.84-2.16-0.9-4.29,0.64-6.24c-1.42-0.59-2.85-1.18-4.27-1.77c0.02,1.61-0.51,2.95-1.59,4.04c1.52,0.2,3.05,0.4,4.57,0.6
	c-0.92-2.63-0.3-4.71,1.86-6.47c-1.31-0.17-2.62-0.34-3.93-0.51c3.22,5.05,2,11.76-3.11,15.07c1.22,0.5,2.45,1,3.67,1.49
	c-1.87-8.55-0.06-16.88,4.95-24.03c-1.44,0-2.88,0-4.32,0c1.47,2.99,2.44,6.15,2.67,9.49c0.16,2.36,0.52,7.76-1.23,9.63
	c-2.51,2.71-3.2-4.41-3.14-6.2c0.12-3.61,1.31-6.72,3.29-9.69C114.74,134.25,110.41,131.75,108.63,134.42L108.63,134.42z"/>
<path d="M127.9,87.45c6.69,3,5.1,12.76,8.35,18.37c2.61,4.5,7.02,7.87,11.95,9.47c4.9,1.6,10.12,1.34,14.81-0.8
	c7.47-3.4,12.44-9.24,21.36-7.46c6.34,1.26,11.93,3.03,18.39,1.36c5.3-1.37,10.22-4.51,13.8-8.63c4.71-5.42,11.26-22.28-0.9-23.38
	c-0.78-0.07-1.85,0.51-2.16,1.24c-3.51,8.19-8.26,15.48-14.41,21.95c1.31,1.01,2.62,2.02,3.93,3.03c3.09-4.73,6.66-8.98,10.73-12.89
	c-1.31-1.01-2.62-2.02-3.93-3.03c-4.08,5.58-8.78,10.51-14.09,14.92c1.18,1.18,2.36,2.36,3.54,3.54c4.35-5.14,9.29-9.37,15.08-12.83
	c-1.14-1.14-2.28-2.28-3.42-3.42c-3.5,4.71-7.01,9.42-10.51,14.12c1.44,0.84,2.88,1.68,4.32,2.52c3.33-5.02,7.21-9.44,11.69-13.46
	c-1.18-1.18-2.36-2.36-3.54-3.54c-4.64,5.1-9.6,9.82-14.91,14.22c1.31,1.01,2.62,2.02,3.93,3.03c3-5.57,6-11.15,9-16.72
	c1.11-2.07-1.24-4.9-3.42-3.42c-6.17,4.18-12.35,8.37-18.52,12.55c1.01,1.31,2.02,2.62,3.03,3.93c3.89-4.52,7.79-9.04,11.68-13.55
	c1.72-2-0.57-5.7-3.03-3.93c-6.38,4.6-12.76,9.2-19.14,13.8c1.01,1.31,2.02,2.62,3.03,3.93c4.21-4.43,8.41-8.87,12.62-13.3
	c1.89-2-0.56-5.51-3.03-3.93c-8.04,5.16-16.09,10.31-24.13,15.47c1.01,1.31,2.02,2.62,3.03,3.93c6.76-5.43,13.03-11.33,18.86-17.74
	c1.8-1.98-0.62-5.68-3.03-3.93c-9.01,6.56-18.01,13.12-27.02,19.68c1.01,1.31,2.02,2.62,3.03,3.93c5.47-4.54,10.4-9.55,14.85-15.1
	c1.65-2.05-0.44-5.57-3.03-3.93c-6.53,4.15-13.06,8.3-19.59,12.46c1.01,1.31,2.02,2.62,3.03,3.93c3.32-3.76,6.63-7.53,9.95-11.29
	c1.54-1.75,0.1-5.01-2.43-4.18c-6.57,2.17-12.29,5.59-17.29,10.37c-2,1.91,0.72,5.66,3.03,3.93c3.81-2.86,5.85-6.53,5.95-11.34
	c0.04-2-2.13-2.97-3.76-2.16c-4.22,2.11-8.51,3.98-12.93,5.64c1.05,0.8,2.11,1.61,3.16,2.41c0.03-2.1,0.04-4.2,0.03-6.3
	c-0.01-1.31-1.14-2.56-2.5-2.5c-7.78,0.34-12.87,8.41-8.94,15.45c4.37,7.83,14.35,7.33,20.23,1.64c-1.39-0.37-2.79-0.74-4.18-1.1
	c1.2,5.52,8.02,8.27,12.58,4.76c-1.01-1.31-2.02-2.62-3.03-3.93c-2.27,1.91-4.66,3.53-7.24,4.99c1.22,0.94,2.45,1.88,3.67,2.82
	c0.29-1.14,0.59-2.28,0.89-3.42c0.31-1.22-0.4-2.84-1.75-3.08c-1.21-0.22-2.21-0.32-3.43-0.3c-2.98,0.06-3.88,0.11-2.13-3.33
	c1.76-3.46,5.43-6.91,7.83-9.96c1.37-1.75,0.19-5.09-2.43-4.18c-1.85,0.64-3.36,1.45-4.87,2.74c-0.94,0.8-1.75,1.74-2.65,2.58
	c-0.22,0.21-5.77,4.89-5.08,0.61c0.16-1,6.51-2.1,7.48-2.34c3.43-0.83,6.89-1.41,10.4-1.8c-0.42-1.55-0.84-3.11-1.26-4.66
	c-4.43,2.72-8.45,5.86-12.16,9.5c-2.04,2,0.56,5.33,3.03,3.93c8.25-4.7,16.79-8.73,25.68-12.05c-0.81-1.39-1.62-2.79-2.43-4.18
	c-3.51,3.83-7.28,7.31-11.38,10.51c-2.39,1.87,0.66,5.02,3.03,3.93c6.31-2.92,12.31-6.31,18.06-10.22
	c-0.84-1.44-1.68-2.88-2.52-4.32c-4.13,3.08-7.79,6.49-11.05,10.49c-1.54,1.89-0.14,4.78,2.43,4.18c6.91-1.62,13.61-3.79,20.16-6.52
	c-0.94-1.22-1.88-2.45-2.82-3.67c-1.65,2.86-3.29,5.71-4.94,8.57c-1.28,2.22,1.24,4.58,3.42,3.42c1.99-1.48,4.23-1.48,6.71-0.03
	c-0.34,1.95,1.7,4.16,3.67,2.82c7.96-5.4,14.68-12,20.25-19.85c-1.52-0.2-3.05-0.4-4.57-0.6c1.51,4.72,0.8,9.41-2.4,13.26
	c1.01-0.13,2.02-0.26,3.03-0.39c-1.43-1-2.87-2.01-4.3-3.01c-2.64-1.85-5.14,2.48-2.52,4.32c1.43,1,2.87,2.01,4.3,3.01
	c0.83,0.58,2.37,0.4,3.03-0.39c4.33-5.21,5.77-11.63,3.69-18.13c-0.69-2.15-3.33-2.34-4.57-0.6c-5.06,7.13-11.22,13.15-18.45,18.05
	c1.22,0.94,2.45,1.88,3.67,2.82c0.52-2.98-0.43-5.56-3.18-7.11c-3.63-2.05-7.54-0.29-10.87,1.49c1.14,1.14,2.28,2.28,3.42,3.42
	c1.65-2.86,3.29-5.71,4.94-8.57c0.98-1.71-0.71-4.56-2.82-3.67c-6.55,2.73-13.25,4.9-20.16,6.52c0.81,1.39,1.62,2.79,2.43,4.18
	c2.97-3.65,6.26-6.89,10.04-9.7c2.52-1.88,0.18-6.16-2.52-4.32c-5.75,3.91-11.75,7.3-18.06,10.22c1.01,1.31,2.02,2.62,3.03,3.93
	c4.1-3.19,7.87-6.68,11.38-10.51c1.55-1.69,0.06-5.11-2.43-4.18c-9.29,3.48-18.26,7.65-26.88,12.56c1.01,1.31,2.02,2.62,3.03,3.93
	c3.4-3.35,7.08-6.22,11.15-8.72c1.95-1.2,1.34-4.95-1.26-4.66c-5.91,0.65-11.93,1.62-17.55,3.62c-3.2,1.14-6.67,3.19-6.24,7.11
	c0.38,3.42,4,5.61,7.23,5.41c5.58-0.36,7.74-6.41,12.59-8.1c-0.81-1.39-1.62-2.79-2.43-4.18c-2.81,3.58-5.62,7.15-8.43,10.73
	c-1.43,1.83-3.3,3.73-3.14,6.24c0.41,6.25,7.67,4.3,11.51,4.98c-0.58-1.03-1.16-2.05-1.75-3.08c-0.3,1.14-0.59,2.28-0.89,3.42
	c-0.55,2.12,1.76,3.9,3.67,2.82c2.96-1.68,5.65-3.58,8.25-5.77c2.14-1.8-0.77-5.66-3.03-3.93c-2.04,1.56-4.67,0.87-5.24-1.78
	c-0.41-1.89-2.89-2.35-4.18-1.1c-3.07,2.98-7.82,4.27-11.11,0.9c-3.3-3.38-1.94-9.22,3.36-9.45c-0.83-0.83-1.67-1.67-2.5-2.5
	c0.01,2.1,0,4.2-0.03,6.3c-0.02,1.51,1.63,2.99,3.16,2.41c4.82-1.81,9.52-3.85,14.13-6.15c-1.25-0.72-2.51-1.44-3.76-2.16
	c-0.06,2.92-1.11,5.25-3.47,7.02c1.01,1.31,2.02,2.62,3.03,3.93c4.38-4.19,9.33-7.18,15.08-9.09c-0.81-1.39-1.62-2.79-2.43-4.18
	c-3.32,3.76-6.63,7.53-9.95,11.29c-1.79,2.03,0.51,5.53,3.03,3.93c6.53-4.15,13.06-8.3,19.59-12.46c-1.01-1.31-2.02-2.62-3.03-3.93
	c-4.45,5.54-9.38,10.55-14.85,15.1c-2.16,1.79,0.73,5.6,3.03,3.93c9.01-6.56,18.01-13.12,27.02-19.68
	c-1.01-1.31-2.02-2.62-3.03-3.93c-5.83,6.41-12.11,12.32-18.86,17.74c-2.22,1.78,0.66,5.45,3.03,3.93
	c8.04-5.16,16.09-10.31,24.13-15.47c-1.01-1.31-2.02-2.62-3.03-3.93c-4.21,4.43-8.41,8.87-12.62,13.3
	c-1.87,1.97,0.64,5.65,3.03,3.93c6.38-4.6,12.76-9.2,19.14-13.8c-1.01-1.31-2.02-2.62-3.03-3.93c-3.89,4.52-7.79,9.04-11.68,13.55
	c-1.74,2.01,0.53,5.62,3.03,3.93c6.17-4.18,12.35-8.37,18.52-12.55c-1.14-1.14-2.28-2.28-3.42-3.42c-3,5.57-6,11.15-9,16.72
	c-1.4,2.6,1.78,4.8,3.93,3.03c5.31-4.39,10.27-9.12,14.91-14.22c2.17-2.39-1.14-5.69-3.54-3.54c-4.79,4.3-8.91,9.11-12.47,14.47
	c-1.81,2.73,2.44,5.05,4.32,2.52c3.5-4.71,7.01-9.42,10.51-14.12c1.55-2.08-1.41-4.62-3.42-3.42c-6.12,3.66-11.48,8.16-16.09,13.61
	c-2.09,2.47,1.06,5.6,3.54,3.54c5.65-4.7,10.54-10.01,14.87-15.94c1.72-2.35-1.95-4.93-3.93-3.03c-4.38,4.2-8.18,8.82-11.51,13.9
	c-1.56,2.38,1.98,5.08,3.93,3.03c6.41-6.75,11.52-14.4,15.19-22.96c-0.72,0.41-1.44,0.83-2.16,1.24c3.03,0.27,1.84,6.04,1.38,7.59
	c-0.79,2.65-2.23,5.16-4.02,7.26c-3.29,3.88-7.93,6.68-12.93,7.65c-5.7,1.1-10.94-1.21-16.49-2.05c-4.78-0.73-9,0.18-13.22,2.49
	c-4.29,2.35-8.25,6.02-13.22,6.85c-5.13,0.85-10.59-1.17-14.23-4.8c-6.62-6.59-2.92-18.95-12.5-23.24
	C127.51,81.83,124.96,86.14,127.9,87.45L127.9,87.45z"/>
<path d="M216.33,204.99c8.64-4.9,17.75-8.45,27.41-10.74c3.13-0.74,1.81-5.56-1.33-4.82c-10.06,2.38-19.61,6.14-28.61,11.24
	C211.01,202.26,213.52,206.58,216.33,204.99L216.33,204.99z"/>
<path d="M217.09,220.41c5.8-0.69,11.44,0.07,16.75,2.56c2.9,1.36,5.44-2.95,2.52-4.32c-6.1-2.86-12.57-4.05-19.27-3.24
	C213.93,215.78,213.9,220.79,217.09,220.41L217.09,220.41z"/>
<path d="M216.91,234.87c5.9,4.09,11.04,9.05,15.43,14.72c1.97,2.54,5.49-1.02,3.54-3.54c-4.67-6.02-10.19-11.16-16.45-15.5
	C216.79,228.72,214.28,233.05,216.91,234.87L216.91,234.87z"/>
<path d="M133.53,198.28c-9.66-4.17-19.82-5.15-30.08-2.7c-3.13,0.75-1.8,5.57,1.33,4.82c8.85-2.12,17.84-1.43,26.22,2.19
	C133.93,203.86,136.48,199.55,133.53,198.28L133.53,198.28z"/>
<path d="M129.08,215.38c-8.12-0.78-15.94,0.74-23.27,4.29c-2.89,1.4-0.36,5.72,2.52,4.32c6.56-3.18,13.51-4.31,20.74-3.61
	C132.28,220.69,132.26,215.68,129.08,215.38L129.08,215.38z"/>
<path d="M127.46,230.01c-9.33,5.1-17.14,12.09-23.38,20.69c-1.89,2.61,2.44,5.11,4.32,2.52c5.72-7.89,13.04-14.22,21.59-18.89
	C132.8,232.78,130.28,228.46,127.46,230.01L127.46,230.01z"/>
<path d="M291,177.11c-8.37-3.38-15,7.05-15.74,14.15c-0.46,4.41,0.9,7.67,2.59,11.59c1.83,4.23,0.77,6.33-2.02,9.63
	c-2,2.35-4.19,4.52-6.15,6.91c-5.08,6.18-9.15,15.64-3.6,22.91c7.17,9.37,24.55,4.25,28.68,17.19c0.97,3.05,5.8,1.75,4.82-1.33
	c-2.33-7.32-8.65-11.13-15.66-13.29c-4.64-1.43-12.15-1.86-14.62-6.75c-2.53-5.01,0.52-10.87,3.6-14.78
	c4.04-5.12,12.7-11.25,11.12-18.79c-0.79-3.8-3.69-6.51-3.88-10.58c-0.2-4.25,3.21-14.57,9.52-12.02
	C292.66,183.13,293.95,178.3,291,177.11L291,177.11z"/>
<path d="M298.51,258.52c0.77-2.53,1.55-5.05,2.32-7.58c0.59-1.94-1.89-4.17-3.67-2.82c-1.3,0.98-2.22,1.9-3.05,3.31
	c1.55,0.42,3.11,0.84,4.66,1.26c0.03-3.96,0.72-7.67,2.27-11.33c1-2.34-1.94-5.44-3.93-3.03c-2.62,3.18-5.24,6.35-7.86,9.53
	c1.31,1.01,2.62,2.02,3.93,3.03c2.14-5.04,3.97-10.14,5.42-15.42c0.67-2.43-2.4-4.16-4.18-2.43c-2.59,2.52-5.19,5.05-7.78,7.57
	c1.31,1.01,2.62,2.02,3.93,3.03c2.76-5.16,5.03-10.48,6.87-16.03c0.83-2.52-2.43-3.99-4.18-2.43c-4.66,4.15-9.32,8.3-13.98,12.45
	c1.31,1.01,2.62,2.02,3.93,3.03c3.52-5.83,7.03-11.65,10.55-17.48c1.47-2.44-1.91-5.03-3.93-3.03
	c-5.09,5.05-10.18,10.11-15.27,15.16c1.31,1.01,2.62,2.02,3.93,3.03c4.55-6.78,9.1-13.56,13.65-20.34c1.65-2.46-1.9-4.83-3.93-3.03
	c-6.94,6.17-13.88,12.34-20.82,18.5c1.31,1.01,2.62,2.02,3.93,3.03c4.67-7.04,9.35-14.07,14.02-21.11c1.34-2.02-1.38-4.87-3.42-3.42
	c-5.82,4.15-10.62,9.1-14.54,15.08c-1.53,2.33,2.16,5.29,3.93,3.03c2.3-2.94,4.6-5.89,6.9-8.83c-1.39-0.81-2.79-1.62-4.18-2.43
	c-2.09,6.98-9.66,12.15-7.84,20.23c1.48,6.54,9.67,8.54,15.52,7.55c5.51-0.94,8.75-5.41,10.66-10.33c3.28-8.43,4.42-18,6.36-26.81
	c0.47-2.14-1.71-3.89-3.67-2.82c-2.69,1.46-5.41,2.86-8.16,4.2c1.25,0.72,2.51,1.44,3.76,2.16c0.12-3.07,0.98-5.56,2.94-7.97
	c-1.31-1.01-2.62-2.02-3.93-3.03c-1.74,2.83-3.73,5.32-6.09,7.65c1.31,1.01,2.62,2.02,3.93,3.03c2.79-6.56,4.92-13.24,6.32-20.23
	c0.37-1.87-1.78-4.27-3.67-2.82c-2.06,1.58-3.64,3.23-5.02,5.44c1.44,0.84,2.88,1.68,4.32,2.52c2.1-4.01,3.78-8.12,5.08-12.45
	c0.64-2.15-1.81-3.84-3.67-2.82c-3.55,1.94-6.49,4.36-9.03,7.52c1.39,0.81,2.79,1.62,4.18,2.43c1.38-3.85,2.76-7.69,4.15-11.54
	c0.99-2.77-3.1-4.21-4.57-1.93c-2.95,4.57-5.25,9.38-7.03,14.52c-0.34,0.98,0.21,2.36,1.15,2.82c1.75,0.87,2.42,1.05,4.36,1.19
	c3.21,0.23,3.2-4.77,0-5c-0.61-0.17-1.23-0.34-1.84-0.5c0.38,0.94,0.77,1.88,1.15,2.82c1.64-4.74,3.81-9.11,6.53-13.32
	c-1.52-0.64-3.05-1.28-4.57-1.93c-1.38,3.85-2.76,7.69-4.15,11.54c-0.82,2.28,2.62,4.37,4.18,2.43c2.27-2.83,4.82-5,8.01-6.74
	c-1.22-0.94-2.45-1.88-3.67-2.82c-1.17,3.92-2.67,7.63-4.57,11.26c-1.49,2.85,2.62,5.27,4.32,2.52c0.78-1.47,1.86-2.69,3.22-3.65
	c-1.22-0.94-2.45-1.88-3.67-2.82c-1.31,6.55-3.2,12.89-5.82,19.04c-1.05,2.46,1.74,5.18,3.93,3.03c2.68-2.64,4.9-5.45,6.87-8.66
	c1.45-2.36-2.1-5.27-3.93-3.03c-2.81,3.45-4.24,7.04-4.41,11.51c-0.08,2.02,2.15,2.95,3.76,2.16c2.75-1.34,5.47-2.74,8.16-4.2
	c-1.22-0.94-2.45-1.88-3.67-2.82c-1.3,5.9-2.6,11.8-3.91,17.7c-0.98,4.45-1.78,9.99-4.99,13.49c-4.58,5-16.16,2.19-13.46-5.77
	c1.65-4.86,5.78-8.36,7.29-13.39c0.67-2.25-2.59-4.46-4.18-2.43c-2.3,2.94-4.6,5.89-6.9,8.83c1.31,1.01,2.62,2.02,3.93,3.03
	c3.43-5.24,7.65-9.65,12.75-13.29c-1.14-1.14-2.28-2.28-3.42-3.42c-4.67,7.04-9.35,14.07-14.02,21.11
	c-1.64,2.47,1.89,4.84,3.93,3.03c6.94-6.17,13.88-12.34,20.82-18.5c-1.31-1.01-2.62-2.02-3.93-3.03
	c-4.55,6.78-9.1,13.56-13.65,20.34c-1.61,2.39,1.95,5,3.93,3.03c5.09-5.05,10.18-10.11,15.27-15.16c-1.31-1.01-2.62-2.02-3.93-3.03
	c-3.52,5.83-7.03,11.65-10.55,17.48c-1.52,2.51,1.86,4.87,3.93,3.03c4.66-4.15,9.32-8.3,13.98-12.45c-1.39-0.81-2.79-1.62-4.18-2.43
	c-1.7,5.15-3.82,10.06-6.37,14.84c-1.32,2.48,1.85,5.05,3.93,3.03c2.59-2.52,5.19-5.05,7.78-7.57c-1.39-0.81-2.79-1.62-4.18-2.43
	c-1.34,4.85-2.95,9.59-4.92,14.23c-1,2.34,1.94,5.44,3.93,3.03c2.62-3.18,5.24-6.35,7.86-9.53c-1.31-1.01-2.62-2.02-3.93-3.03
	c-1.91,4.5-2.92,8.96-2.96,13.86c-0.02,2.49,3.41,3.38,4.66,1.26c0.42-0.5,0.84-1.01,1.26-1.51c-1.22-0.94-2.45-1.88-3.67-2.82
	c-0.77,2.53-1.55,5.05-2.32,7.58C292.74,260.27,297.56,261.59,298.51,258.52L298.51,258.52z"/>
<path d="M48.43,191.32c2.93,4.02,6.91,6.06,11.09,8.56c2.88,1.72,5.7,3.7,6.7,7.1c1.05,3.57-0.07,7.44-1.02,10.89
	c-3.06,11.11-4.58,21.51,2.75,31.45c6,8.13,28.18,15.86,20.12,28.72c-4.21,6.71-12.79,7.58-19.97,7.07
	c-5.03-0.36-10.17-2.12-14.3,1.63c-2.39,2.17,1.16,5.7,3.54,3.54c2.53-2.3,9.52-0.18,12.51-0.06c3.1,0.12,6.25-0.04,9.29-0.71
	c5.31-1.18,10.35-4.24,13.25-8.94c7.29-11.78-3.61-20.98-12.54-27.11c-6.54-4.49-11.3-10.22-12.34-18.32
	c-0.96-7.53,2.65-14.16,3.77-21.43c0.81-5.33-0.12-10.5-4.07-14.38c-4.28-4.21-10.86-5.58-14.45-10.52
	C50.88,186.22,46.54,188.72,48.43,191.32L48.43,191.32z"/>
<path d="M57.28,199.04c-3.23,3.44-4.91,7.24-5.49,11.9c-0.3,2.41,2.81,2.94,4.27,1.77c2.71-2.19,4.91-4.61,6.92-7.44
	c-1.44-0.84-2.88-1.68-4.32-2.52c-3.31,4.68-5.52,9.75-6.71,15.35c-0.54,2.55,2.26,4.01,4.18,2.43c3.2-2.62,6.4-5.24,9.59-7.87
	c-1.31-1.01-2.62-2.02-3.93-3.03c-3.67,7.26-6.86,14.71-9.58,22.38c-0.91,2.55,2.45,3.9,4.18,2.43c4.63-3.94,8.32-8.56,11.14-13.94
	c-1.52-0.64-3.05-1.28-4.57-1.93c-2.56,9.75-5.9,19.21-10.1,28.37c-1.32,2.89,2.89,5.44,4.32,2.52c2.24-4.58,4.93-8.7,8.3-12.53
	c-1.42-0.59-2.85-1.18-4.27-1.77c-1.04,8-3.28,15.71-6.65,23.05c-1.11,2.41,1.86,5.27,3.93,3.03c2.87-3.11,5.73-6.22,8.6-9.32
	c-1.39-0.81-2.79-1.62-4.18-2.43c-2.47,7.83-6.04,15.05-10.69,21.8c-1.59,2.31,2.1,5.21,3.93,3.03c4.25-5.08,8.5-10.17,12.76-15.25
	c-1.31-1.01-2.62-2.02-3.93-3.03c-3.26,6.46-6.52,12.92-9.78,19.38c-1.23,2.44,1.87,5.18,3.93,3.03
	c5.62-5.87,11.24-11.75,16.85-17.62c-1.31-1.01-2.62-2.02-3.93-3.03c-3.92,7.63-8.22,15.03-12.91,22.21
	c-1.52,2.34,2.14,5.27,3.93,3.03c5.92-7.42,12.22-14.48,18.92-21.19c-1.31-1.01-2.62-2.02-3.93-3.03
	c-4.68,7.42-9.36,14.85-14.04,22.27c-1.52,2.41,1.96,5.07,3.93,3.03c5.18-5.35,10.35-10.7,15.53-16.05
	c-1.39-0.81-2.79-1.62-4.18-2.43c-1.76,4.84-4.11,9.24-7.06,13.45c-1.61,2.3,2.16,5.26,3.93,3.03c3.96-5,8.36-9.47,13.3-13.5
	c-1.42-0.59-2.85-1.18-4.27-1.77c-0.43,4.26-1.99,8.03-4.7,11.37c-1.99,2.45,1.35,5.97,3.54,3.54c2.28-2.54,4.57-5.08,6.85-7.62
	c-1.39-0.81-2.79-1.62-4.18-2.43c-0.64,3.65-1.64,7.07-3.19,10.44c1.52,0.2,3.05,0.4,4.57,0.6c-0.63-1.82-1.25-3.63-1.88-5.45
	c-1.04-3.02-5.88-1.72-4.82,1.33c0.63,1.82,1.25,3.63,1.88,5.45c0.63,1.83,3.6,2.7,4.57,0.6c1.73-3.76,2.98-7.55,3.69-11.64
	c0.39-2.25-2.36-4.46-4.18-2.43c-2.28,2.54-4.57,5.08-6.85,7.62c1.18,1.18,2.36,2.36,3.54,3.54c3.61-4.45,5.58-9.19,6.16-14.9
	c0.24-2.39-2.79-2.98-4.27-1.77c-4.94,4.03-9.34,8.51-13.3,13.5c1.31,1.01,2.62,2.02,3.93,3.03c3.2-4.56,5.66-9.41,7.57-14.64
	c0.87-2.4-2.52-4.15-4.18-2.43c-5.18,5.35-10.35,10.7-15.53,16.05c1.31,1.01,2.62,2.02,3.93,3.03c4.68-7.42,9.36-14.85,14.04-22.27
	c1.53-2.42-1.94-5.03-3.93-3.03c-6.7,6.72-13,13.78-18.91,21.19c1.31,1.01,2.62,2.02,3.93,3.03c4.69-7.18,8.99-14.58,12.91-22.21
	c1.25-2.44-1.88-5.17-3.93-3.03c-5.62,5.87-11.24,11.75-16.85,17.62c1.31,1.01,2.62,2.02,3.93,3.03c3.26-6.46,6.52-12.92,9.78-19.38
	c1.2-2.38-2-5.33-3.93-3.03c-4.25,5.08-8.5,10.17-12.76,15.25c1.31,1.01,2.62,2.02,3.93,3.03c4.9-7.11,8.59-14.76,11.19-23
	c0.74-2.36-2.5-4.26-4.18-2.43c-2.87,3.11-5.73,6.22-8.6,9.32c1.31,1.01,2.62,2.02,3.93,3.03c3.77-8.19,6.17-16.63,7.33-25.57
	c0.28-2.15-2.92-3.3-4.27-1.77c-3.64,4.14-6.66,8.59-9.08,13.54c1.44,0.84,2.88,1.68,4.32,2.52c4.38-9.55,7.94-19.4,10.61-29.56
	c0.7-2.68-3.22-4.5-4.57-1.93c-2.64,5.02-6.04,9.25-10.36,12.93c1.39,0.81,2.79,1.62,4.18,2.43c2.58-7.26,5.61-14.3,9.08-21.18
	c1.32-2.61-1.74-4.82-3.93-3.03c-3.2,2.62-6.4,5.24-9.59,7.87c1.39,0.81,2.79,1.62,4.18,2.43c1.11-5.19,3.15-9.83,6.21-14.16
	c1.86-2.63-2.47-5.13-4.32-2.52c-1.76,2.48-3.78,4.53-6.14,6.43c1.42,0.59,2.85,1.18,4.27,1.77c0.4-3.26,1.8-5.99,4.02-8.37
	C63.01,200.23,59.48,196.69,57.28,199.04L57.28,199.04z"/>
<path d="M76.54,251.13c-3.73,2.06-6.88,4.67-9.55,8c1.39,0.81,2.79,1.62,4.18,2.43c0.81-3.66,3.45-10.28-2.02-11.56
	c-4.47-1.05-6.66,3.11-7.32,6.8c-0.47,2.58,2.19,3.97,4.18,2.43c1.38-1.13,2.93-1.73,4.65-1.82c-1.05-0.8-2.11-1.61-3.16-2.41
	c-0.21,4.37-0.42,8.74-0.63,13.1c-0.14,2.95-1.18,7.4-0.02,10.29c2.14,5.33,10.11,1.8,13.94,0.99c-1.03-1.03-2.05-2.05-3.08-3.08
	c-1.27,4.34-5.44,5.99-9.65,5.99c-2,0-8.71-0.42-10.01-2.5c-0.48-0.77-0.11-4.91-0.13-5.84c-0.03-1.62-0.07-3.24-0.1-4.86
	c-0.08-3.57-0.15-7.13-0.23-10.7c-0.31-14.27-0.61-28.53-0.92-42.8c-0.07-3.22-4.94-3.22-5,0c-0.06,3.02-0.12,6.03-0.17,9.05
	c-0.05,2.74,4.51,3.51,4.91,0.66c0.79-5.66,1.74-11.39,3.32-16.9c0.55-1.91,1.95-6.46,2.99-2.24c0.83,3.38,0.19,6.65-1.13,9.78
	c1.61,0,3.21,0,4.82,0c-1.28-6.65-4.07-12.43-8.26-17.73c-1.44-1.82-4.18-0.18-4.27,1.77c-0.14,3.02,0.52,5.49,2.08,8.07
	c1.66,2.75,5.99,0.24,4.32-2.52c-1.14-1.89-1.49-3.39-1.4-5.55c-1.42,0.59-2.85,1.18-4.27,1.77c3.63,4.59,5.87,9.79,6.97,15.52
	c0.52,2.72,3.98,2,4.82,0c1.9-4.52,3.52-19.49-5.15-18.5c-3.24,0.37-4.92,3.72-5.86,6.44c-2.05,5.95-2.95,12.55-3.81,18.75
	c1.64,0.22,3.27,0.44,4.91,0.66c0.06-3.02,0.12-6.03,0.17-9.05c-1.67,0-3.33,0-5,0c0.44,20.75,0.68,41.51,1.33,62.25
	c0.09,2.84,0.01,5.19,2.65,6.84c2.98,1.86,8.02,2.41,11.49,2.59c6.8,0.35,13.39-2.82,15.39-9.65c0.56-1.92-1.27-3.45-3.08-3.08
	c-2,0.42-4.27,1.26-6.31,1.32c-1.38,0.04-0.98,0.43-1.65-0.3c-0.51-0.56,0.19-3.97,0.22-4.68c0.25-5.3,0.51-10.61,0.76-15.91
	c0.09-1.79-1.66-2.63-3.16-2.41c-2.76,0.41-4.68,1.41-6.86,3.1c1.39,0.81,2.79,1.62,4.18,2.43c0.69-3.83-0.1,1.19-0.3,2.1
	c-0.49,2.21,2.5,4.53,4.18,2.43c2.44-3.03,5.12-5.33,8.54-7.21C81.88,253.89,79.36,249.57,76.54,251.13L76.54,251.13z"/>
</svg>
