<?xml version="1.0" encoding="utf-8"?>
<!-- Generator: Adobe Illustrator 24.0.0, SVG Export Plug-In . SVG Version: 6.00 Build 0)  -->
<svg version="1.1" id="Capa_1" xmlns="http://www.w3.org/2000/svg" xmlns:xlink="http://www.w3.org/1999/xlink" x="0px" y="0px"
	 viewBox="0 0 350 350" style="enable-background:new 0 0 350 350;" xml:space="preserve">
<style type="text/css">
	.st0{fill:#FFFFFF;}
	.st1{fill:#F4E600;}
</style>
<g>
	<path d="M282.86,259.89c-53.21,64.7-164.44,67.8-211.38-8.63c-7.26-11.82-12.35-25.34-19.87-36.93
		c-7.52-11.59-18.46-21.51-30.86-21.51c4.29-6.96,10.25-12.48,17.02-15.74c-9.34-7.24-21.11-9.99-32.09-7.51
		c14.03-32.18,38.04-58.18,66.48-71.97c3.63-1.76,7.55-3.53,9.8-7.31c2.05-3.44,2.3-7.86,2.66-12.03
		c1.69-19.79,7.25-39.11,16.13-56.04c11.48,17.52,19.29,38.32,22.58,60.09c42.13-2.38,69.45-0.06,111.2,6.92
		c5.18-16.51,25.35-33.01,30.53-49.52c5.78,19.71,8.67,40.58,8.52,61.43c31.91,6.81,60.01,34.43,71.35,70.13
		c-6.17,0.9-12.18,3.35-17.49,7.15c7.63,9.72,13.24,21.61,16.24,34.35c-12.54-2.47-25.19,4.63-34.84,14.36
		C299.19,236.85,291.7,249.15,282.86,259.89z"/>
</g>
<path class="st0" d="M243.64,139.64c-5.99,7.67-8.6,17.6-6.02,27.15c2.16,7.97,9.96,13.43,16.96,6.48c3.43-3.4,4.68-8.68,5.72-13.23
	c1.07-4.7,1.67-9.97-0.5-14.46c-3.08-6.35-12.11-9.5-17.38-3.94c-2.21,2.33,1.32,5.88,3.54,3.54c5.04-5.32,10.33,2.99,10.33,7.64
	c-0.01,4.93-1.56,13.25-5.25,16.77c-6.63,6.32-9.36-5.53-9.39-10.32c-0.03-5.85,1.94-11.48,5.53-16.08
	C249.13,140.67,245.61,137.11,243.64,139.64L243.64,139.64z"/>
<path class="st0" d="M108.22,139.64c-5.99,7.67-8.6,17.6-6.02,27.15c2.16,7.97,9.96,13.43,16.96,6.48c3.43-3.4,4.68-8.68,5.72-13.23
	c1.07-4.7,1.67-9.97-0.5-14.46c-3.08-6.35-12.11-9.5-17.38-3.94c-2.21,2.33,1.32,5.88,3.54,3.54c5.04-5.32,10.33,2.99,10.33,7.64
	c-0.01,4.93-1.56,13.25-5.25,16.77c-6.63,6.32-9.36-5.53-9.39-10.32c-0.03-5.85,1.94-11.48,5.53-16.08
	C113.71,140.67,110.2,137.11,108.22,139.64L108.22,139.64z"/>
<path class="st0" d="M138.89,200.33c0.16,10.65,8.14,22.37,19.71,22.37c12.23,0,18.35-12.55,22.32-22.22
	c-1.64-0.22-3.27-0.44-4.91-0.66c1.38,11.94,5.43,24.34,19.41,25.26c12.62,0.83,21.58-10.01,22.29-21.87c0.19-3.21-4.81-3.2-5,0
	c-0.56,9.33-7.7,17.88-17.64,16.82c-10.66-1.14-13.03-11.23-14.07-20.21c-0.33-2.86-3.82-3.33-4.91-0.66
	c-2.89,7.05-7.02,16.76-15.46,18.36c-9.68,1.83-16.63-8.68-16.76-17.17C143.84,197.12,138.84,197.11,138.89,200.33L138.89,200.33z"
	/>
<path class="st0" d="M181.11,186.73c-4.95-5.2-13.69-1.04-13.01,6.02c0.68,7.04,9.35,11.6,15.46,7.84
	c5.37-3.31,5.67-12.43-0.14-15.46c-5.63-2.94-13.52,2.72-11.6,9.06c1.95,6.43,12.01,6.24,14.07,0.09c0.38-1.14-0.28-2.18-1.15-2.82
	c-2.63-1.96-7.77-3.36-8.94,1.02c-0.75,2.79,1.48,6.14,4.57,5.09c3.03-1.03,1.73-5.86-1.33-4.82c1.22,0.27,1.81,0.95,1.77,2.05
	c0.49,0.29,0.96,0.62,1.41,0.98c-0.38-0.94-0.77-1.88-1.15-2.82c-0.68,2.03-5.04,1.08-4.48-1.24c0.34-1.41,2.23-2.48,3.6-2.38
	c1.74,0.13,2.52,1.81,2.52,3.38c-0.01,4.18-4.6,5.26-7.59,3.03c-1.48-1.11-2.98-3.81-1.57-5.5c1.02-1.23,3.01-1.05,4.02,0.02
	C179.8,192.6,183.33,189.06,181.11,186.73L181.11,186.73z"/>
<path class="st0" d="M265.9,202.39c10.22,3.57,19.78,8.44,28.72,14.53c2.67,1.82,5.17-2.51,2.52-4.32
	c-9.29-6.33-19.29-11.33-29.91-15.03C264.18,196.5,262.87,201.33,265.9,202.39L265.9,202.39z"/>
<path class="st0" d="M265.09,217.73c5.62,2.88,10.43,6.76,14.47,11.62c2.06,2.48,5.58-1.08,3.54-3.54
	c-4.28-5.15-9.52-9.34-15.48-12.4C264.76,211.94,262.23,216.26,265.09,217.73L265.09,217.73z"/>
<path class="st0" d="M258.36,228.73c2.48,4.51,4.96,9.02,7.44,13.53c1.55,2.82,5.87,0.3,4.32-2.52c-2.48-4.51-4.96-9.02-7.44-13.53
	C261.13,223.38,256.81,225.9,258.36,228.73L258.36,228.73z"/>
<path class="st0" d="M96.19,190.02c-9.57-2.08-19-0.84-27.7,3.65c-2.86,1.47-0.34,5.79,2.52,4.32c7.47-3.85,15.64-4.92,23.85-3.14
	C98,195.52,99.34,190.7,96.19,190.02L96.19,190.02z"/>
<path class="st0" d="M93.13,202.27c-7.16,1.63-13.57,5.1-18.91,10.14c-2.35,2.21,1.19,5.74,3.54,3.54
	c4.74-4.47,10.35-7.41,16.7-8.85C97.59,206.37,96.27,201.55,93.13,202.27L93.13,202.27z"/>
<path class="st0" d="M95.09,218.27c-4.02,3.47-8.04,6.95-12.06,10.42c-2.44,2.11,1.11,5.63,3.54,3.54
	c4.02-3.47,8.04-6.95,12.06-10.42C101.07,219.7,97.52,216.18,95.09,218.27L95.09,218.27z"/>
<path class="st1" d="M178.54,258.38c-6.01-15-28.93-2.6-28.87,10.13c0.08,15.64,27.94,15.8,36.02,7.33
	c11-11.53-3.9-27.33-17.08-21.02c-5.8,2.78-11.46,10.02-8.71,16.73c2.53,6.18,10.08,7.71,15.79,5.43c5-2,14.66-10.12,8.39-15.8
	c-5.96-5.39-15.02,1.56-17.61,7.12c-0.73,1.57-0.11,3.05,1.49,3.67c5.3,2.05,11.21-0.35,13.62-5.48c0.82-1.75-0.17-3.64-2.16-3.76
	c-4.77-0.28-8.76,1.16-12.48,4.09c-0.79,0.63-0.98,2.21-0.39,3.03c3.2,4.45,9.72,5.26,13.33,0.74c1.05-1.32,0.94-3.8-1.1-4.18
	c-7.1-1.32-14.23-1.99-21.46-1.96c-2.94,0.01-3.24,3.97-0.66,4.91c4.89,1.78,9.82,0.56,13.46-3.1c1.55-1.55,0.39-4.23-1.77-4.27
	c-6.04-0.1-11.29,3.04-13.89,8.53c-0.7,1.47-0.15,3.18,1.49,3.67c6.68,2.01,13.46,3.17,20.42,3.55c3.22,0.18,3.21-4.82,0-5
	c-6.52-0.36-12.84-1.49-19.09-3.37c0.5,1.22,1,2.45,1.49,3.67c1.87-3.96,5.13-6.13,9.58-6.05c-0.59-1.42-1.18-2.85-1.77-4.27
	c-2.46,2.47-5.4,2.97-8.59,1.81c-0.22,1.64-0.44,3.27-0.66,4.91c6.79-0.03,13.46,0.54,20.13,1.78c-0.37-1.39-0.74-2.79-1.1-4.18
	c-1.3,1.62-3.87,2.5-5.47,0.27c-0.13,1.01-0.26,2.02-0.39,3.03c2.69-2.12,5.6-2.83,8.94-2.63c-0.72-1.25-1.44-2.51-2.16-3.76
	c-1.53,3.25-4.64,4.47-7.97,3.18c0.5,1.22,1,2.45,1.49,3.67c0.97-2.08,2.16-3.82,4.18-5.04c1.14-0.72,2.37-1.15,3.71-1.31
	c1.42,2.29,1.24,4-0.54,5.14c-3.34,3.59-13.29,5.92-13.93-1.46c-0.47-5.38,6.32-9.78,10.96-9.94c5.05-0.17,9.88,4.2,9.25,9.4
	c-1.32,10.95-18.36,10.12-25.58,6.42c-13.95-7.16,10.7-24.76,14.88-14.32C174.9,262.66,179.74,261.37,178.54,258.38L178.54,258.38z"
	/>
<path class="st1" d="M89.47,276.94c20.9-9.27,44.07-12.52,66.72-9.35c3.15,0.44,4.51-4.38,1.33-4.82
	c-24.12-3.39-48.3-0.02-70.57,9.85C84.01,273.92,86.55,278.23,89.47,276.94L89.47,276.94z"/>
<path class="st1" d="M96.07,287.21c18.56-10.32,39.69-14.36,60.76-11.82c3.19,0.39,3.16-4.62,0-5c-21.91-2.65-44,1.78-63.28,12.5
	C90.73,284.45,93.25,288.77,96.07,287.21L96.07,287.21z"/>
<path class="st1" d="M180.79,279.74c21.91-1.15,43.61,5.52,60.91,19.08c2.5,1.96,6.07-1.55,3.54-3.54
	c-18.35-14.39-41.12-21.77-64.45-20.54C177.59,274.91,177.57,279.91,180.79,279.74L180.79,279.74z"/>
<path class="st1" d="M186.94,267.95c21.49,1.53,42.04,8.62,59.99,20.53c2.69,1.78,5.2-2.55,2.52-4.32
	c-18.69-12.4-40.15-19.61-62.51-21.21C183.73,262.72,183.74,267.72,186.94,267.95L186.94,267.95z"/>
</svg>
