<?xml version="1.0" encoding="utf-8"?>
<!-- Generator: Adobe Illustrator 24.0.0, SVG Export Plug-In . SVG Version: 6.00 Build 0)  -->
<svg version="1.1" id="Capa_1" xmlns="http://www.w3.org/2000/svg" xmlns:xlink="http://www.w3.org/1999/xlink" x="0px" y="0px"
	 viewBox="0 0 350 350" style="enable-background:new 0 0 350 350;" xml:space="preserve">
<style type="text/css">
	.st0{fill:#FFFFFF;}
	.st1{fill:#F4E600;}
</style>
<path d="M80.72,41.98c-2.33,16.14,1.84,32.54,13.02,44.68c12.33,13.39,30.78,18.28,48.21,20.58c20.95,2.77,42.14,4.12,63.18,6.06
	c18.37,1.7,38.74,4.33,54.49-7.52c6.6-4.97,11.31-11.86,13.2-19.93c1.9-8.09,0.84-20.17,8.16-25.74c-1.22-0.5-2.45-1-3.67-1.49
	c8.18,27.56,16.37,55.13,24.55,82.69c3.98,13.41,8.2,26.78,11.83,40.29c3.65,13.56,6.46,27.68,4.73,41.77
	c-2.97,24.18-19.89,43.9-39.44,57.16c-18.72,12.7-40.51,19.87-62.81,22.93c-22.79,3.13-46.04,2.23-68.84-0.37
	c-21.28-2.43-43.29-5.47-63.52-12.81c-20.95-7.6-38.85-21.51-46.06-43.28c-7.5-22.62-4.2-47.38-0.36-70.37
	c3.89-23.26,8.96-46.4,16.11-68.88c7.11-22.33,16.27-45.14,31.39-63.35c2.04-2.46-1.48-6.01-3.54-3.54
	C67.59,57.45,58.63,77.54,51.58,97.75c-7.57,21.72-12.93,44.19-17.11,66.79c-4.22,22.8-8.31,46.47-4.84,69.64
	c3.38,22.64,15.68,41.56,35.56,53.03c19,10.96,41.19,14.96,62.6,18.25c24.26,3.73,48.92,6.04,73.47,4.47
	c44.53-2.85,95.95-21.5,116-64.86c13.5-29.19,2.81-60-5.78-88.93c-9.78-32.95-19.56-65.9-29.35-98.85
	c-0.41-1.39-2.34-2.51-3.67-1.49c-11.3,8.61-7.05,24.54-13.09,35.98c-8.83,16.73-29.11,18.92-45.96,17.77
	c-19.85-1.35-39.67-3.6-59.48-5.43c-17.63-1.63-36.25-3.04-51.83-12.3C91.21,81.78,82.76,62.6,85.55,43.31
	C86,40.16,81.18,38.8,80.72,41.98z"/>
<g>
	<path class="st0" d="M255.44,97.98c-0.77-8.37-3.49-16.56-7.89-23.73c-1.65-2.68-3.66-5.33-6.53-6.61
		c-6.19-2.76-13.01,1.79-18.25,6.09c-3.38,2.77-7.01,5.98-7.55,10.31c-0.72,5.72,4.23,10.53,9.18,13.49
		c6.43,3.85,13.65,6.38,21.08,7.38c2.52,0.34,5.19,0.49,7.5-0.57c2.31-1.06,4.09-3.67,3.39-6.12c5.3-5.16,15.27-4.24,19.35,1.94
		c4.07,6.18,0.77,15.9-6.29,18.1c-7.06,2.2-15.41-4.2-14.9-11.58c0.15,8.21,11.43,13,18.36,8.6c2.02-1.28,3.69-3.09,5.81-4.2
		c7.83-4.07,16.65,2.94,22.68,9.37c1.43,1.52,2.92,3.17,3.25,5.23c0.53,3.32-2.11,6.26-4.8,8.28c-6.28,4.73-15,7.49-22.02,3.96
		c-7.02-3.53-9.19-15.19-2.39-19.14"/>
	<path d="M257.94,97.98c-0.71-6.62-2.3-12.99-5.08-19.05c-2.47-5.39-5.89-11.9-11.9-13.95c-5.74-1.95-11.63,0.86-16.27,4.15
		c-4.4,3.12-9.51,6.91-11.35,12.19c-4.38,12.55,12.03,20.57,21.38,23.67c5.5,1.82,13.27,4.15,18.92,1.78
		c4.83-2.03,3.93-7.76,8.67-9.03c8.2-2.2,15.39,5.45,11.61,13.32c-4.19,8.73-16.9,4.88-16.89-4.36c-1.67,0-3.33,0-5,0
		c0.55,6.56,5.44,11.22,11.82,12.46c3.02,0.59,6.2,0.31,8.99-1.01c4.8-2.28,7.66-6.99,13.7-5.32c4.71,1.3,10.24,5.43,13.08,9.41
		c1.08,1.51,2.55,4.26,2.04,6.22c-0.34,1.29-2.35,2.76-3.41,3.56c-2.26,1.72-4.81,3.13-7.52,4.01c-5.22,1.69-11.93,1.55-15.19-3.52
		c-2.28-3.53-2.7-8.95,1.15-11.55c2.65-1.79,0.15-6.12-2.52-4.32c-7.73,5.22-6.52,16.85,0.52,22.24c8.87,6.79,24.46,1.87,30.5-6.7
		c3.46-4.91,1.7-9.4-2.02-13.48c-4.09-4.48-9.32-9.03-15.29-10.7c-5.68-1.59-9.98,0.41-14.43,3.81c-5.32,4.06-15.7,3.23-16.4-5.11
		c-0.26-3.16-5-3.27-5,0c-0.01,9.65,10.54,17.64,19.74,13.33c8.18-3.82,10.94-15.73,4.98-22.6c-2.97-3.43-7.61-5.14-12.09-5.02
		c-3.7,0.1-9.35,1.68-10.75,5.5c-0.28,0.77,0.1,1.93-0.27,2.65c-0.79,1.51-3.71,2.1-5.1,2.12c-1.94,0.03-3.92-0.36-5.81-0.73
		c-3.85-0.76-7.62-1.95-11.21-3.54c-6.65-2.94-18.04-9.45-12.02-17.98c4.44-6.29,16.63-15.49,23.47-8.23
		c6.18,6.56,9.03,17.07,9.97,25.79C253.28,101.14,258.28,101.18,257.94,97.98L257.94,97.98z"/>
</g>
<g>
	<path d="M238.22,140.49c-13,1.1-25.64,3.56-38.63,9.13c-42.04,18.05-9.58,70.62,17.26,88.48c7.63,5.08,16.86,7.26,25.99,8.07
		c19.82,1.76,40.4-2.77,56.81-14.03c16.4-11.26,28.24-29.47,30.36-49.25c0.64-5.98,0.4-12.16-1.67-17.81
		c-4.03-11.03-14.6-18.65-25.82-22.14c-11.22-3.48-23.19-3.45-34.93-3.39C257.43,139.6,247.73,139.69,238.22,140.49z"/>
</g>
<g>
	<path d="M104.21,145.56c11.87,1.01,23.4,3.25,35.25,8.33c38.37,16.47,8.74,64.45-15.75,80.75c-6.97,4.63-15.39,6.62-23.72,7.36
		c-18.09,1.6-36.87-2.53-51.84-12.8c-14.97-10.28-25.78-26.89-27.71-44.94c-0.58-5.46-0.36-11.1,1.52-16.25
		c3.68-10.07,13.32-17.02,23.56-20.2c10.24-3.18,21.16-3.15,31.88-3.1C86.69,144.75,95.54,144.83,104.21,145.56z"/>
</g>
<path d="M175.96,229.17c1.11-7.6-7.51-11.71-13.12-6.63c-5.01,4.53-5.01,12.7,1.05,16.28c6.91,4.09,15.93,0.18,18.77-6.94
	c3.11-7.8-0.74-16.54-8.4-19.77c-7.29-3.07-15.4-0.36-19.53,6.35c-3.8,6.17-3.36,14.63,2.66,19.21c5.4,4.1,14.02,4.27,19.06-0.55
	c5.27-5.04,4.97-14.65-0.95-19.09c-6.18-4.64-16.71-0.77-17.33,7.3c-0.59,7.62,8.94,12.97,15.12,8.59c1.15-0.81,1.56-2.13,0.9-3.42
	c-3.21-6.2-12.3-7.29-16.7-1.75c-1.09,1.37-0.88,2.87,0.51,3.93c3.96,3.01,10.04,4.62,13.44-0.17c2.25-3.15,1.33-7.65-2.57-8.87
	c-3.22-1.01-7.13,1.03-6.75,4.72c0.37,3.56,4.81,5.27,7.85,3.95c3.87-1.69,3.97-6.56,1.52-9.53c-3.26-3.94-8.71-3.14-12.55-0.57
	c-3.29,2.21-5.88,6.1-3.11,9.78c3.68,4.9,9.7,2.27,13.6-0.7c0.87-0.66,1.5-1.68,1.15-2.82c-2.29-7.38-10.62-10.79-17.45-7.21
	c-1.17,0.62-1.59,2.31-0.9,3.42c5.15,8.28,18.36,6.63,21.51-2.51c1.05-3.05-3.78-4.36-4.82-1.33c-1.74,5.05-9.59,5.78-12.37,1.31
	c-0.3,1.14-0.6,2.28-0.9,3.42c3.94-2.07,8.79-0.02,10.11,4.22c0.38-0.94,0.77-1.88,1.15-2.82c-0.77,0.59-1.54,1.23-2.38,1.72
	c-0.67,0.32-1.34,0.64-2.01,0.96c-2.16-1.49-2.41-2.58-0.75-3.27c0.64-0.57,1.4-0.91,2.26-1.02c1.93-0.99,2.12-0.22,0.58,2.3
	c0.2,2.62-0.4,3.33-1.82,2.15c-0.83-0.36-1.58-0.85-2.25-1.46c0.17,1.31,0.34,2.62,0.51,3.93c2.44-3.08,7.01-2.83,8.85,0.74
	c0.3-1.14,0.6-2.28,0.9-3.42c-4.8,3.4-10.54-3.8-5.41-7.4c5.4-3.79,10.89,1.88,9.64,7.56c-2.35,10.7-19.91,5.89-17.54-4.93
	c2.37-10.8,18.65-12.41,21.11-0.72c1.27,6.02-3.37,12.27-9.77,11.16c-2.8-0.49-5.14-2.5-4.58-5.62c0.17-0.96,0.75-2.09,1.39-2.82
	c0.7-0.8,6.35-4.62,5.54,1C170.68,230.99,175.5,232.34,175.96,229.17L175.96,229.17z"/>
<path d="M162.95,236.51c1.01,8.45,2.41,19.95-6.18,25.15c-8.87,5.38-14.41-5.35-16.73-12.19c-1.03-3.03-5.86-1.73-4.82,1.33
	c3.07,9.03,9.74,20.29,21.08,16.57c13.04-4.27,12.98-19.78,11.65-30.86C167.57,233.36,162.57,233.32,162.95,236.51L162.95,236.51z"
	/>
<path d="M166.14,240.82c0.21,10.19,3.67,22.91,14.44,26.65c8.16,2.83,18.57-0.78,20.78-9.66c0.78-3.12-4.05-4.46-4.82-1.33
	c-1.69,6.79-10.45,8.56-16.06,5.5c-7.3-3.97-9.18-13.63-9.34-21.16C171.07,237.6,166.07,237.59,166.14,240.82L166.14,240.82z"/>
<path d="M148.92,184.16c11.1-9.16,27.35-9.21,38.83-0.76c2.59,1.91,5.09-2.43,2.52-4.32c-13.39-9.86-32.17-8.95-44.89,1.55
	C142.9,182.67,146.45,186.19,148.92,184.16L148.92,184.16z"/>
<path d="M151.44,187.58c10.13-7,22.55-8.46,34.05-4.06c3.01,1.15,4.31-3.68,1.33-4.82c-12.61-4.83-26.78-3.11-37.9,4.56
	C146.29,185.08,148.79,189.41,151.44,187.58L151.44,187.58z"/>
<path class="st0" d="M200.95,171.1c6.35-4.59,13.47-7.57,21.26-8.58c3.15-0.41,3.19-5.41,0-5c-8.69,1.12-16.67,4.12-23.79,9.26
	C195.84,168.65,198.34,172.99,200.95,171.1L200.95,171.1z"/>
<path class="st0" d="M38.62,175.63c0.89-2.93,3.49-5.37,6.6-5.76c1.35-0.17,2.48-1.03,2.5-2.5c0.01-1.22-1.16-2.67-2.5-2.5
	c-5.39,0.68-9.81,4.17-11.42,9.43C32.85,177.38,37.68,178.7,38.62,175.63L38.62,175.63z"/>
<path class="st1" d="M239,78.43c-1.84-6.69-11-5.89-14.04-0.59c-3.55,6.19,0.17,14.25,7.09,15.65c7.44,1.5,14.87-4.86,13.47-12.6
	c-1.18-6.55-9.87-10.18-14.76-4.91c-5.54,5.96,1.05,14.36,6.88,16.89c5.06,2.2,14.97,1.44,14.06-6.27
	c-0.8-6.7-10.16-7.79-13.91-3.05c-4.05,5.11-1.29,13.38,5.74,13.36c7.99-0.03,9.99-11.48,2.05-13.59
	c-7.67-2.04-10.14,9.57-3.18,12.14c3.02,1.12,4.33-3.71,1.33-4.82c-2.16-0.8,1.46-5.16,1.99-0.87c0.24,1.94-2.01,2.48-3.3,1.96
	c-4.07-1.65,0.23-8.57,3.49-5.67c3.51,3.12-3.91,2.99-5.13,2.64c-2.7-0.77-5.79-3.06-6.64-5.83c-1.35-4.37,4.07-5.94,6.04-2.48
	c2.17,3.79-1.54,7.99-5.27,8.3c-3.42,0.28-6.44-2.18-6.3-5.74c0.05-1.24,0.5-2.83,1.52-3.66c1.03-0.84,3.57-1.31,4.06,0.47
	C235.03,82.85,239.85,81.54,239,78.43L239,78.43z"/>
<path class="st1" d="M263.63,103.37c-3.05-3.54-9.26-1.57-10.42,2.76c-1.4,5.21,4.34,9.41,9.08,8.41
	c3.51-0.74,10.95-7.63,5.74-10.72c-3.65-2.17-9.06,2.76-6.26,6.4c1.93,2.51,6.28,0.03,4.32-2.52c-0.32,0.77-0.35,0.98-0.08,0.64
	c0.52-0.22,0.22-0.39-0.88-0.51c-0.08-0.64-0.17-1.28-0.25-1.93c-0.79,2.21-3.36,5.08-5.87,3.27c-1.93-1.39-0.03-3.56,1.08-2.26
	C262.2,109.35,265.72,105.8,263.63,103.37L263.63,103.37z"/>
<path class="st1" d="M281.52,110.51c-4.35,0.62-7.59,5.29-6.36,9.63c1.16,4.05,5.93,6.05,9.79,4.71c4.36-1.51,5.31-6.2,1.69-9.19
	c-4.57-3.77-8.16,0.39-8.63,5.12c-0.43,4.34,2.66,9.19,7.49,8.6c3.66-0.45,6.13-4.75,4.27-8.13c-2.16-3.93-7.44-2.56-9.07,1.04
	c-2.19,4.83,2.4,8.65,6.74,9.41c-0.5-1.22-1-2.45-1.49-3.67c-0.98,2.16-1.78,4.87,0.22,6.75c1.71,1.61,3.88,1.3,5.54-0.09
	c2.48-2.06-1.08-5.58-3.54-3.54c0.7-0.2,1.4-0.4,2.09-0.6c0.6-1.32,0.25-3.37-1.49-3.67c-0.8-0.08-1.57-0.29-2.3-0.64
	c-0.16-2.13-0.8-2.74-1.92-1.81c-2.29-2.1-1.69-3.93-0.32-6.38c-0.72,0.41-1.44,0.83-2.16,1.24c2.21,0.41,2.35,0.73,0.42,0.98
	c-1.1,0.06-1.94-0.42-2.52-1.45c-0.75-1.9,1.38-3.26,2.86-3.47C286.02,114.88,284.67,110.06,281.52,110.51L281.52,110.51z"/>
<path class="st1" d="M302.36,173.22c1.65-3.02,3.84-5.69,6.61-7.75c-1.14-1.14-2.28-2.28-3.42-3.42c-1,1.39-2,2.77-3,4.16
	c-1.89,2.61,2.45,5.11,4.32,2.52c1-1.39,2-2.77,3-4.16c1.43-1.98-1.44-4.9-3.42-3.42c-3.47,2.59-6.32,5.74-8.41,9.55
	C296.5,173.53,300.81,176.05,302.36,173.22L302.36,173.22z"/>
<path class="st1" d="M301.53,183.2c4-3.01,7.99-6.01,11.99-9.02c2.54-1.91,0.05-6.25-2.52-4.32c-4,3.01-7.99,6.01-11.99,9.02
	C296.46,180.8,298.95,185.14,301.53,183.2L301.53,183.2z"/>
</svg>
