<?xml version="1.0" encoding="utf-8"?>
<!-- Generator: Adobe Illustrator 24.0.0, SVG Export Plug-In . SVG Version: 6.00 Build 0)  -->
<svg version="1.1" id="Capa_1" xmlns="http://www.w3.org/2000/svg" xmlns:xlink="http://www.w3.org/1999/xlink" x="0px" y="0px"
	 viewBox="0 0 350 350" style="enable-background:new 0 0 350 350;" xml:space="preserve">
<style type="text/css">
	.st0{fill:#F4E600;}
</style>
<path d="M92.52,273.84c14.45,21.6,32.14,43.07,59.35,47.24c13.95,2.14,28.05,0.32,41.85-2.01c13.74-2.32,26.52-4.67,36.68-14.93
	c9.89-9.98,17.1-22.68,23.77-34.92c7.28-13.36,14.42-26.79,21.76-40.12c13.79-25.05,27.46-51.25,31.59-79.9
	c3.96-27.51-0.7-56.93-19.4-78.39c-0.83-0.96-2.71-0.99-3.54,0c-7.02,8.38-14.04,16.77-21.06,25.15
	c-5.79,6.92-12.18,17.88-21.61,19.91c-4.58,0.99-9.63,0.56-14.29,0.62c-5.64,0.08-11.28,0.16-16.91,0.24
	c-10.61,0.15-21.23,0.3-31.84,0.45c-21.89,0.31-43.78,0.62-65.67,0.93c-9.45,0.13-20.16,1.25-28.89-3.12
	c-6.57-3.29-10.91-9.52-15.05-15.36c-3.57-5.03-7.1-10.28-11.98-14.15c-2.77-2.2-8.62-6.29-12.37-4.43
	c-2.22,1.1-3.17,4.25-3.89,6.39c-1.48,4.38-2.31,9.01-3.12,13.55c-3.86,21.72-6.56,43.36-1.71,65.15
	C45.11,206.12,70.21,240.39,92.52,273.84c1.78,2.66,6.11,0.16,4.32-2.52c-19.63-29.43-40.98-58.98-52.07-92.95
	c-4.41-13.5-7.42-28.11-6.3-42.38c0.72-9.25,1.87-18.49,3.29-27.66c0.75-4.87,1.58-9.73,2.72-14.52c0.41-1.7,1.17-7.66,3.06-8.51
	c-1.26,0.57,2.22,1.35,2.45,1.45c1.27,0.57,2.47,1.33,3.59,2.15c2.89,2.13,5.26,4.92,7.43,7.75c3.77,4.92,7,10.25,11.14,14.88
	c11.4,12.76,27.29,11.78,43.08,11.56c21.23-0.3,42.45-0.6,63.68-0.9c11.61-0.16,23.22-0.33,34.82-0.49
	c5.64-0.08,11.28-0.16,16.91-0.24c4.67-0.07,9.64,0.21,14.17-1.14c8.96-2.66,14.68-11.75,20.35-18.53
	c7.66-9.14,15.31-18.29,22.97-27.43c-1.18,0-2.36,0-3.54,0c16.23,18.63,20.99,43.97,18.75,68.03c-2.46,26.37-13.84,50.9-26.17,73.98
	c-6.46,12.09-13.28,23.99-19.72,36.09c-6.17,11.59-12.15,23.32-19.52,34.2c-7.99,11.79-16.77,21.5-31.08,24.89
	c-13.33,3.16-27.53,5.43-41.24,5.51c-15.25,0.09-29.47-4.04-41.47-13.62c-11.06-8.83-19.5-20.45-27.31-32.12
	C95.05,268.65,90.72,271.15,92.52,273.84z"/>
<path d="M240.84,154.22c-12.58-5.22-21,11.83-20.97,21.92c0.02,11.32,9.12,21.97,21.12,20.3c12.38-1.72,18.17-17.88,16.17-28.78
	c-2.05-11.18-13.82-19.83-24.99-15.25c-2.94,1.2-1.65,6.04,1.33,4.82c8.06-3.31,16.47,2.13,18.52,10.24
	c2,7.9-1.53,21.08-10.18,23.69c-8.76,2.65-16.26-5.32-16.92-13.47c-0.59-7.32,4.71-22.75,14.59-18.65
	C242.48,160.27,243.78,155.44,240.84,154.22L240.84,154.22z"/>
<path d="M232.97,170.27c-0.44,4.09-0.14,8.08,0.83,12.07c0.48,1.98,2.81,2.23,4.18,1.1c5.94-4.89,6.25-14,1.23-19.62
	c-1.36-1.52-3.56-0.53-4.18,1.1c-1.83,4.82-6.19,21.18,4.47,18.98c3.08-0.64,5.63-3.04,6.16-6.17c0.77-4.49-2.25-8.45-4.98-11.64
	c-1.27-1.48-3.68-0.58-4.18,1.1c-1.57,5.28-0.88,10.72,1.91,15.46c1.02,1.73,3.26,1.49,4.32,0c2.93-4.13,5.69-10.61,0.65-14.45
	c-4.17-3.17-10.25,0.57-8.99,5.72c0.77,3.12,5.59,1.8,4.82-1.33c0.35-0.17,0.7-0.34,1.05-0.51c0.4,0.3,0.65,0.68,0.75,1.15
	c0.3,0.78,0.22,1.56,0.01,2.36c-0.43,1.67-1.63,3.17-2.62,4.55c1.44,0,2.88,0,4.32,0c-2.14-3.64-2.6-7.57-1.4-11.61
	c-1.39,0.37-2.79,0.74-4.18,1.1c1.35,1.58,3.05,3.48,3.48,5.59c0.25,1.26-0.24,4.33-2.4,3.83c-2.68-0.62,0.95-11.01,1.62-12.79
	c-1.39,0.37-2.79,0.74-4.18,1.1c3.34,3.74,2.52,9.46-1.23,12.55c1.39,0.37,2.79,0.74,4.18,1.1c-0.86-3.57-1.04-7.09-0.65-10.74
	C238.31,167.08,233.31,167.1,232.97,170.27L232.97,170.27z"/>
<path d="M99.97,154.22c-12.58-5.22-21,11.83-20.97,21.92c0.02,11.32,9.12,21.97,21.12,20.3c12.38-1.72,18.17-17.88,16.17-28.78
	c-2.05-11.18-13.82-19.83-24.99-15.25c-2.94,1.2-1.65,6.04,1.33,4.82c8.06-3.31,16.47,2.13,18.52,10.24
	c2,7.9-1.53,21.08-10.18,23.69c-8.76,2.65-16.26-5.32-16.92-13.47c-0.59-7.32,4.71-22.75,14.59-18.65
	C101.61,160.27,102.9,155.44,99.97,154.22L99.97,154.22z"/>
<path d="M92.09,170.27c-0.44,4.09-0.14,8.08,0.82,12.07c0.48,1.98,2.81,2.23,4.18,1.1c5.94-4.89,6.25-14,1.23-19.62
	c-1.36-1.52-3.56-0.53-4.18,1.1c-1.83,4.82-6.19,21.18,4.47,18.98c3.08-0.64,5.63-3.04,6.16-6.17c0.77-4.49-2.25-8.45-4.98-11.64
	c-1.27-1.48-3.68-0.58-4.18,1.1c-1.57,5.28-0.88,10.72,1.91,15.46c1.02,1.73,3.26,1.49,4.32,0c2.93-4.13,5.69-10.61,0.65-14.45
	c-4.17-3.17-10.25,0.57-8.99,5.72c0.77,3.12,5.59,1.8,4.82-1.33c0.35-0.17,0.7-0.34,1.05-0.51c0.4,0.3,0.65,0.68,0.75,1.15
	c0.3,0.78,0.22,1.56,0.01,2.36c-0.43,1.67-1.63,3.17-2.62,4.55c1.44,0,2.88,0,4.32,0c-2.14-3.64-2.6-7.57-1.4-11.61
	c-1.39,0.37-2.79,0.74-4.18,1.1c1.35,1.58,3.05,3.48,3.48,5.59c0.25,1.26-0.24,4.33-2.4,3.83c-2.68-0.62,0.95-11.01,1.62-12.79
	c-1.39,0.37-2.79,0.74-4.18,1.1c3.34,3.74,2.52,9.46-1.23,12.55c1.39,0.37,2.79,0.74,4.18,1.1c-0.86-3.57-1.04-7.09-0.65-10.74
	C97.44,167.08,92.44,167.1,92.09,170.27L92.09,170.27z"/>
<path d="M169.85,208.68c-3.15-4.24-7.78-5.45-12.63-3.39c-0.84,0.36-1.15,1.35-1.24,2.16c-1.25,12.02,14.41,19.08,21.85,8.88
	c8.23-11.27-8.9-22.14-18.11-14.05c-8.41,7.39-1.13,22.72,10.01,17.71c10.29-4.63,2.04-21.52-7.15-15.31
	c-3.6,2.43-3.61,7.68-0.52,10.61c3.83,3.61,9.93,1.43,12.13-2.91c1.97-3.9-0.53-9.1-5.37-8c-4.68,1.07-5.19,7.32-1.92,10.22
	c8.3,7.35,17.91-5.84,13.08-13.7c-6.47-10.53-23.7-0.61-23.38,9.76c0.44,14.01,21.57,11.16,27.61,3.17
	c3.25-4.3,3.52-11.46-1.31-14.82c-4.49-3.12-10.87-0.77-12.29,4.4c-0.85,3.11,3.97,4.43,4.82,1.33c0.34-1.22,1.94-2.22,3.16-2.13
	c2.22,0.15,3.09,3,2.97,4.72c-0.18,2.62-2.02,4.6-4.16,5.96c-3.38,2.15-8.27,3.19-12.12,1.67c-7.1-2.8-2.13-10.54,2.78-12.56
	c5.13-2.11,11.16,1.85,7.18,7.28c-1.71,2.34-7.21,3.24-9.14,1.29c-1.79-0.75-1.83-1.33-0.12-1.74c0.79-0.9,1.49-0.89,2.1,0.04
	c1.2,0.68,1.9,2.55,1.55,3.9c-0.73,2.79-4.58,3.26-6.7,1.92c-3.17-2.02-2.33-6.6-0.01-8.77c2.33-2.18,5.64-2.31,8.47-0.98
	c4.37,2.06,4.28,7.48,0.32,9.9c-5.72,3.51-11.36-1.94-10.75-7.79c-0.41,0.72-0.83,1.44-1.24,2.16c2.06-0.88,4.45-0.19,5.79,1.6
	C167.43,213.76,171.78,211.27,169.85,208.68L169.85,208.68z"/>
<path d="M140.83,234.46c-2.06,12.5,11.65,20.57,22.41,15.29c13.65-6.69,14.11-23.26,11.75-36.25c-0.57-3.16-5.39-1.82-4.82,1.33
	c1.65,9.09,2.28,19.68-4.51,26.95c-2.91,3.12-7.21,5.46-11.6,4.69c-4.92-0.86-9.25-5.53-8.41-10.67
	C146.17,232.65,141.35,231.29,140.83,234.46L140.83,234.46z"/>
<path d="M170.72,220.99c1.42,10.12,6.27,27.89,18.34,30.05c10.5,1.87,15.71-9.85,18.03-18.03c0.88-3.1-3.94-4.42-4.82-1.33
	c-1.82,6.42-6.82,19.01-15.51,12.98c-7.28-5.05-10.05-16.77-11.21-25C175.09,216.49,170.28,217.84,170.72,220.99L170.72,220.99z"/>
<path d="M89.6,122.5c-2.87-18.77,10.57-36.88,20.56-51.57c9.69-14.25,21.69-25.91,38.37-31.31c30.69-9.92,64.15,1.92,81.93,28.73
	c9.84,14.84,14.53,32.56,13.37,50.31c-0.21,3.21,4.79,3.2,5,0c2.19-33.66-16.6-68.5-48.32-81.72c-15.41-6.42-32.94-7.53-49.1-3.36
	c-17.34,4.48-31,15.03-41.6,29.24c-6.91,9.25-13.39,19.31-18.63,29.61c-5.03,9.88-8.11,20.28-6.4,31.4
	C85.26,127,90.08,125.65,89.6,122.5L89.6,122.5z"/>
<path d="M84.83,121.49c22.44,23.99,50.36,51.02,86.05,48.14c15.8-1.27,30.2-8.56,42.89-17.69c6.44-4.63,12.57-9.71,18.49-14.98
	c5.47-4.87,10.49-10.15,12.37-17.42c0.81-3.12-4.02-4.45-4.82-1.33c-1.86,7.21-7.48,12.08-12.89,16.8
	c-5.68,4.95-11.51,9.75-17.71,14.05c-12.35,8.57-26.42,15.39-41.71,15.74c-33.01,0.75-58.24-24.52-79.13-46.85
	C86.16,115.6,82.63,119.14,84.83,121.49L84.83,121.49z"/>
<path d="M139.47,118.54c-2.66-31.15,10.68-62.08,35.13-81.57c2.52-2.01-1.04-5.52-3.54-3.54c-25.35,20.2-39.34,52.81-36.59,85.1
	C134.74,121.72,139.75,121.75,139.47,118.54L139.47,118.54z"/>
<path d="M171.5,37.67c22.12,19.57,40.03,51.56,35.88,81.96c-0.43,3.15,4.39,4.51,4.82,1.33c4.4-32.26-13.53-65.92-37.17-86.82
	C172.63,32.01,169.08,35.54,171.5,37.67L171.5,37.67z"/>
<path d="M168.13,32.96c-0.45,0.99-1.47,1.14-2.37,0.58c-1.59-0.97-0.78-2.91,0.19-4.02c2.34-2.69,6.36-2.21,9.48-1.67
	c0.73,0.12,2.89,0.18,3.37,0.84c0.27,0.06,0.5,0.17,0.69,0.35c-0.55,0.48-1.14,0.91-1.77,1.28c-2.48,1.54-8.54,3.08-8.49-1.84
	c-0.41,0.72-0.83,1.44-1.24,2.16c3.89-1.79,8.13-1.81,12.04-0.04c-0.17-1.31-0.34-2.62-0.51-3.93c-1.92,1.5-3.94,1.96-6.32,1.86
	c-3.22-0.14-3.21,4.86,0,5c3.8,0.16,6.89-1.01,9.86-3.33c1.2-0.94,0.85-3.31-0.51-3.93c-5.67-2.58-11.42-2.57-17.08,0.04
	c-0.78,0.36-1.23,1.34-1.24,2.16c-0.09,9.22,10.62,9.76,16.57,5.81c2.43-1.61,4.76-3.94,3.47-7.05c-1.37-3.32-5.73-3.96-8.82-4.42
	c-6.47-0.98-16.8,1.49-15.51,10.22c0.86,5.82,9.82,8.3,12.5,2.45C173.78,32.57,169.47,30.03,168.13,32.96L168.13,32.96z"/>
<path d="M171.93,40.28c-10.06,9.44-18.69,20.16-25.81,31.97c-1.55,2.58,1.83,4.73,3.93,3.03c9.08-7.39,17.75-15.23,26.02-23.52
	c-1.18-1.18-2.36-2.36-3.54-3.54c-10.27,13.11-20.53,26.22-30.8,39.33c-1.78,2.28,0.36,5.08,3.03,3.93
	c16-6.89,20.21-26.36,34.96-34.72c-1.14-1.14-2.28-2.28-3.42-3.42c-12.32,17.32-24.64,34.64-36.96,51.96
	c-1.63,2.29,2.13,5.24,3.93,3.03C157.43,90.88,171.6,73.44,185.76,56c-1.31-1.01-2.62-2.02-3.93-3.03
	c-11.15,15.56-22.29,31.12-33.44,46.67c1.44,0.84,2.88,1.68,4.32,2.52c9.12-12.89,19.62-24.63,31.36-35.19
	c-1.31-1.01-2.62-2.02-3.93-3.03c-7.47,12.39-15.59,24.35-24.36,35.87c-1.72,2.27,2.02,5.09,3.93,3.03
	c10.05-10.85,20.1-21.7,30.15-32.54c-1.31-1.01-2.62-2.02-3.93-3.03c-7.21,15.16-16.4,29.16-27.5,41.76
	c-2.11,2.4,1.31,5.9,3.54,3.54c10.91-11.58,21.83-23.15,32.74-34.73c-1.31-1.01-2.62-2.02-3.93-3.03
	c-8.18,12.24-16.36,24.49-24.54,36.73c-1.83,2.74,2.42,5,4.32,2.52c7.77-10.14,16.65-19.32,26.44-27.52
	c-1.39-0.81-2.79-1.62-4.18-2.43c-3.53,9.35-8.54,17.94-14.95,25.61c-2.05,2.46,1.09,5.68,3.54,3.54c5.7-4.99,11.4-9.98,17.1-14.97
	c-1.31-1.01-2.62-2.02-3.93-3.03c-2.33,4.78-4.67,9.56-7,14.35c-0.99,2.03,1.2,4.99,3.42,3.42c3.23-2.29,6.46-4.57,9.69-6.86
	c-1.22-0.94-2.45-1.88-3.67-2.82c-1.1,3.96-2.65,7.55-4.77,11.07c-1.1,1.83,0.73,4.33,2.82,3.67c2.36-0.74,4.37-1.71,6.37-3.18
	c-1.22-0.5-2.45-1-3.67-1.49c0.47,1.39,0.94,2.77,1.42,4.16c0.63,1.84,3.6,2.69,4.57,0.6c2.57-5.53,5.96-12.39,5.67-18.63
	c-0.18-3.8-2.25-8.11-6.65-7.55c0.72,1.25,1.44,2.51,2.16,3.76c3.8-7.11,0.33-15.19-4.96-20.6c-4.1-4.19-11.5-5.52-13.79,1.17
	c1.64,0.22,3.27,0.44,4.91,0.66c0.63-10.15-2.81-19.69-9.59-27.25c-1.86-2.07-5.67,0.76-3.93,3.03
	c9.41,12.21,15.47,26.49,17.4,41.81c1.64-0.22,3.27-0.44,4.91-0.66c-0.28-1.79-0.56-3.58-0.84-5.37c-0.18-1.16-1.4-1.72-2.41-1.84
	c-2.88-0.32-5.21,0.97-6.85,3.36c-2.95,4.27-1.54,8.55-7.17,11.01c-4.58,2-10.27,2.72-15.11,4c-5.04,1.33-10.07,2.67-15.11,4
	c0.81,1.39,1.62,2.79,2.43,4.18c5.74-5,11.48-10,17.22-15.01c-1.18-1.18-2.36-2.36-3.54-3.54c-9.03,8.97-20.23,14.75-32.74,17.04
	c-2.03,0.37-2.18,2.87-1.1,4.18c5.14,6.24,14.02,3.11,20.55,1.34c10.98-2.98,21.95-5.95,32.93-8.93c-0.64-1.52-1.28-3.05-1.93-4.57
	c-7.26,4.48-14.98,7.62-23.31,9.48c0.44,1.61,0.89,3.21,1.33,4.82c7.8-2.19,15.61-4.39,23.41-6.58c-1.03-1.03-2.05-2.05-3.08-3.08
	c-2.79,7.03-16.44,3.91-21.76,2.66c-4.15-0.97-8.59-2.6-11.11-6.27c-2.39-3.47-2.95-8.23,0.19-11.38c-1.39-0.81-2.79-1.62-4.18-2.43
	c-1.01,3.69-2.01,7.37-3.02,11.06c-0.46,1.68,0.81,3.02,2.41,3.16c4.81,0.42,9.18-0.72,13.18-3.42c2.64-1.78,0.25-6.01-2.52-4.32
	c-2.89,1.77-6.26,3.86-9.64,4.49c-2.63,0.49-5.25,0.04-4.77-3.11c0.22-1.46,0.58-2.9,0.87-4.34c1.11-5.38,2.34-10.74,3.91-16.01
	c3.42-11.4,8.7-23,18.41-30.39c1.68-1.28,4.94-3.06,7.14-2.3c1.29,0.45,2.6,2.6,3.46,3.69c2.25,2.82,4.29,5.81,6.18,8.89
	c3.46,5.64,6.34,11.63,8.55,17.86c4.43,12.49,6.18,25.63,5.32,38.84c-0.19,2.94,4.04,3.21,4.91,0.66c1.94-5.68,3-11.45,3.27-17.43
	c-1.64,0.22-3.27,0.44-4.91,0.66c0.77,3.93,0.77,7.61,0.01,11.53c-0.61,3.14,4.21,4.49,4.82,1.33c0.93-4.8,0.93-9.4-0.01-14.19
	c-0.56-2.87-4.79-2.04-4.91,0.66c-0.25,5.55-1.29,10.85-3.09,16.11c1.64,0.22,3.27,0.44,4.91,0.66c0.88-13.61-0.94-27.31-5.5-40.17
	c-2.26-6.38-5.14-12.56-8.63-18.36c-2.91-4.84-6.55-11.45-11.32-14.67c-9.5-6.41-20.94,8.87-25.17,15.81
	c-6.41,10.54-9.54,22.78-12.03,34.74c-0.96,4.61-3.51,12.25,2.3,14.76c5.51,2.38,13.85-2.63,18.42-5.43
	c-0.84-1.44-1.68-2.88-2.52-4.32c-3.33,2.25-6.66,3.09-10.66,2.74c0.8,1.05,1.61,2.11,2.41,3.16c1.01-3.69,2.01-7.37,3.02-11.06
	c0.66-2.4-2.41-4.21-4.18-2.43c-3.95,3.97-4.51,9.56-2.42,14.64c2.26,5.49,7.13,8.76,12.63,10.57c9.08,2.97,26.33,5.99,30.84-5.35
	c0.72-1.82-1.39-3.55-3.08-3.08c-7.8,2.19-15.61,4.39-23.41,6.58c-3.11,0.87-1.8,5.52,1.33,4.82c8.72-1.95,16.9-5.29,24.51-9.98
	c2.39-1.47,0.86-5.32-1.93-4.57c-8.47,2.3-16.93,4.59-25.4,6.89c-5.65,1.53-18.57,7.63-23.21,1.99c-0.37,1.39-0.74,2.79-1.1,4.18
	c13.31-2.43,25.35-8.79,34.95-18.32c2.31-2.29-1.13-5.63-3.54-3.54c-5.74,5-11.48,10-17.22,15.01c-1.95,1.7,0.13,4.79,2.43,4.18
	c9.44-2.5,18.89-4.97,28.33-7.51c2.95-0.79,5.98-1.43,8-3.9c1.88-2.31,2.59-11.24,6.59-10.8c-0.8-0.61-1.61-1.22-2.41-1.84
	c0.28,1.79,0.56,3.58,0.84,5.37c0.43,2.75,5.26,2.14,4.91-0.66c-2.04-16.22-8.08-31.36-18.08-44.33c-1.31,1.01-2.62,2.02-3.93,3.03
	c5.94,6.62,8.67,14.86,8.12,23.71c-0.18,2.94,4.04,3.21,4.91,0.66c1.47-4.28,7.46,3.45,8.23,4.68c2.07,3.34,3.36,7.2,1.38,10.89
	c-0.79,1.49,0.16,4.01,2.16,3.76c4.71-0.59-2.81,17.51-3.34,18.66c1.52,0.2,3.05,0.4,4.57,0.6c-0.47-1.39-0.94-2.77-1.42-4.16
	c-0.47-1.38-2.29-2.51-3.67-1.49c-1.73,1.27-3.06,2.01-5.18,2.67c0.94,1.22,1.88,2.45,2.82,3.67c2.34-3.86,4.07-7.91,5.28-12.26
	c0.54-1.97-1.83-4.12-3.67-2.82c-3.23,2.29-6.46,4.57-9.69,6.86c1.14,1.14,2.28,2.28,3.42,3.42c2.33-4.78,4.67-9.56,7-14.35
	c1.25-2.56-1.75-4.94-3.93-3.03c-5.7,4.99-11.4,9.98-17.1,14.97c1.18,1.18,2.36,2.36,3.54,3.54c6.99-8.37,12.38-17.62,16.23-27.82
	c0.97-2.56-2.47-3.86-4.18-2.43c-10.14,8.5-19.18,18.04-27.22,28.54c1.44,0.84,2.88,1.68,4.32,2.52
	c8.18-12.24,16.36-24.49,24.54-36.73c1.58-2.37-1.99-5.08-3.93-3.03c-10.91,11.58-21.83,23.15-32.74,34.73
	c1.18,1.18,2.36,2.36,3.54,3.54c11.38-12.91,20.88-27.22,28.28-42.77c1.15-2.42-1.87-5.25-3.93-3.03
	c-10.05,10.85-20.1,21.7-30.15,32.54c1.31,1.01,2.62,2.02,3.93,3.03c8.77-11.51,16.89-23.47,24.36-35.87
	c1.51-2.51-1.86-4.89-3.93-3.03c-12.06,10.85-22.78,22.97-32.14,36.21c-1.87,2.64,2.46,5.12,4.32,2.52
	c11.15-15.56,22.29-31.12,33.44-46.67c1.64-2.29-2.13-5.24-3.93-3.03c-14.16,17.44-28.33,34.88-42.49,52.33
	c1.31,1.01,2.62,2.02,3.93,3.03c12.32-17.32,24.64-34.64,36.96-51.96c1.51-2.13-1.38-4.58-3.42-3.42
	c-14.77,8.38-19.2,27.94-34.96,34.72c1.01,1.31,2.02,2.62,3.03,3.93c10.27-13.11,20.53-26.22,30.8-39.33
	c1.93-2.46-1.2-5.88-3.54-3.54c-8.27,8.29-16.94,16.13-26.02,23.52c1.31,1.01,2.62,2.02,3.93,3.03c6.9-11.47,15.27-21.8,25.02-30.96
	C177.82,41.61,174.28,38.07,171.93,40.28L171.93,40.28z"/>
<path d="M271.57,127.26c5.11-8.87,10.22-17.75,15.34-26.62c-1.44,0-2.88,0-4.32,0c4.01,8.04,6.96,16.39,8.95,25.14
	c0.8-1.05,1.61-2.11,2.41-3.16c-6.79,0.33-13.5,0.03-20.22-1.03c0.5,1.22,1,2.45,1.49,3.67c2.94-6.11,5.88-12.23,8.82-18.34
	c-1.55-0.42-3.11-0.84-4.66-1.26c-0.71,5.34-1.42,10.68-2.13,16.03c-0.31,2.32,2.84,3.06,4.27,1.77c3.98-3.63,6.05-8.08,6.58-13.42
	c0.27-2.78-4.47-3.45-4.91-0.66c-0.47,2.94-0.94,5.89-1.41,8.83c1.61,0,3.21,0,4.82,0c-0.03-0.25-0.07-0.51-0.1-0.76
	c-0.21,0.81-0.43,1.62-0.64,2.43c-2.12,2.18,0.13,5.26,2.28,6.37c2.35,1.22,4.42-1.18,3.42-3.42c-2.69-6.04-5.38-12.08-8.08-18.13
	c-1.09-2.44-4.54-0.98-4.66,1.26c-0.4,7.57,1.51,14.68,5.64,21.03c0.5-1.22,1-2.45,1.49-3.67c-0.67-0.27-1.33-0.54-2-0.81
	c-0.8,1.05-1.61,2.11-2.41,3.16c1.83-0.08,3.67-0.17,5.5-0.25c3.2-0.15,3.22-5.15,0-5c-1.83,0.08-3.67,0.17-5.5,0.25
	c-1.49,0.07-3,1.56-2.41,3.16c1.31,3.55,4.4,5.39,8.15,4.3c1.49-0.43,2.39-2.29,1.49-3.67c-3.69-5.67-5.32-11.76-4.96-18.51
	c-1.55,0.42-3.11,0.84-4.66,1.26c2.69,6.04,5.38,12.08,8.08,18.13c1.14-1.14,2.28-2.28,3.42-3.42c-0.99-0.51-1.16-4.59-2.06-5.63
	c-0.76-0.88-1.8-1.52-3.02-1.54c-2.87-0.04-4.13,2.3-3.79,4.77c0.33,2.41,4.44,2.36,4.82,0c0.47-2.94,0.94-5.89,1.41-8.83
	c-1.64-0.22-3.27-0.44-4.91-0.66c-0.4,4.02-2.14,7.18-5.11,9.88c1.42,0.59,2.85,1.18,4.27,1.77c0.71-5.34,1.42-10.68,2.13-16.03
	c0.33-2.46-3.63-3.41-4.66-1.26c-2.94,6.11-5.88,12.23-8.82,18.34c-0.62,1.29-0.23,3.4,1.49,3.67c7.16,1.13,14.3,1.56,21.55,1.21
	c1.67-0.08,2.78-1.53,2.41-3.16c-2.09-9.17-5.26-17.93-9.46-26.34c-0.85-1.7-3.43-1.55-4.32,0c-5.11,8.87-10.22,17.75-15.33,26.62
	C265.64,127.53,269.96,130.05,271.57,127.26L271.57,127.26z"/>
<path d="M53.55,123.63c0.91-6.5,1.82-13,2.73-19.5c-1.22,0.5-2.45,1-3.67,1.49c3.26,2.32,7.03,4.87,8.52,8.77
	c0.87,2.26,1.13,4.94-0.58,6.87c-1.29,1.46-3.67,2.02-5.25,0.64c-0.17,1.31-0.34,2.62-0.51,3.93c5.55-3.74,8.06-10.04,6.51-16.57
	c-0.64-2.71-5.04-2.17-4.91,0.66c0.16,3.39,1.05,6.43,2.81,9.34c1.18,1.93,5,1.34,4.66-1.26c-0.52-3.97-2.07-7.21-5.26-9.73
	c-1.48-1.17-4.51-0.64-4.27,1.77c0.27,2.69,1.13,4.74,3.19,6.55c1.99,1.75,5.69-0.59,3.93-3.03c-0.78-1.09-1.57-2.17-2.35-3.26
	c-1.4-1.94-4.6-1.37-4.66,1.26c-0.07,3.5-0.15,7-0.22,10.5c1.64-0.22,3.27-0.44,4.91-0.66c-0.5-1.17-0.15-2.06,1.07-2.69
	c2.98-1.13,1.69-5.96-1.33-4.82c-3.72,1.4-5.79,4.9-4.57,8.84c0.83,2.68,4.85,2.2,4.91-0.66c0.07-3.5,0.15-7,0.22-10.5
	c-1.55,0.42-3.11,0.84-4.66,1.26c0.78,1.09,1.57,2.17,2.35,3.26c1.31-1.01,2.62-2.02,3.93-3.03c-1.04-0.68-1.61-1.69-1.73-3.01
	c-1.42,0.59-2.85,1.18-4.27,1.77c2.04,1.61,3.45,3.55,3.8,6.2c1.55-0.42,3.11-0.84,4.66-1.26c-1.32-2.17-2.01-4.28-2.13-6.81
	c-1.64,0.22-3.27,0.44-4.91,0.66c1.01,4.24-0.59,8.48-4.22,10.92c-1.25,0.84-1.79,2.8-0.51,3.93c5,4.39,12.77,1.76,14.62-4.55
	c2.55-8.7-4.98-15.13-11.24-19.58c-1.21-0.86-3.46-0.04-3.67,1.49c-0.91,6.5-1.82,13-2.73,19.5
	C48.29,125.45,53.11,126.81,53.55,123.63L53.55,123.63z"/>
<path d="M257.55,223.48c9.95-0.05,19.25,4.42,25.2,12.45c1.89,2.56,6.24,0.07,4.32-2.52c-7.03-9.48-17.67-14.99-29.52-14.93
	C254.34,218.49,254.33,223.49,257.55,223.48L257.55,223.48z"/>
<path d="M250.41,243.19c7.26,3.47,13.47,8.31,18.62,14.49c2.06,2.48,5.58-1.08,3.54-3.54c-5.39-6.47-12.03-11.64-19.63-15.27
	C250.05,237.49,247.51,241.8,250.41,243.19L250.41,243.19z"/>
<path d="M246.84,259.92c2.92,4.94,5.83,9.89,8.75,14.83c1.63,2.77,5.96,0.26,4.32-2.52c-2.92-4.94-5.83-9.89-8.75-14.83
	C249.53,254.63,245.2,257.14,246.84,259.92L246.84,259.92z"/>
<path d="M89.13,215.17c-13.6,1.14-26.01,7.07-35.28,17.13c-2.18,2.36,1.35,5.91,3.54,3.54c8.34-9.05,19.45-14.63,31.74-15.66
	C92.31,219.91,92.34,214.9,89.13,215.17L89.13,215.17z"/>
<path d="M73.15,257.69c5.23-9.19,12.44-16.74,21.41-22.36c2.72-1.7,0.21-6.03-2.52-4.32c-9.67,6.05-17.56,14.23-23.2,24.15
	C67.24,257.97,71.56,260.49,73.15,257.69L73.15,257.69z"/>
<path d="M88.67,268.37c2.57-6.28,6.38-11.83,11.21-16.58c2.3-2.26-1.24-5.8-3.54-3.54c-5.47,5.39-9.59,11.68-12.49,18.79
	C82.63,270.02,87.47,271.31,88.67,268.37L88.67,268.37z"/>
<path class="st0" d="M172.07,97.76c-2.82-2.9-4.91-6.11-6.15-9.99c-0.49-1.53-2.52-9.15-0.33-9.41c1.3-0.15,1.78,4.04,2.92,5.43
	c1.14,1.38,2.81,2.25,4.64,2.16c1.91-0.1,3.48-1.31,4.67-2.71c0.8-0.95,3.35-7.29,4.84-4.95c0.87,1.37-3.34,8.15-4.11,9.43
	c-2.05,3.45-4.58,6.44-7.47,9.2c1.39,0.37,2.79,0.74,4.18,1.1c-0.73-4.61-2.09-8.93-3.99-13.19c-0.61-1.37-2.99-1.69-3.93-0.51
	c-2.43,3.07-2.44,6.4,0.03,9.46c0.79,0.97,2.76,0.98,3.54,0c2.06-2.59,2.72-5.06,2.04-8.31c-0.36-1.74-3.01-2.54-4.18-1.1
	c-3.49,4.28-3.48,9.57,0.24,13.72c0.94,1.05,2.56,0.85,3.54,0c3.63-3.18,6.07-6.92,7.71-11.45c-1.61,0-3.21,0-4.82,0
	c0.79,2.02,0.93,3.52,0.31,5.66c-0.9,3.1,3.93,4.42,4.82,1.33c0.85-2.92,0.8-5.47-0.31-8.31c-0.9-2.32-3.95-2.41-4.82,0
	c-1.34,3.72-3.45,6.64-6.42,9.24c1.18,0,2.36,0,3.54,0c-1.72-1.92-1.89-4.61-0.24-6.65c-1.39-0.37-2.79-0.74-4.18-1.1
	c-0.25,1.15-0.51,2.3-0.76,3.45c1.18,0,2.36,0,3.54,0c-0.68-0.79-0.69-1.58-0.03-2.39c-1.31-0.17-2.62-0.34-3.93-0.51
	c1.73,3.87,2.82,7.81,3.48,11.99c0.31,1.95,2.94,2.28,4.18,1.1c3.75-3.59,6.98-7.66,9.39-12.27c1.82-3.48,4.48-8.41,3.87-12.46
	c-0.45-2.97-2.86-5.21-5.99-4.62c-1.64,0.31-3.13,1.49-4.22,2.7c-1.59,1.76-1.99,5.26-4.46,5.33c-2.43,0.06-1.83-2.6-2.91-4.57
	c-0.71-1.29-1.76-2.55-3.12-3.17c-3.05-1.39-5.93,0.63-6.87,3.59c-2.88,9.03,2.04,19.93,8.23,26.3
	C170.78,103.6,174.32,100.07,172.07,97.76L172.07,97.76z"/>
</svg>
