<?xml version="1.0" encoding="utf-8"?>
<!-- Generator: Adobe Illustrator 24.0.0, SVG Export Plug-In . SVG Version: 6.00 Build 0)  -->
<svg version="1.1" id="Capa_1" xmlns="http://www.w3.org/2000/svg" xmlns:xlink="http://www.w3.org/1999/xlink" x="0px" y="0px"
	 viewBox="0 0 350 350" style="enable-background:new 0 0 350 350;" xml:space="preserve">
<style type="text/css">
	.st0{fill:#FFFFFF;}
</style>
<g>
	<g>
		<path d="M243.16,303.45c-8.76,2.79-18.25,4.75-28.44,5.85c-60.32,6.52-134.49-1.74-166.98-59.73c-5.29-9.45-7.57-20.27-9.11-30.99
			c-9.17-63.86,6.14-130.94,42.12-184.49c6.96,12.28,13.93,24.57,20.89,36.85c2.15,3.78,4.48,7.76,8.31,9.82
			c2.92,1.57,6.35,1.81,9.66,2.03c38.05,2.45,76.1,4.9,114.16,7.35c4.6,0.3,9.59,0.49,13.38-2.12c2.76-1.9,4.41-4.99,5.96-7.96
			c5.26-10.08,10.53-20.15,15.79-30.23c35.61,45.48,52.23,105.38,45.14,162.71C308.19,260.05,283.38,290.62,243.16,303.45z"/>
	</g>
	<path class="st0" d="M240.73,153.05c-2.45,6.23,0.97,12.84,6.92,15.34c0.79,0.33,1.87-0.07,2.43-0.64
		c3.83-3.89,6.97-8.98,5.68-14.65c-1.12-4.97-5.71-8.7-10.89-7.47c-4.69,1.11-8.2,5.61-8.07,10.43c0.14,5.7,4.56,9.97,9.56,11.94
		c0.81,0.32,1.85-0.06,2.43-0.64c4.74-4.73,4.73-12.48-0.06-17.18c-1.29-1.26-3.76-0.78-4.18,1.1c-0.71,3.23-0.67,6.32,0.22,9.51
		c0.86,3.1,5.68,1.78,4.82-1.33c-0.65-2.35-0.74-4.49-0.22-6.86c-1.39,0.37-2.79,0.74-4.18,1.1c2.86,2.8,2.9,7.28,0.06,10.11
		c0.81-0.21,1.62-0.43,2.43-0.64c-2.9-1.14-5.75-3.8-5.88-7.12c-0.1-2.62,1.85-5.19,4.49-5.6c3.23-0.5,4.92,2.91,4.79,5.7
		c-0.15,3.2-2.39,5.89-4.53,8.06c0.81-0.21,1.62-0.43,2.43-0.64c-3.63-1.52-4.77-5.77-3.42-9.19
		C246.73,151.38,241.9,150.08,240.73,153.05L240.73,153.05z"/>
	<path class="st0" d="M104.39,140.43c-7.93,2.73-3.76,14.78,4.04,13.82c8.62-1.07,13.17-15.18,5.28-20.12
		c-8.82-5.53-17.56,9.98-13.41,17.14c5.37,9.26,17.95,0.86,15.87-8.11c-1.06-4.56-6.23-6.79-10.14-3.96
		c-4.69,3.38-2.63,9.66,2.18,11.52c3,1.16,4.3-3.67,1.33-4.82c-3.13-1.21,0.12-4.03,1.46-2.42c0.46,0.55,0.45,1.5,0.4,2.18
		c-0.15,1.97-1.65,4.2-3.68,4.62c-3.37,0.69-4.03-3.46-3.36-5.74c0.63-2.13,2.48-5.23,4.61-6.08c5.17-2.06,3.66,6.82,1.9,8.92
		c-1.16,1.39-3.37,2.85-4.96,1.28c-0.64-0.64-1.46-2.96-0.19-3.4C108.74,144.21,107.44,139.38,104.39,140.43L104.39,140.43z"/>
	<path class="st0" d="M168.1,196.97c-0.42,1.4-0.84,2.8-1.26,4.21c-0.25,0.84,0.01,1.83,0.64,2.43c1.07,1.03,2.13,2.05,3.2,3.08
		c0.59,0.57,1.61,0.96,2.43,0.64c4.26-1.67,7.68-4.39,10.17-8.25c0.66-1.02,0.28-2.16-0.39-3.03c-2.94-3.8-9.26-3.85-12.29-0.13
		c-3.08,3.78-1.45,9.93,2.87,12.01c4.99,2.4,9.44-6.35,5.63-9.94c-4.12-3.88-9.73,2.94-5.09,6.21c2.63,1.86,5.14-2.47,2.52-4.32
		c1.05,1.35,0.77,1.99-0.85,1.9c-0.03,0.26-0.14,0.48-0.32,0.66c-0.61,0.61-1.18,1.2-1.86,1.75c0.81-0.21,1.62-0.43,2.43-0.64
		c-1.65-0.58-2.63-3.09-1.43-4.52c1.35-1.62,3.78-0.83,4.86,0.57c-0.13-1.01-0.26-2.02-0.39-3.03c-1.73,2.69-4.19,4.78-7.18,5.95
		c0.81,0.21,1.62,0.43,2.43,0.64c-1.07-1.03-2.13-2.05-3.2-3.08c0.21,0.81,0.43,1.62,0.64,2.43c0.42-1.4,0.84-2.8,1.26-4.21
		C173.85,195.21,169.02,193.89,168.1,196.97L168.1,196.97z"/>
	<path class="st0" d="M135.3,230.45c6.13,8.01,16.97,8.81,25.65,4.42c11.25-5.68,15.58-19.07,19.05-30.25
		c-1.61-0.44-3.21-0.89-4.82-1.33c-3.32,12.67-1.72,28.42,9.44,36.91c9.29,7.06,24.11,7.01,31.66-2.56c1.97-2.5-1.54-6.06-3.54-3.54
		c-6.29,7.99-18.61,7.81-26.04,1.38c-8.66-7.49-9.4-20.52-6.69-30.86c0.82-3.12-3.87-4.4-4.82-1.33c-2.74,8.8-5.7,18.77-13.09,24.89
		c-6.1,5.04-17.12,6.74-22.48-0.26C137.69,225.41,133.35,227.9,135.3,230.45L135.3,230.45z"/>
	<path class="st0" d="M246.29,207.79c8.98-2.07,17.97-4.13,26.95-6.2c3.13-0.72,1.81-5.54-1.33-4.82
		c-8.98,2.07-17.97,4.13-26.95,6.2C241.82,203.69,243.15,208.51,246.29,207.79L246.29,207.79z"/>
	<path class="st0" d="M252.24,225.6c7.01-1.45,14.02-2.89,21.03-4.34c3.15-0.65,1.82-5.47-1.33-4.82
		c-7.01,1.45-14.02,2.89-21.03,4.34C247.76,221.43,249.1,226.25,252.24,225.6L252.24,225.6z"/>
	<path class="st0" d="M105.2,193.85c-8.71-3.58-17.65-6.19-26.91-7.87c-3.15-0.57-4.5,4.25-1.33,4.82
		c9.26,1.68,18.2,4.29,26.91,7.87C106.85,199.89,108.14,195.06,105.2,193.85L105.2,193.85z"/>
	<path class="st0" d="M68.58,222.59c10.29,0.69,20.49,0.17,30.67-1.44c3.17-0.5,1.82-5.32-1.33-4.82
		c-9.74,1.54-19.51,1.92-29.34,1.26C65.37,217.38,65.39,222.38,68.58,222.59L68.58,222.59z"/>
</g>
</svg>
