<?xml version="1.0" encoding="utf-8"?>
<!-- Generator: Adobe Illustrator 24.0.0, SVG Export Plug-In . SVG Version: 6.00 Build 0)  -->
<svg version="1.1" id="Capa_1" xmlns="http://www.w3.org/2000/svg" xmlns:xlink="http://www.w3.org/1999/xlink" x="0px" y="0px"
	 viewBox="0 0 350 350" style="enable-background:new 0 0 350 350;" xml:space="preserve">
<style type="text/css">
	.st0{fill:#FFFFFF;}
	.st1{fill:#F4E600;}
</style>
<g>
	<path d="M53.82,243.75c-33.75-30.34-50.6-73.54-26.05-125.04c1.9-3.98,27.02-35.9,27.3-35.15c-6.3-16.72-10.85-34.1-13.55-51.76
		c20.97,2.6,36.59,21.82,57.3,26.02c8.69,1.76,17.68,0.74,26.52-0.01c34.55-2.92,69.47-1.47,103.66,4.3
		c9.81,1.66,19.64,3.68,29.59,3.52c23.71-0.37,45.31-12.88,65.68-25.03c-0.78,16.96-7.39,33.61-18.44,46.49
		c3.53-4.08,31.44,67.71,31.44,77.75C337.32,304.81,136.52,318.1,53.82,243.75z"/>
</g>
<path class="st0" d="M245.46,128.39c13.1-0.72,26.17-0.37,39.21,1.06c-0.8-0.61-1.61-1.22-2.41-1.84
	c3.83,11.19-3.3,23.49-15.55,24.07c-13.24,0.63-19.52-11.68-21-23.08c-0.41-3.15-5.41-3.19-5,0c1.9,14.61,10.57,29.7,27.44,27.98
	c14.65-1.5,23.64-16.52,18.93-30.29c-0.39-1.15-1.25-1.71-2.41-1.84c-13.04-1.43-26.12-1.78-39.21-1.06
	C242.26,123.56,242.23,128.57,245.46,128.39L245.46,128.39z"/>
<path class="st0" d="M83.48,127.77c12.59,0.74,25.19,1.47,37.78,2.21c-0.83-0.83-1.67-1.67-2.5-2.5
	c-0.59,11.52-9.82,22.87-21.91,23.16c-11.5,0.28-21.8-11.31-19.55-22.67c0.62-3.14-4.2-4.49-4.82-1.33
	c-2.79,14.1,8.65,28.3,23.03,28.98c15.44,0.73,27.51-13.58,28.25-28.14c0.07-1.41-1.21-2.42-2.5-2.5
	c-12.59-0.74-25.19-1.47-37.78-2.21C80.27,122.58,80.28,127.58,83.48,127.77L83.48,127.77z"/>
<path class="st0" d="M72.33,127.83c4.48,0.64,8.96,1.28,13.44,1.92c3.15,0.45,4.51-4.37,1.33-4.82c-4.48-0.64-8.96-1.28-13.44-1.92
	C70.52,122.55,69.16,127.37,72.33,127.83L72.33,127.83z"/>
<path class="st0" d="M88.49,127.01c-6,4.21-3.57,13.48,3.37,15.06c9.02,2.04,14.44-6.86,16.21-14.27c0.41-1.72-0.78-2.97-2.41-3.16
	c-4.73-0.55-11.45-0.41-13.15,5.14c-1.21,3.95,0.93,8.62,5.39,8.69c2.19,0.04,3.27-2.75,1.77-4.27c-2.34-2.37-5.81-1.83-7.63,0.84
	c-1.82,2.67,2.51,5.17,4.32,2.52c-0.08,0.06-0.15,0.11-0.23,0.17c0.59-1.42,1.18-2.85,1.77-4.27c-1.82-0.03-0.13-3.05,0.65-3.47
	c2.07-1.13,4.88-0.63,7.12-0.37c-0.8-1.05-1.61-2.11-2.41-3.16c-0.97,4.07-2.65,9.09-7.1,10.48c-1.74,0.55-4.03,0.58-5.3-0.95
	c-1.03-1.24-1.28-3.66,0.17-4.67C93.63,129.49,91.14,125.15,88.49,127.01L88.49,127.01z"/>
<path class="st0" d="M257.44,127.3c-5.91,5.03-1.59,14.56,5.59,15.12c9.23,0.72,13.79-8.67,13.16-16.62c-1.67,0-3.33,0-5,0
	c0.27,3.2-1.24,6.34-4.35,7.57c1.03,0.58,2.05,1.16,3.08,1.75c-0.7-2.22-1.39-4.44-2.09-6.66c-0.41-1.3-1.73-2.1-3.08-1.75
	c-4.36,1.15-5.52,6.17-2.9,9.52c1.99,2.53,5.5-1.03,3.54-3.54c-0.38-0.49,0.36-1.07,0.69-1.16c-1.03-0.58-2.05-1.16-3.08-1.75
	c0.7,2.22,1.39,4.44,2.09,6.66c0.37,1.18,1.78,2.26,3.08,1.75c5.09-2.01,8.49-6.8,8.02-12.39c-0.27-3.18-5.25-3.22-5,0
	c0.35,4.46-0.72,10.15-5.76,11.45c-3.8,0.98-8.13-3.29-4.46-6.42C263.43,128.74,259.88,125.22,257.44,127.3L257.44,127.3z"/>
<path class="st0" d="M177.05,162.17c-3.67-2.21-8.63-1-10.74,2.87c-2.51,4.61,0.49,10.2,4.88,12.3c9.52,4.55,23.32-5.48,17.22-15.82
	c-5.37-9.1-18.97-3.87-17.63,6.37c1.27,9.75,15.13,9.17,18.05,0.85c0.28-0.81-0.03-1.86-0.64-2.43c-4.65-4.35-12.63-2.22-14.03,4.16
	c-0.29,1.31,0.38,2.71,1.75,3.08c4.63,1.23,7.66-4.2,4.61-7.68c-1.39-1.59-4.41-0.36-4.27,1.77c1.09,16.38,2.89,32.92,2.23,49.35
	c-0.48,11.88-3.31,26.03-15.07,31.68c1.01,1.31,2.02,2.62,3.03,3.93c5.75-5.3,11.5-10.61,17.25-15.91c-1.39-0.37-2.79-0.74-4.18-1.1
	c1.81,6.53,5.32,12.06,10.58,16.36c2.47,2.02,6.03-1.5,3.54-3.54c-4.61-3.77-7.7-8.39-9.3-14.15c-0.52-1.87-2.81-2.36-4.18-1.1
	c-5.75,5.3-11.5,10.61-17.25,15.91c-2.2,2.03,0.59,5.1,3.03,3.93c11.55-5.55,15.82-18.38,17.14-30.31c2-18.12-0.62-36.94-1.82-55.04
	c-1.42,0.59-2.85,1.18-4.27,1.77c0.09-0.22,0.17-0.45,0.26-0.67c0.58,1.03,1.16,2.05,1.75,3.08c0.56-2.56,3.58-3.93,5.68-1.96
	c-0.21-0.81-0.43-1.62-0.64-2.43c-0.95,2.71-5.39,3.99-7.46,1.67c-3.33-3.72,2.59-9.64,6.4-6.39c3.76,3.2,1.71,7.5-2.06,9.45
	c-2.44,1.26-4.59,1.53-7.15,0.48c-2.03-0.35-3.15-1.67-3.35-3.94c0.73-2.48,2.11-3.21,4.13-2.18
	C177.29,168.16,179.8,163.83,177.05,162.17L177.05,162.17z"/>
<path class="st0" d="M148.54,72.31c5.72-1.23,11.39-1.48,17.2-0.88c-0.83-0.83-1.67-1.67-2.5-2.5c0.38,5.11,0.32,10.22-0.46,15.29
	c-0.33,2.16-0.55,4.96-1.48,6.96c-0.14,2.01-1.36,3.18-3.65,3.51c-0.74-0.83-1.36-1.74-1.85-2.74c-2.43-4.06-5.6-9.19-7.06-13.69
	c-1.06-3.28-0.75-2.73,2.72-1.61c2.09,0.67,3.28,1.2,5.47,0.97c-0.83-0.83-1.67-1.67-2.5-2.5c-0.32,5.41-0.64,10.81-0.96,16.22
	c-0.14,2.42,3.59,3.49,4.66,1.26c2.78-5.78,3.61-11.55,2.69-17.89c-0.41-2.81-4.97-2.1-4.91,0.66c0.12,5.32-0.54,10.4-2.01,15.52
	c-0.76,2.64,3.43,4.58,4.57,1.93c2.53-5.88,3.85-11.81,3.9-18.22c0.02-1.83-2.16-3.21-3.76-2.16c-4.08,2.66-8.16,5.33-12.24,7.99
	c1.01,1.31,2.02,2.62,3.03,3.93c4.11-3.4,8.63-5.7,13.76-7.13c-1.03-1.03-2.05-2.05-3.08-3.08c-0.87,5.46-1.75,10.92-2.62,16.38
	c-0.5,3.15,4.31,4.5,4.82,1.33c0.87-5.46,1.74-10.92,2.62-16.38c0.29-1.81-1.08-3.63-3.08-3.08c-5.97,1.67-11.19,4.46-15.97,8.42
	c-2.18,1.81,0.66,5.47,3.03,3.93c4.08-2.66,8.16-5.33,12.24-7.99c-1.25-0.72-2.51-1.44-3.76-2.16c-0.05,5.48-1.05,10.65-3.22,15.69
	c1.52,0.64,3.05,1.28,4.57,1.93c1.59-5.53,2.31-11.09,2.19-16.85c-1.64,0.22-3.27,0.44-4.91,0.66c0.71,4.91-0.04,9.57-2.19,14.03
	c1.55,0.42,3.11,0.84,4.66,1.26c0.32-5.41,0.64-10.81,0.96-16.22c0.07-1.25-1.21-2.64-2.5-2.5c-3.74,0.39-13.87-5.61-14.45,2.68
	c-0.25,3.56,3.05,7.64,4.58,10.61c1.91,3.71,3.52,8.05,6.19,11.3c3.86,4.69,9.57,4.14,11.91-1.65c3.29-8.13,3.7-18.01,3.06-26.63
	c-0.11-1.46-1.07-2.35-2.5-2.5c-6.27-0.65-12.37-0.26-18.53,1.06C144.06,68.17,145.4,72.99,148.54,72.31L148.54,72.31z"/>
<path class="st0" d="M185.73,70.95c-2.99,8.39-7.86,33.21,5.97,35.4c15.01,2.37,16.35-22.14,18.35-31.43
	c0.29-1.36-0.4-2.65-1.75-3.08c-6.2-1.96-12.48-1.78-18.53,0.65c-2.34,0.94-2.39,3.9,0,4.82c3.21,1.24,6.33,1.82,9.76,1.91
	c-0.72-1.25-1.44-2.51-2.16-3.76c-5.46,7.54-9.43,15.85-11.93,24.82c-0.53,1.91,1.86,4.21,3.67,2.82
	c7.63-5.84,11.76-14.77,10.54-24.41c-0.24-1.95-2.66-3.55-4.27-1.77c-4.92,5.46-6.55,12.71-4.11,19.69
	c0.48,1.37,2.28,2.51,3.67,1.49c6.52-4.76,9.44-12.46,7.37-20.33c-0.37-1.41-1.75-1.96-3.08-1.75c-7.27,1.18-12.42,7.87-11.78,15.19
	c0.28,3.18,5.28,3.21,5,0c-0.46-5.3,2.9-9.53,8.11-10.37c-1.03-0.58-2.05-1.16-3.08-1.75c1.45,5.54-0.4,11.27-5.07,14.69
	c1.22,0.5,2.45,1,3.67,1.49c-1.84-5.27-0.94-10.64,2.82-14.82c-1.42-0.59-2.85-1.18-4.27-1.77c0.97,7.76-1.77,15.27-8.07,20.09
	c1.22,0.94,2.45,1.88,3.67,2.82c2.39-8.59,6.2-16.4,11.43-23.62c1.17-1.61-0.42-3.72-2.16-3.76c-3-0.08-5.65-0.66-8.43-1.73
	c0,1.61,0,3.21,0,4.82c5.27-2.11,10.46-2.36,15.87-0.65c-0.58-1.03-1.16-2.05-1.75-3.08c-1.12,5.19-2.2,10.39-3.36,15.57
	c-0.97,4.32-2.24,11.44-7.71,12.22c-10.98,1.55-5.37-24.16-3.61-29.09C191.64,69.25,186.81,67.94,185.73,70.95L185.73,70.95z"/>
<path class="st1" d="M282.11,195.65c20.56-4.4,41.35-7.44,62.31-9.11c3.19-0.25,3.21-5.26,0-5c-21.4,1.7-42.65,4.8-63.64,9.29
	C277.64,191.5,278.97,196.32,282.11,195.65L282.11,195.65z"/>
<path class="st1" d="M282.15,215.4c16.6-2.68,33.41-1.71,49.63,2.72c3.11,0.85,4.43-3.97,1.33-4.82
	c-17.13-4.68-34.77-5.55-52.29-2.72C277.66,211.09,279,215.91,282.15,215.4L282.15,215.4z"/>
<path class="st1" d="M279.32,235.98c9.47,2.62,18.93,5.23,28.4,7.85c3.11,0.86,4.43-3.96,1.33-4.82c-9.47-2.62-18.93-5.23-28.4-7.85
	C277.54,230.3,276.22,235.13,279.32,235.98L279.32,235.98z"/>
<path class="st1" d="M7.3,200.79c17.72-6.56,36.3-9.52,55.18-8.74c3.22,0.13,3.21-4.87,0-5c-19.28-0.79-38.41,2.22-56.51,8.92
	C2.98,197.07,4.28,201.91,7.3,200.79L7.3,200.79z"/>
<path class="st1" d="M16.05,224.39c13.04-8.35,27.31-14.1,42.5-17.13c3.15-0.63,1.82-5.45-1.33-4.82
	c-15.58,3.11-30.32,9.06-43.69,17.63C10.83,221.81,13.33,226.14,16.05,224.39L16.05,224.39z"/>
<path class="st1" d="M29.98,247.76c9.67-8.98,20.46-16.43,32.25-22.36c2.87-1.45,0.35-5.76-2.52-4.32
	c-12.16,6.12-23.28,13.88-33.26,23.14C24.08,246.42,27.62,249.95,29.98,247.76L29.98,247.76z"/>
</svg>
