<?xml version="1.0" encoding="utf-8"?>
<!-- Generator: Adobe Illustrator 24.0.0, SVG Export Plug-In . SVG Version: 6.00 Build 0)  -->
<svg version="1.1" id="Capa_1" xmlns="http://www.w3.org/2000/svg" xmlns:xlink="http://www.w3.org/1999/xlink" x="0px" y="0px"
	 viewBox="0 0 350 350" style="enable-background:new 0 0 350 350;" xml:space="preserve">
<style type="text/css">
	.st0{fill:#FFFFFF;}
</style>
<g>
	<path d="M184.21,82.86c-15.18-1.6-29.65-4.31-37.54-5.98c-19.57-4.15-29.19-30.53-40.43-44.47
		C79.69,99.07,13.2,162.56,25.79,239.47C44.83,355.79,218.02,365.25,293,300.2c26.65-23.32,40.53-56.21,39.23-91.54
		c-1.34-36.61-17.21-68.1-36.24-98.47c-2.25-3.59-4.5-7.18-6.51-10.91c-3.26-6.04-6.21-12.55-8.94-19.12
		c-2.65-6.39-5.11-12.84-7.47-19c-1.43-3.75-7.67-22.17-4.23-25.42c-12.24,11.53-21.62,33.49-34.28,42.8
		C225.55,85.17,204.26,84.98,184.21,82.86z"/>
</g>
<path d="M142.52,75.34c-3.62-0.89-4.9-4.22-5.57-7.58c-0.36-1.81-0.54-3.69-0.55-5.54c0-0.71,0.01-1.39,0.08-2.09
	c0.16-1.44,1.12-3.72,3.11-3.41c1.81,0.28,4.29,4.03,5.77,5.14c2.16,1.63,4.65,2.57,7.4,2.04c6.44-1.24,8.96-7.82,9.46-13.61
	c0.79-9.13,1.27-17.83,4.08-26.66c0.67-2.11,1.31-4.35,2.41-6.28c1.81-3.15,4.21-2.61,6.6-0.59c2.3,1.94,3.61,3.9,6.62,5.04
	c6.13,2.33,11.3,0.16,16.2-3.56c10.68-8.13,16.9,4.4,17.28,13.87c0.3,7.57-1.16,16.49,3.15,23.24c1.6,2.51,4.23,4.79,7.28,5.16
	c1.42,0.17,2.5-0.24,3.83-0.61c1.79-0.5,1.32-0.72,2.23,0.29c0.72,0.79,0.6,3.26,0.61,4.22c0.11,8.99-5.67,17.59-13.99,20.93
	c-2.95,1.18-1.66,6.02,1.33,4.82c7.28-2.92,12.91-8.44,15.78-15.8c1.94-4.96,4.31-17.34-2.46-20.06c-1.63-0.65-2.4-0.15-3.93,0.2
	c-4.18,0.96-6.21-0.31-7.64-4.53c-2-5.93-0.9-12.55-1.22-18.69c-0.42-8.11-3.2-17.04-11.59-20.07c-3.34-1.21-6.88-1.09-10.05,0.57
	c-4.57,2.4-7.49,6.9-13.28,5.81c-5.33-1.01-5.86-5.79-10-8.02c-3.02-1.62-6.3-0.36-8.58,1.9c-6.32,6.27-7.86,18.63-8.87,27.01
	c-0.6,5.01,0.2,11.02-1.54,15.79c-1.32,3.63-4.83,6.02-8.31,3.43c-1.71-1.28-2.99-3.06-4.7-4.35c-6.55-4.94-11.78,0.84-12.05,7.67
	c-0.29,7.3,1.6,17.13,9.78,19.14C144.32,80.93,145.65,76.11,142.52,75.34L142.52,75.34z"/>
<path d="M156.2,62.52c12.02,1.82,24.13,2.88,36.3,2.95c9.8,0.06,22.49,1.19,30.8-5.04c2.54-1.91,0.05-6.25-2.52-4.32
	c-7.89,5.92-20.86,4.47-30.21,4.34c-11.07-0.15-22.1-1.09-33.04-2.75C154.38,57.23,153.03,62.04,156.2,62.52L156.2,62.52z"/>
<path d="M159.32,46.23c19.07,6.61,39.37,7.77,59.1,3.54c3.14-0.67,1.81-5.5-1.33-4.82c-18.88,4.05-38.21,2.78-56.44-3.54
	C157.6,40.35,156.29,45.18,159.32,46.23L159.32,46.23z"/>
<path d="M163.82,44.5c-1.42,3.71-2.56,7.44-3.43,11.31c-0.54,2.4,2.34,4.23,4.18,2.43c2.22-2.17,4.44-4.34,6.67-6.51
	c-1.18-1.18-2.36-2.36-3.54-3.54c-2.59,2.93-3.86,6.04-4.04,9.94c-0.1,2.08,2.86,3.41,4.27,1.77c2.28-2.65,4.55-5.29,6.83-7.94
	c-1.39-0.37-2.79-0.74-4.18-1.1c0.62,2.14,0.61,4.18-0.04,6.32c-0.74,2.43,2.44,4.15,4.18,2.43c2.5-2.47,4.53-5.1,6.28-8.16
	c-1.55-0.42-3.11-0.84-4.66-1.26c-0.26,2.46-0.53,4.92-0.79,7.39c-0.25,2.35,2.8,3.03,4.27,1.77c1.94-1.67,3.88-3.33,5.82-5
	c-1.42-0.59-2.85-1.18-4.27-1.77c-0.21,2.47-0.41,4.93-0.62,7.39c-0.2,2.38,2.76,2.99,4.27,1.77c2.49-2.03,4.64-4.23,6.61-6.77
	c-1.31-1.01-2.62-2.02-3.93-3.03c-1.13,2.62-1.8,5.09-2.15,7.92c-0.24,1.92,2.28,3.06,3.76,2.16c2.75-1.68,5.15-3.62,7.33-6
	c-1.42-0.59-2.85-1.18-4.27-1.77c-0.23,2.27-0.71,4.04-1.48,6.14c-0.88,2.39,2.53,4.17,4.18,2.43c2.48-2.61,4.96-5.22,7.45-7.83
	c-1.39-0.81-2.79-1.62-4.18-2.43c-0.39,2.31-0.77,4.62-1.16,6.94c-0.31,1.87,1.72,4.27,3.67,2.82c1.84-1.37,3.69-2.73,5.53-4.1
	c-1.25-0.72-2.51-1.44-3.76-2.16c-0.2,1.96,0.17,3.35,1,5.11c0.67,1.42,2.92,1.63,3.93,0.51c2.54-2.83,4.7-5.79,6.58-9.1
	c-1.55-0.42-3.11-0.84-4.66-1.26c-0.04,1.34-0.08,2.69-0.13,4.03c-0.09,2.77,4.35,3.46,4.91,0.66c0.49-0.94,0.99-1.88,1.48-2.82
	c-1.39-0.37-2.79-0.74-4.18-1.1c0.52,3.15,1.04,6.3,1.55,9.46c0.33,2.02,2.9,2.18,4.18,1.1c2.08-1.76,2.87-3.66,2.83-6.38
	c-0.03-1.77-1.57-2.66-3.16-2.41c-3.11,0.48-6.22,0.96-9.33,1.44c1.03,1.03,2.05,2.05,3.08,3.08c0.5-2.47,0.72-4.83,0.62-7.35
	c-0.06-1.47-1.57-3.03-3.16-2.41c-2.91,1.13-4.64,2.86-5.63,5.83c-0.67,2,1.34,3.34,3.08,3.08c1.99-0.3,3.97-0.6,5.96-0.89
	c1.77-0.27,2.51-3.07,1.1-4.18c-4.7-3.7-9.84-2.94-15.32-1.42c-8.95,2.48-17.51,3.21-26.65,1.19c-3.14-0.69-4.47,4.13-1.33,4.82
	c6.46,1.43,12.97,1.87,19.54,1c5.42-0.72,15.4-5.84,20.22-2.05c0.37-1.39,0.74-2.79,1.1-4.18c-1.99,0.3-3.97,0.6-5.96,0.89
	c1.03,1.03,2.05,2.05,3.08,3.08c0.71-0.78,1.43-1.56,2.14-2.33c-1.05-0.8-2.11-1.61-3.16-2.41c0.09,2.14-0.01,3.88-0.44,6.02
	c-0.4,2,1.15,3.37,3.08,3.08c3.11-0.48,6.22-0.96,9.33-1.44c-1.05-0.8-2.11-1.61-3.16-2.41c-0.45,0.95-0.91,1.89-1.36,2.84
	c1.39,0.37,2.79,0.74,4.18,1.1c-0.52-3.15-1.04-6.3-1.55-9.46c-0.32-1.93-2.95-2.31-4.18-1.1c-1.57,1.53-2.34,2.89-2.77,5.03
	c1.64,0.22,3.27,0.44,4.91,0.66c0.04-1.34,0.08-2.69,0.13-4.03c0.08-2.49-3.45-3.38-4.66-1.26c-1.67,2.93-3.55,5.57-5.8,8.08
	c1.31,0.17,2.62,0.34,3.93,0.51c-0.11-0.86-0.21-1.72-0.32-2.58c0.18-1.8-2.3-3.24-3.76-2.16c-1.84,1.37-3.69,2.73-5.53,4.1
	c1.22,0.94,2.45,1.88,3.67,2.82c0.39-2.31,0.77-4.62,1.16-6.94c0.38-2.29-2.31-4.4-4.18-2.43c-2.48,2.61-4.96,5.22-7.45,7.83
	c1.39,0.81,2.79,1.62,4.18,2.43c0.92-2.47,1.4-4.86,1.66-7.47c0.22-2.17-2.87-3.28-4.27-1.77c-1.91,2.07-3.92,3.75-6.32,5.22
	c1.25,0.72,2.51,1.44,3.76,2.16c0.18-1.88,0.67-3.68,1.47-5.4c1.01-2.33-2.02-5.49-3.93-3.03c-1.97,2.53-4.12,4.74-6.61,6.77
	c1.42,0.59,2.85,1.18,4.27,1.77c0.21-2.46,0.41-4.93,0.62-7.39c0.2-2.34-2.78-3.05-4.27-1.77c-1.94,1.67-3.88,3.33-5.82,5
	c1.42,0.59,2.85,1.18,4.27,1.77c0.26-2.46,0.53-4.92,0.79-7.39c0.27-2.55-3.5-3.28-4.66-1.26c-1.53,2.67-3.31,4.99-5.5,7.14
	c1.39,0.81,2.79,1.62,4.18,2.43c0.95-3.13,0.96-5.83,0.04-8.98c-0.49-1.69-2.91-2.58-4.18-1.1c-2.28,2.65-4.55,5.29-6.83,7.94
	c1.42,0.59,2.85,1.18,4.27,1.77c0.12-2.58,0.87-4.47,2.58-6.41c2.12-2.4-1.21-5.81-3.54-3.54c-2.22,2.17-4.44,4.34-6.67,6.51
	c1.39,0.81,2.79,1.62,4.18,2.43c0.87-3.87,2-7.61,3.43-11.31C169.79,42.82,164.96,41.52,163.82,44.5L163.82,44.5z"/>
<path class="st0" d="M255.78,146.12c-11.07-2.9-19.24,8.36-20.04,18.28c-0.85,10.46,7.14,21.32,18.4,20.21
	c10.85-1.08,16.78-12.33,15.07-22.35c-1.67-9.78-11.37-19.48-21.44-13.18c-2.72,1.7-0.22,6.03,2.52,4.32
	c13.71-8.57,21.89,26.03,2.47,26.31c-18.12,0.26-13.88-32.84,1.69-28.76C257.56,151.75,258.89,146.93,255.78,146.12L255.78,146.12z"
	/>
<path class="st0" d="M251.83,162.24c-4.07,2.38-2.12,9.89,2.83,9.26c1.16-0.15,2.03-0.68,2.41-1.84c1.17-3.56,0.24-7.29-2.17-10.09
	c-1.08-1.25-3.15-0.79-3.93,0.51c-0.74,1.23-1.49,2.46-2.23,3.69c-1.67,2.76,2.65,5.28,4.32,2.52c0.74-1.23,1.49-2.46,2.23-3.69
	c-1.31,0.17-2.62,0.34-3.93,0.51c1.28,1.48,1.48,3.41,0.89,5.23c0.8-0.61,1.61-1.22,2.41-1.84c-0.84,0.11-0.08,0-0.09,0.09
	c-0.03,0.28,0.1-0.42-0.01-0.15c0.26-0.64-0.14,0.08-0.2,0.12C257.14,164.93,254.62,160.61,251.83,162.24L251.83,162.24z"/>
<path class="st0" d="M114.58,146.12c-11.07-2.9-19.24,8.36-20.04,18.28c-0.85,10.46,7.14,21.32,18.4,20.21
	c10.85-1.08,16.78-12.33,15.07-22.35c-1.67-9.78-11.37-19.48-21.44-13.18c-2.72,1.7-0.22,6.03,2.52,4.32
	c13.71-8.57,21.89,26.03,2.47,26.31c-18.12,0.26-13.88-32.84,1.69-28.76C116.37,151.75,117.7,146.93,114.58,146.12L114.58,146.12z"
	/>
<path class="st0" d="M110.64,162.24c-4.07,2.38-2.12,9.89,2.83,9.26c1.16-0.15,2.03-0.68,2.41-1.84c1.17-3.56,0.24-7.29-2.17-10.09
	c-1.08-1.25-3.15-0.79-3.93,0.51c-0.74,1.23-1.49,2.46-2.23,3.69c-1.67,2.76,2.65,5.28,4.32,2.52c0.74-1.23,1.49-2.46,2.23-3.69
	c-1.31,0.17-2.62,0.34-3.93,0.51c1.28,1.48,1.48,3.41,0.89,5.23c0.8-0.61,1.61-1.22,2.41-1.84c-0.84,0.11-0.08,0-0.09,0.09
	c-0.03,0.28,0.1-0.42-0.01-0.15c0.26-0.64-0.14,0.08-0.2,0.12C115.94,164.93,113.43,160.61,110.64,162.24L110.64,162.24z"/>
<path class="st0" d="M158.71,87.4c-1.34,6.73-1.89,13.54-1.26,20.39c0.36,3.95,0.44,9.89,3.88,12.62
	c8.29,6.59,13.76-10.95,14.24-16.2c0.61-6.69-2.01-17.74-10.72-17.51c-4.62,0.13-5.34,4.15-5.5,7.91
	c-0.29,6.78,0.68,13.64,2.29,20.21c0.56,2.31,4.35,2.46,4.82,0c1.44-7.52,1.89-15.02,1.24-22.66c-0.27-3.16-5.15-3.25-5,0
	c0.3,6.64,0.17,13.24-0.41,19.87c-0.28,3.21,4.72,3.19,5,0c0.58-6.62,0.71-13.23,0.41-19.87c-1.67,0-3.33,0-5,0
	c0.61,7.18,0.29,14.24-1.06,21.33c1.61,0,3.21,0,4.82,0c-0.8-3.27-1.46-6.57-1.79-9.92c-0.25-2.49-1.31-7.54-0.28-9.85
	c1.78-4.01,4.86,0.88,5.58,3.11c0.76,2.37,0.86,4.92,0.61,7.38c-0.31,3.01-1.11,6.19-2.65,8.81c-0.9,1.55-1.6,3.28-3.36,2.4
	c-1.48-0.74-1.36-2.12-1.61-3.6c-1.3-7.64-0.93-15.51,0.58-23.08C164.15,85.58,159.34,84.24,158.71,87.4L158.71,87.4z"/>
<path class="st0" d="M171.39,94.34c0.19-0.48,0.38-0.96,0.56-1.44c-1.01,0.13-2.02,0.26-3.03,0.39c1.07,0.71,1.9,1.64,2.47,2.79
	c1.68,2.8,5.65,0.35,4.32-2.52c-0.94-2.02-2.22-3.33-4.14-4.43c-0.2,1.52-0.4,3.05-0.6,4.57c0.09-0.02-2.87,9.4-3.28,10.47
	c-1.41,3.71-2.82,7.42-4.23,11.12c-1.15,3.01,3.69,4.31,4.82,1.33c1.41-3.71,2.82-7.42,4.23-11.12c1.23-3.25,3.38-7.09,3.65-10.58
	c0.31-3.99-2.58-6.87-6.52-6.05c-2.14,0.45-2.39,3.54-0.6,4.57c1.2,0.56,1.98,1.43,2.35,2.63c1.44-0.84,2.88-1.68,4.32-2.52
	c-1.14-1.9-2.48-3.28-4.26-4.58c-0.86-0.63-2.33-0.35-3.03,0.39c-1.8,1.91-2.24,3.76-1.85,6.3
	C167.06,98.84,171.87,97.5,171.39,94.34L171.39,94.34z"/>
<path class="st0" d="M190.48,94.05c-0.33,5.53-0.31,11.05,0.2,16.57c0.35,3.75,0.45,8.37,1.98,11.86c2.49,5.71,9.42,4.22,11.88-0.65
	c1.86-3.67,2.13-8.39,2.91-12.39c0.79-4.05,1.97-8.44,0.94-12.56c-1.38-5.49-7.6-9.28-12.72-5.99c-0.94,0.6-1.45,1.72-1.15,2.82
	c2.24,8.11,2.45,16.18,0.58,24.39c-0.71,3.13,4.04,4.46,4.82,1.33c1.89-7.55,3.31-15.17,4.33-22.88c-1.67,0-3.33,0-5,0
	c0.44,5.67,0.04,11.14-1.3,16.67c-0.76,3.13,4.06,4.46,4.82,1.33c1.44-5.95,1.96-11.89,1.48-18c-0.26-3.28-4.58-3.14-5,0
	c-0.96,7.27-2.37,14.44-4.15,21.55c1.61,0.44,3.21,0.89,4.82,1.33c2.06-9.05,1.89-18.09-0.58-27.05c-0.38,0.94-0.77,1.88-1.15,2.82
	c6.65-4.27,5.19,9.01,4.6,12.03c-0.48,2.46-0.7,9.71-2.4,11.61c-3.65,4.07-3.67-0.42-3.95-2.12c-0.49-2.99-0.8-6.01-1-9.03
	c-0.29-4.55-0.24-9.1,0.03-13.66C195.67,90.83,190.67,90.85,190.48,94.05L190.48,94.05z"/>
<path class="st0" d="M194.41,98.04c0.2,3.95-0.45,7.66-1.92,11.33c-1.2,2.99,3.64,4.28,4.82,1.33c1.62-4.04,2.31-8.31,2.1-12.66
	C199.25,94.83,194.25,94.81,194.41,98.04L194.41,98.04z"/>
<path class="st0" d="M323.95,190.51c-8.69,1.05-16.96,3.93-24.12,9.04c-4.57,3.27-12.39,9.24-5.36,14.26
	c6.77,4.85,16.89,5.78,24.74,3.54c2.77-0.79,5.09-1.84,5.75-4.84c1.05-4.74-0.45-10.83-0.78-15.64c-0.12-1.72-2.1-3.34-3.76-2.16
	c-6.23,4.42-12.46,8.85-18.7,13.27c-2.12,1.51-0.92,5.67,1.93,4.57c5.44-2.1,10.29-4.89,14.86-8.51c2.2-1.75-0.74-5.61-3.03-3.93
	c-2.79,2.04-5.21,4.24-7.41,6.93c-0.64,0.77-1.1,2.11-0.39,3.03c0.76,0.99,1.24,1.56,2.44,2.02c0.41,0.16,3.85,0.63,3.86,0.21
	c0.41-0.72,0.83-1.44,1.24-2.16c-0.21,0.13-0.41,0.26-0.62,0.39c1.22,0.94,2.45,1.88,3.67,2.82c0.37-1.61,1.24-2.89,2.62-3.85
	c-1.01-1.31-2.02-2.62-3.03-3.93c-0.94,0.88-11.32,9.09-10.77,3.83c0.34-3.23,7.83-6.23,10.26-7.12c2.98-1.09,1.84-5.64-1.33-4.82
	c-7.59,1.96-14.26,5.74-19.88,11.2c-1.95,1.9,0.14,4.52,2.43,4.18c5.74-0.87,10.65-3.32,14.93-7.22c2.38-2.17-1.16-5.7-3.54-3.54
	c-3.68,3.35-7.83,5.2-12.73,5.94c0.81,1.39,1.62,2.79,2.43,4.18c5.03-4.89,10.88-8.16,17.68-9.92c-0.44-1.61-0.89-3.21-1.33-4.82
	c-5.47,2-17.34,8.17-14.01,15.9c3.54,8.23,15.73-0.85,19.39-4.24c2.03-1.89-0.73-5.66-3.03-3.93c-2.46,1.86-3.98,3.86-4.92,6.83
	c-0.65,2.07,1.84,3.95,3.67,2.82c2.03-1.26,2.43-3.33,1.07-5.34c-0.53-0.79-1.39-1.46-2.27-1.81c-0.52-0.2-3.87-0.08-3.92-0.15
	c-0.13,1.01-0.26,2.02-0.39,3.03c1.92-2.34,3.96-4.35,6.4-6.14c-1.01-1.31-2.02-2.62-3.03-3.93c-3.86,3.06-8.07,5.45-12.66,7.23
	c0.64,1.52,1.28,3.05,1.93,4.57c6.23-4.42,12.46-8.85,18.7-13.27c-1.25-0.72-2.51-1.44-3.76-2.16c0.22,3.15,0.44,6.3,0.65,9.45
	c0.22,3.19,0.92,5.54-2.75,6.41c-5.35,1.26-13.41,1.32-18.13-2.08c-2.99-2.15-0.55-3.68,1.76-5.52c2-1.59,4.13-3,6.36-4.24
	c5.22-2.88,10.96-4.66,16.87-5.38C327.1,195.13,327.14,190.12,323.95,190.51L323.95,190.51z"/>
<path class="st0" d="M318.49,230.54c-0.64-4.64-12.31-3.18-15.19-2.36c-4.3,1.22-9.82,4.13-11.06,8.81
	c-1.31,4.97,2.94,9.36,6.43,12.27c4.46,3.73,9.74,6.04,15.46,6.97c1.08,0.17,2.26-0.11,2.82-1.15c3.83-7.12,5.62-14.72,5.26-22.81
	c-0.09-1.97-2.8-3.55-4.27-1.77c-2.9,3.53-5.8,7.05-8.69,10.58c1.39,0.81,2.79,1.62,4.18,2.43c0.94-2.54,1.87-5.09,2.81-7.63
	c0.79-2.16-1.89-3.79-3.67-2.82c-3.24,1.75-6.47,3.5-9.71,5.25c1.01,1.31,2.02,2.62,3.03,3.93c1.55-1.69,2.55-3.4,3.21-5.61
	c0.69-2.29-1.81-3.64-3.67-2.82c-1.57,0.67-3.04,0.63-4.42-0.13c-1.23-0.48-2.79,0.54-3.08,1.75c-0.8,3.35-1.47,7.08,0.55,10.15
	c2.34,3.56,5.11,2.38,8.58,3.18c2.84,0.66,4.96,2.78,7.61,0.15c2.78-2.77,1.89-8.45,1.47-11.84c-0.16-1.33-1.01-2.52-2.5-2.5
	c-2.69,0.04-4.48,1.78-4.81,4.48c-0.15,1.26,0.1,2.5,0.67,3.63c0.27,0.53,0.73,1.03,1.1,1.5c0.41,0.46,0.83,0.92,1.25,1.36
	c0.81,1.1,2,1.09,3.57-0.01c0.41,0.72,0.83,1.44,1.24,2.16c0.01-0.16,0.02-0.33,0.04-0.49c0.23-3.21-4.77-3.2-5,0
	c-0.2,2.74,3.19,4.42,5.27,2.52c1.14-1.04,1.25-2.8,0.84-4.17c-0.33-1.11-3.61-5.99-4.17-5.98c-0.83-0.83-1.67-1.67-2.5-2.5
	c0.23,1.84,0.43,3.7,0.35,5.56c-0.16,3.7-0.07,2.02-2.05,1.23c-0.94-0.37-1.98-0.15-2.89-0.4c-5.24-1.39-4.69-2.99-3.8-6.7
	c-1.03,0.58-2.05,1.16-3.08,1.75c2.94,1.15,5.44,0.87,8.27-0.37c-1.22-0.94-2.45-1.88-3.67-2.82c-0.28,1.34-0.92,2.47-1.92,3.41
	c-1.92,2.09,0.49,5.3,3.03,3.93c3.24-1.75,6.47-3.5,9.71-5.25c-1.22-0.94-2.45-1.88-3.67-2.82c-0.94,2.54-1.87,5.09-2.81,7.63
	c-0.84,2.29,2.61,4.34,4.18,2.43c2.9-3.53,5.8-7.05,8.69-10.58c-1.42-0.59-2.85-1.18-4.27-1.77c0.32,7.22-1.15,13.91-4.58,20.28
	c0.94-0.38,1.88-0.77,2.82-1.15c-5.1-0.83-9.9-2.75-13.84-6.17c-2.98-2.59-6.14-7.1-1.67-10.09c2.16-1.45,4.64-2.31,7.2-2.64
	c2.59-0.34,5.12-0.1,7.62,0.69c1.71,0.54,3.3,1.56,5.18,1.25c2.76-0.46,3.7-2.78,3.36-5.24
	C322.87,226.04,318.05,227.39,318.49,230.54L318.49,230.54z"/>
<path class="st0" d="M31.49,201.03c-0.34,6.74-0.64,13.9,0.44,20.59c0.63,3.88,2.28,6.08,6.47,5.69c5.63-0.53,11.51-2.67,16.68-4.88
	c4.37-1.88,9.27-4.7,10.96-9.48c3.48-9.88-8.92-13.11-16.04-13.56c-3.98-0.25-9.8-0.49-12.73,2.82c-3.38,3.83-1.48,11.71-1.35,16.36
	c0.05,1.71,2.16,3.36,3.76,2.16c4.34-3.23,7.96-6.91,11.1-11.32c1.63-2.29-2.17-5.27-3.93-3.03c-2.11,2.7-3.46,5.39-4.01,8.8
	c-0.4,2.45,2.2,4.15,4.18,2.43c3.08-2.69,6.4-4.59,10.28-5.91c-0.94-1.22-1.88-2.45-2.82-3.67c-2.13,2.96-4.26,5.92-6.39,8.88
	c-1.5,2.08,1.39,4.66,3.42,3.42c3.9-2.37,13.17-5.59,10.31-11.8c-2.21-4.79-9.07-5.88-13.67-5.21c-5.09,0.74-10.52,3.87-12.79,8.68
	c-2.94,6.24,4.54,7.65,8.92,9.36c3,1.18,4.3-3.66,1.33-4.82c-2.53-0.99-6.54-1.5-4.14-4.55c1.67-2.12,4.79-3.33,7.36-3.71
	c2.07-0.31,6.66-0.47,7.36,2.02c0.52,1.86-1.08,1.98-2.6,2.91c-1.53,0.93-3.06,1.87-4.6,2.8c1.14,1.14,2.28,2.28,3.42,3.42
	c2.13-2.96,4.26-5.92,6.39-8.88c1.27-1.76-0.84-4.35-2.82-3.67c-4.69,1.6-8.75,3.94-12.48,7.2c1.39,0.81,2.79,1.62,4.18,2.43
	c0.4-2.48,1.15-4.58,2.72-6.6c-1.31-1.01-2.62-2.02-3.93-3.03c-2.62,3.68-5.68,6.82-9.3,9.52c1.25,0.72,2.51,1.44,3.76,2.16
	c-0.1-3.2-0.53-6.59-0.29-9.77c0.23-2.98,0.68-3.93,3.53-4.35c1.59-0.24,3.41-0.18,5-0.11c3.04,0.14,6.55,0.45,9.3,1.89
	c5.24,2.73,2.01,7.49-1.67,9.81c-2.65,1.66-5.71,2.74-8.66,3.72c-1.81,0.6-9.61,3.74-11.12,2.34c-1.19-1.11-0.63-8.12-0.68-9.81
	c-0.11-3.75-0.03-7.49,0.16-11.24C36.65,197.81,31.65,197.82,31.49,201.03L31.49,201.03z"/>
<path class="st0" d="M37.56,246.35c5.34-1.46,9.88-4.95,15.19-6.38c5.88-1.58,14.32,1.39,9.7,8.86c-3.07,4.96-8.93,8.67-13.75,11.72
	c-0.75,0.47-2.69,2.22-3.64,2.17c-1.84-0.09-1.51-0.95-2.21-2.15c-0.64-1.09-1.03-2.41-1.53-3.58c-0.35-0.85-0.7-1.7-1.06-2.54
	c-1.12-2.02-0.59-3.86,1.59-5.52c-0.58-1.03-1.16-2.05-1.75-3.08c-1.36,3.78-1.78,7.31-1.3,11.3c0.28,2.39,3.22,3.49,4.66,1.26
	c2.73-4.24,5.47-8.49,8.2-12.73c-1.44-0.84-2.88-1.68-4.32-2.52c-1.62,3.76-3.24,7.51-4.86,11.27c-1.04,2.4,1.82,5.29,3.93,3.03
	c3.81-4.1,7.62-8.19,11.42-12.29c-1.31-1.01-2.62-2.02-3.93-3.03c-2.6,5.05-5.6,9.8-9.05,14.31c-1.77,2.31,1.95,4.94,3.93,3.03
	c4.3-4.17,8.6-8.33,12.9-12.5c-1.39-0.81-2.79-1.62-4.18-2.43c-1.06,2.77-2.56,4.82-4.75,6.81c1.31,1.01,2.62,2.02,3.93,3.03
	c1.25-2.22,2.7-4.22,4.63-5.91c1.24-1.09,2.82-1.73,3.57-3.23c1.13-2.23,0.29-4.83-1.73-6.23c-5.98-4.15-14.42,3.75-18.42,7.59
	c-3.65,3.5-9.84,11.84-2.21,15.08c8.54,3.62,11.07-7.66,17.07-9.99c2.97-1.15,1.68-5.99-1.33-4.82c-2.93,1.13-4.75,2.85-6.68,5.31
	c-0.79,1.01-3.58,5.53-5.36,4.85c-4.33-1.65,1.59-6.49,2.59-7.43c1.7-1.6,3.44-3.18,5.42-4.43c1.09-0.71,2.25-1.3,3.46-1.78
	c2.36-0.67,2.96-0.62,1.8,0.14c-0.2,0.88-3.59,3.23-4.31,4.1c-1.09,1.33-2,2.75-2.84,4.24c-1.42,2.51,1.84,4.94,3.93,3.03
	c2.81-2.57,4.67-5.47,6.03-9.02c0.94-2.44-2.51-4.05-4.18-2.43c-4.3,4.17-8.6,8.33-12.9,12.5c1.31,1.01,2.62,2.02,3.93,3.03
	c3.45-4.51,6.45-9.26,9.05-14.31c1.25-2.42-1.91-5.2-3.93-3.03c-3.81,4.1-7.62,8.19-11.42,12.29c1.31,1.01,2.62,2.02,3.93,3.03
	c1.62-3.76,3.24-7.51,4.86-11.27c1.25-2.89-2.53-5.3-4.32-2.52c-2.73,4.24-5.47,8.49-8.2,12.73c1.55,0.42,3.11,0.84,4.66,1.26
	c-0.42-3.52-0.07-6.65,1.12-9.97c0.46-1.28-0.53-2.72-1.75-3.08c-3.37-0.97-6.6,0.63-8.04,3.87c-2.08,4.68,1.23,10.16,3.07,14.41
	c1.44,3.33,3.38,6.61,7.56,5.49c5.01-1.34,10.25-6.11,14.19-9.35c6.22-5.11,13.96-15.86,4.32-21.99
	c-9.62-6.11-18.99,2.51-28.06,4.99C33.13,242.38,34.45,247.21,37.56,246.35L37.56,246.35z"/>
<path class="st0" d="M192.54,209.57c-1.96-4.61-7.5-8.35-12.46-5.71c-4.66,2.48-5.79,8.66-1.65,12.15c3.9,3.28,9.76,3.15,14.08,0.83
	c3.76-2.02,8.4-7.6,5.88-12.11c-1.22-2.17-3.96-2.84-6.18-3.4c-3.38-0.85-7.06-1.31-10.38,0.05c-4.37,1.79-7.5,6.91-5.31,11.48
	c4.11,8.56,24.38,3.52,18.29-5.33c-2.66-3.87-12.43-5.12-14.42,0.08c-0.91,2.37,0.36,5.06,2.4,6.39c3.03,1.98,6.52,0.57,9.44-0.9
	c1.14-0.57,1.63-2.36,0.9-3.42c-1.82-2.62-5.47-2.79-7.16,0.12c-1.62,2.79,2.7,5.31,4.32,2.52c-0.49-0.04-0.98-0.08-1.47-0.12
	c0.3-1.14,0.6-2.28,0.9-3.42c-0.88,0.5-1.81,0.89-2.79,1.15c-2.03-0.41-2.17-0.59-0.44-0.56c0.81-0.06,3.72-0.07,4.05,0.73
	c0.75,1.81-4.46,2.27-5.54,2.26c-2.52-0.03-5.18-1.22-3.76-4.21c1.57-3.31,6.2-2.79,9.03-2.17c0.58,0.13,3.13,0.44,3.51,1.04
	c0.73,1.17-0.75,3.01-1.49,3.78c-1.56,1.64-3.82,2.65-6.08,2.74c-2.4,0.09-7.53-1.82-4.52-4.73c2.61-2.51,5.58,1,6.54,3.28
	C189.47,215.05,193.78,212.5,192.54,209.57L192.54,209.57z"/>
<path class="st0" d="M180.31,217.58c3.81,5.9,4.46,13.3,0.56,19.36c-1.68,2.61-4.01,4.75-6.76,6.19c-2.98,1.56-12.32,3.43-11.2-3.21
	c0.53-3.15-4.29-4.5-4.82-1.33c-0.74,4.41,1.23,8.44,5.45,10.27c5.2,2.25,11.42,0.06,15.74-3.08c9.88-7.17,11.86-20.62,5.35-30.72
	C182.88,212.36,178.55,214.86,180.31,217.58L180.31,217.58z"/>
<path class="st0" d="M184.84,220.34c0.3,7.54,1.31,17.22,8.6,21.42c8.07,4.64,16.91-0.77,21.8-7.37c1.92-2.59-2.42-5.08-4.32-2.52
	c-3.87,5.22-11.9,9.72-17.19,3.67c-3.45-3.93-3.69-10.27-3.89-15.21C189.71,217.14,184.71,217.12,184.84,220.34L184.84,220.34z"/>
<path class="st0" d="M230.46,212.08c8.97-2.55,17.9-2.49,26.84,0.17c3.09,0.92,4.41-3.9,1.33-4.82c-9.73-2.9-19.73-2.95-29.5-0.17
	C226.04,208.14,227.35,212.97,230.46,212.08L230.46,212.08z"/>
<path class="st0" d="M236.65,223.18c3.69,1.61,7.38,3.22,11.08,4.83c2.92,1.27,5.47-3.03,2.52-4.32c-3.69-1.61-7.38-3.22-11.08-4.83
	C236.25,217.59,233.7,221.9,236.65,223.18L236.65,223.18z"/>
<path class="st0" d="M155.74,207.07c-6.42-1.89-12.87-2.25-19.48-1.28c-3.17,0.46-1.82,5.28,1.33,4.82
	c5.69-0.83,11.31-0.33,16.82,1.28C157.51,212.8,158.83,207.97,155.74,207.07L155.74,207.07z"/>
<path class="st0" d="M150.81,214.22c-6.04,2.93-12.07,5.85-18.11,8.78c-2.89,1.4-0.36,5.72,2.52,4.32
	c6.04-2.93,12.07-5.85,18.11-8.78C156.23,217.14,153.69,212.82,150.81,214.22L150.81,214.22z"/>
</svg>
